<?xml version="1.0" encoding="UTF-8" standalone="no"?>
<!-- This is a Stata generated SVG file (http://www.stata.com) -->

<svg version="1.1" width="5.50in" height="4.00in" viewBox="0 0 3960 2880" xmlns="http://www.w3.org/2000/svg">
	<rect x="0.00" y="0.00" width="3959.88" height="2880.00" style="fill:#EAF2F3;stroke:#EAF2F3;stroke-width:5.76"/>
	<rect x="390.80" y="100.86" width="3468.22" height="2388.33" style="fill:#FFFFFF;stroke:#FFFFFF;stroke-width:5.76"/>
	<line x1="390.80" y1="2489.19" x2="3859.02" y2="2489.19" style="stroke:#EAF2F3;stroke-width:8.64"/>
	<line x1="390.80" y1="2050.97" x2="3859.02" y2="2050.97" style="stroke:#EAF2F3;stroke-width:8.64"/>
	<line x1="390.80" y1="1612.76" x2="3859.02" y2="1612.76" style="stroke:#EAF2F3;stroke-width:8.64"/>
	<line x1="390.80" y1="1174.55" x2="3859.02" y2="1174.55" style="stroke:#EAF2F3;stroke-width:8.64"/>
	<line x1="390.80" y1="736.34" x2="3859.02" y2="736.34" style="stroke:#EAF2F3;stroke-width:8.64"/>
	<line x1="390.80" y1="298.12" x2="3859.02" y2="298.12" style="stroke:#EAF2F3;stroke-width:8.64"/>
	<rect x="474.21" y="1756.31" width="40.34" height="732.87" style="fill:#CAC27E;stroke:#D7D29E;stroke-width:8.64"/>
	<rect x="514.55" y="1124.55" width="40.22" height="1364.63" style="fill:#CAC27E;stroke:#D7D29E;stroke-width:8.64"/>
	<rect x="554.77" y="1427.75" width="40.22" height="1061.44" style="fill:#CAC27E;stroke:#D7D29E;stroke-width:8.64"/>
	<rect x="594.99" y="1073.94" width="40.34" height="1415.25" style="fill:#CAC27E;stroke:#D7D29E;stroke-width:8.64"/>
	<rect x="635.33" y="1452.99" width="40.22" height="1036.19" style="fill:#CAC27E;stroke:#D7D29E;stroke-width:8.64"/>
	<rect x="675.55" y="1250.90" width="40.22" height="1238.28" style="fill:#CAC27E;stroke:#D7D29E;stroke-width:8.64"/>
	<rect x="715.77" y="1326.64" width="40.34" height="1162.54" style="fill:#CAC27E;stroke:#D7D29E;stroke-width:8.64"/>
	<rect x="756.11" y="1023.44" width="40.22" height="1465.74" style="fill:#CAC27E;stroke:#D7D29E;stroke-width:8.64"/>
	<rect x="796.33" y="1175.04" width="40.22" height="1314.14" style="fill:#CAC27E;stroke:#D7D29E;stroke-width:8.64"/>
	<rect x="836.55" y="1099.18" width="40.34" height="1390.00" style="fill:#CAC27E;stroke:#D7D29E;stroke-width:8.64"/>
	<rect x="876.89" y="1250.90" width="40.22" height="1238.28" style="fill:#CAC27E;stroke:#D7D29E;stroke-width:8.64"/>
	<rect x="917.11" y="1175.04" width="40.22" height="1314.14" style="fill:#CAC27E;stroke:#D7D29E;stroke-width:8.64"/>
	<rect x="957.33" y="1099.18" width="40.34" height="1390.00" style="fill:#CAC27E;stroke:#D7D29E;stroke-width:8.64"/>
	<rect x="997.67" y="1124.55" width="40.22" height="1364.63" style="fill:#CAC27E;stroke:#D7D29E;stroke-width:8.64"/>
	<rect x="1037.89" y="1175.04" width="40.22" height="1314.14" style="fill:#CAC27E;stroke:#D7D29E;stroke-width:8.64"/>
	<rect x="1078.11" y="1402.50" width="40.34" height="1086.68" style="fill:#CAC27E;stroke:#D7D29E;stroke-width:8.64"/>
	<rect x="1118.45" y="1149.80" width="40.22" height="1339.39" style="fill:#CAC27E;stroke:#D7D29E;stroke-width:8.64"/>
	<rect x="1158.67" y="922.34" width="40.22" height="1566.85" style="fill:#CAC27E;stroke:#D7D29E;stroke-width:8.64"/>
	<rect x="1198.89" y="1276.15" width="40.34" height="1213.04" style="fill:#CAC27E;stroke:#D7D29E;stroke-width:8.64"/>
	<rect x="1239.23" y="1655.21" width="40.22" height="833.98" style="fill:#CAC27E;stroke:#D7D29E;stroke-width:8.64"/>
	<rect x="1279.45" y="1225.53" width="40.22" height="1263.65" style="fill:#CAC27E;stroke:#D7D29E;stroke-width:8.64"/>
	<rect x="1319.67" y="1326.64" width="40.34" height="1162.54" style="fill:#CAC27E;stroke:#D7D29E;stroke-width:8.64"/>
	<rect x="1360.01" y="1528.86" width="40.22" height="960.33" style="fill:#CAC27E;stroke:#D7D29E;stroke-width:8.64"/>
	<rect x="1400.23" y="1225.53" width="40.22" height="1263.65" style="fill:#CAC27E;stroke:#D7D29E;stroke-width:8.64"/>
	<rect x="1440.45" y="1402.50" width="40.34" height="1086.68" style="fill:#CAC27E;stroke:#D7D29E;stroke-width:8.64"/>
	<rect x="1480.79" y="770.74" width="40.22" height="1718.45" style="fill:#CAC27E;stroke:#D7D29E;stroke-width:8.64"/>
	<rect x="1521.01" y="1048.69" width="40.22" height="1440.50" style="fill:#CAC27E;stroke:#D7D29E;stroke-width:8.64"/>
	<rect x="1561.23" y="619.02" width="40.34" height="1870.17" style="fill:#CAC27E;stroke:#D7D29E;stroke-width:8.64"/>
	<rect x="1601.57" y="593.77" width="40.22" height="1895.41" style="fill:#CAC27E;stroke:#D7D29E;stroke-width:8.64"/>
	<rect x="1641.79" y="745.37" width="40.22" height="1743.82" style="fill:#CAC27E;stroke:#D7D29E;stroke-width:8.64"/>
	<rect x="1682.01" y="164.22" width="40.34" height="2324.96" style="fill:#CAC27E;stroke:#D7D29E;stroke-width:8.64"/>
	<rect x="1722.35" y="416.93" width="40.22" height="2072.26" style="fill:#CAC27E;stroke:#D7D29E;stroke-width:8.64"/>
	<rect x="1762.57" y="720.12" width="40.22" height="1769.06" style="fill:#CAC27E;stroke:#D7D29E;stroke-width:8.64"/>
	<rect x="1802.79" y="341.07" width="40.34" height="2148.12" style="fill:#CAC27E;stroke:#D7D29E;stroke-width:8.64"/>
	<rect x="1843.13" y="442.17" width="40.22" height="2047.01" style="fill:#CAC27E;stroke:#D7D29E;stroke-width:8.64"/>
	<rect x="1883.35" y="619.02" width="40.22" height="1870.17" style="fill:#CAC27E;stroke:#D7D29E;stroke-width:8.64"/>
	<rect x="1923.57" y="391.56" width="40.34" height="2097.63" style="fill:#CAC27E;stroke:#D7D29E;stroke-width:8.64"/>
	<rect x="1963.91" y="770.74" width="40.22" height="1718.45" style="fill:#CAC27E;stroke:#D7D29E;stroke-width:8.64"/>
	<rect x="2004.13" y="947.58" width="40.22" height="1541.60" style="fill:#CAC27E;stroke:#D7D29E;stroke-width:8.64"/>
	<rect x="2044.35" y="1073.94" width="40.34" height="1415.25" style="fill:#CAC27E;stroke:#D7D29E;stroke-width:8.64"/>
	<rect x="2084.69" y="972.83" width="40.22" height="1516.36" style="fill:#CAC27E;stroke:#D7D29E;stroke-width:8.64"/>
	<rect x="2124.91" y="1149.80" width="40.22" height="1339.39" style="fill:#CAC27E;stroke:#D7D29E;stroke-width:8.64"/>
	<rect x="2165.13" y="871.72" width="40.34" height="1617.46" style="fill:#CAC27E;stroke:#D7D29E;stroke-width:8.64"/>
	<rect x="2205.47" y="821.23" width="40.22" height="1667.95" style="fill:#CAC27E;stroke:#D7D29E;stroke-width:8.64"/>
	<rect x="2245.69" y="922.34" width="40.22" height="1566.85" style="fill:#CAC27E;stroke:#D7D29E;stroke-width:8.64"/>
	<rect x="2285.91" y="1478.36" width="40.34" height="1010.82" style="fill:#CAC27E;stroke:#D7D29E;stroke-width:8.64"/>
	<rect x="2326.25" y="947.58" width="40.22" height="1541.60" style="fill:#CAC27E;stroke:#D7D29E;stroke-width:8.64"/>
	<rect x="2366.47" y="1250.90" width="40.22" height="1238.28" style="fill:#CAC27E;stroke:#D7D29E;stroke-width:8.64"/>
	<rect x="2406.69" y="1326.64" width="40.34" height="1162.54" style="fill:#CAC27E;stroke:#D7D29E;stroke-width:8.64"/>
	<rect x="2447.03" y="1478.36" width="40.22" height="1010.82" style="fill:#CAC27E;stroke:#D7D29E;stroke-width:8.64"/>
	<rect x="2487.25" y="1680.45" width="40.22" height="808.73" style="fill:#CAC27E;stroke:#D7D29E;stroke-width:8.64"/>
	<rect x="2527.47" y="1478.36" width="40.34" height="1010.82" style="fill:#CAC27E;stroke:#D7D29E;stroke-width:8.64"/>
	<rect x="2567.81" y="1276.15" width="40.22" height="1213.04" style="fill:#CAC27E;stroke:#D7D29E;stroke-width:8.64"/>
	<rect x="2608.03" y="1200.29" width="40.22" height="1288.90" style="fill:#CAC27E;stroke:#D7D29E;stroke-width:8.64"/>
	<rect x="2648.25" y="1402.50" width="40.34" height="1086.68" style="fill:#CAC27E;stroke:#D7D29E;stroke-width:8.64"/>
	<rect x="2688.59" y="972.83" width="40.22" height="1516.36" style="fill:#CAC27E;stroke:#D7D29E;stroke-width:8.64"/>
	<rect x="2728.81" y="1301.40" width="40.22" height="1187.79" style="fill:#CAC27E;stroke:#D7D29E;stroke-width:8.64"/>
	<rect x="2769.03" y="1427.75" width="40.34" height="1061.44" style="fill:#CAC27E;stroke:#D7D29E;stroke-width:8.64"/>
	<rect x="2809.37" y="1680.45" width="40.22" height="808.73" style="fill:#CAC27E;stroke:#D7D29E;stroke-width:8.64"/>
	<rect x="2849.59" y="1629.96" width="40.22" height="859.22" style="fill:#CAC27E;stroke:#D7D29E;stroke-width:8.64"/>
	<rect x="2889.81" y="1832.18" width="40.34" height="657.01" style="fill:#CAC27E;stroke:#D7D29E;stroke-width:8.64"/>
	<rect x="2930.15" y="1604.72" width="40.22" height="884.47" style="fill:#CAC27E;stroke:#D7D29E;stroke-width:8.64"/>
	<rect x="2970.37" y="1958.53" width="40.22" height="530.66" style="fill:#CAC27E;stroke:#D7D29E;stroke-width:8.64"/>
	<rect x="3010.59" y="1933.16" width="40.34" height="556.03" style="fill:#CAC27E;stroke:#D7D29E;stroke-width:8.64"/>
	<rect x="3050.93" y="2009.02" width="40.22" height="480.17" style="fill:#CAC27E;stroke:#D7D29E;stroke-width:8.64"/>
	<rect x="3091.15" y="2084.88" width="40.22" height="404.30" style="fill:#CAC27E;stroke:#D7D29E;stroke-width:8.64"/>
	<rect x="3131.37" y="2211.23" width="40.34" height="277.95" style="fill:#CAC27E;stroke:#D7D29E;stroke-width:8.64"/>
	<rect x="3171.71" y="2160.62" width="40.22" height="328.57" style="fill:#CAC27E;stroke:#D7D29E;stroke-width:8.64"/>
	<rect x="3211.93" y="2261.73" width="40.22" height="227.46" style="fill:#CAC27E;stroke:#D7D29E;stroke-width:8.64"/>
	<rect x="3252.15" y="2236.48" width="40.34" height="252.71" style="fill:#CAC27E;stroke:#D7D29E;stroke-width:8.64"/>
	<rect x="3292.49" y="2388.08" width="40.22" height="101.11" style="fill:#CAC27E;stroke:#D7D29E;stroke-width:8.64"/>
	<rect x="3332.71" y="2438.69" width="40.22" height="50.49" style="fill:#CAC27E;stroke:#D7D29E;stroke-width:8.64"/>
	<rect x="3372.93" y="2413.45" width="40.34" height="75.74" style="fill:#CAC27E;stroke:#D7D29E;stroke-width:8.64"/>
	<rect x="3413.27" y="2438.69" width="40.22" height="50.49" style="fill:#CAC27E;stroke:#D7D29E;stroke-width:8.64"/>
	<line x1="390.80" y1="2489.19" x2="390.80" y2="100.86" style="stroke:#000000;stroke-width:5.76"/>
	<line x1="390.80" y1="2489.19" x2="350.83" y2="2489.19" style="stroke:#000000;stroke-width:5.76"/>
	<text x="300.72" y="2489.19" style="font-family:'Helvetica';font-size:99.99px;fill:#000000" transform="rotate(-90 300.72,2489.19)" text-anchor="middle">0</text>
	<line x1="390.80" y1="2050.97" x2="350.83" y2="2050.97" style="stroke:#000000;stroke-width:5.76"/>
	<text x="300.72" y="2050.97" style="font-family:'Helvetica';font-size:99.99px;fill:#000000" transform="rotate(-90 300.72,2050.97)" text-anchor="middle">.005</text>
	<line x1="390.80" y1="1612.76" x2="350.83" y2="1612.76" style="stroke:#000000;stroke-width:5.76"/>
	<text x="300.72" y="1612.76" style="font-family:'Helvetica';font-size:99.99px;fill:#000000" transform="rotate(-90 300.72,1612.76)" text-anchor="middle">.01</text>
	<line x1="390.80" y1="1174.55" x2="350.83" y2="1174.55" style="stroke:#000000;stroke-width:5.76"/>
	<text x="300.72" y="1174.55" style="font-family:'Helvetica';font-size:99.99px;fill:#000000" transform="rotate(-90 300.72,1174.55)" text-anchor="middle">.015</text>
	<line x1="390.80" y1="736.34" x2="350.83" y2="736.34" style="stroke:#000000;stroke-width:5.76"/>
	<text x="300.72" y="736.34" style="font-family:'Helvetica';font-size:99.99px;fill:#000000" transform="rotate(-90 300.72,736.34)" text-anchor="middle">.02</text>
	<line x1="390.80" y1="298.12" x2="350.83" y2="298.12" style="stroke:#000000;stroke-width:5.76"/>
	<text x="300.72" y="298.12" style="font-family:'Helvetica';font-size:99.99px;fill:#000000" transform="rotate(-90 300.72,298.12)" text-anchor="middle">.025</text>
	<text x="190.71" y="1294.96" style="font-family:'Helvetica';font-size:99.99px;fill:#000000" transform="rotate(-90 190.71,1294.96)" text-anchor="middle">Density</text>
	<line x1="390.80" y1="2489.19" x2="3859.02" y2="2489.19" style="stroke:#000000;stroke-width:5.76"/>
	<line x1="574.94" y1="2489.19" x2="574.94" y2="2529.16" style="stroke:#000000;stroke-width:5.76"/>
	<text x="574.94" y="2619.14" style="font-family:'Helvetica';font-size:99.99px;fill:#000000" text-anchor="middle">20</text>
	<line x1="1380.06" y1="2489.19" x2="1380.06" y2="2529.16" style="stroke:#000000;stroke-width:5.76"/>
	<text x="1380.06" y="2619.14" style="font-family:'Helvetica';font-size:99.99px;fill:#000000" text-anchor="middle">40</text>
	<line x1="2185.30" y1="2489.19" x2="2185.30" y2="2529.16" style="stroke:#000000;stroke-width:5.76"/>
	<text x="2185.30" y="2619.14" style="font-family:'Helvetica';font-size:99.99px;fill:#000000" text-anchor="middle">60</text>
	<line x1="2990.54" y1="2489.19" x2="2990.54" y2="2529.16" style="stroke:#000000;stroke-width:5.76"/>
	<text x="2990.54" y="2619.14" style="font-family:'Helvetica';font-size:99.99px;fill:#000000" text-anchor="middle">80</text>
	<line x1="3795.66" y1="2489.19" x2="3795.66" y2="2529.16" style="stroke:#000000;stroke-width:5.76"/>
	<text x="3795.66" y="2619.14" style="font-family:'Helvetica';font-size:99.99px;fill:#000000" text-anchor="middle">100</text>
	<text x="2124.91" y="2729.16" style="font-family:'Helvetica';font-size:99.99px;fill:#000000" text-anchor="middle">Age of respondent</text>
</svg>
