<?xml version="1.0" encoding="UTF-8" standalone="no"?>
<!-- This is a Stata 15.1 generated SVG file (http://www.stata.com) -->

<svg version="1.1" width="5.50in" height="4.00in" viewBox="0 0 3960 2880" xmlns="http://www.w3.org/2000/svg" xmlns:xlink="http://www.w3.org/1999/xlink">
	<desc>Stata Graph - Graph</desc>
	<rect x="0" y="0" width="3960" height="2880" style="fill:#EAF2F3;stroke:none"/>
	<rect x="0.00" y="0.00" width="3959.88" height="2880.00" style="fill:#EAF2F3"/>
	<rect x="2.88" y="2.88" width="3954.12" height="2874.24" style="fill:none;stroke:#EAF2F3;stroke-width:5.76"/>
	<rect x="390.80" y="275.35" width="3468.22" height="2099.36" style="fill:#FFFFFF"/>
	<rect x="393.68" y="278.23" width="3462.46" height="2093.60" style="fill:none;stroke:#FFFFFF;stroke-width:5.76"/>
	<line x1="390.80" y1="2311.35" x2="3859.02" y2="2311.35" style="stroke:#EAF2F3;stroke-width:8.64"/>
	<line x1="390.80" y1="1916.82" x2="3859.02" y2="1916.82" style="stroke:#EAF2F3;stroke-width:8.64"/>
	<line x1="390.80" y1="1522.30" x2="3859.02" y2="1522.30" style="stroke:#EAF2F3;stroke-width:8.64"/>
	<line x1="390.80" y1="1127.77" x2="3859.02" y2="1127.77" style="stroke:#EAF2F3;stroke-width:8.64"/>
	<line x1="390.80" y1="733.24" x2="3859.02" y2="733.24" style="stroke:#EAF2F3;stroke-width:8.64"/>
	<line x1="390.80" y1="338.71" x2="3859.02" y2="338.71" style="stroke:#EAF2F3;stroke-width:8.64"/>
	<line x1="454.04" y1="2089.09" x2="517.52" y2="1916.20" stroke-linecap="round" style="stroke:#1A476F;stroke-width:8.64"/>
	<line x1="517.52" y1="1916.20" x2="581.01" y2="1732.31" stroke-linecap="round" style="stroke:#1A476F;stroke-width:8.64"/>
	<line x1="581.01" y1="1732.31" x2="644.49" y2="1534.42" stroke-linecap="round" style="stroke:#1A476F;stroke-width:8.64"/>
	<line x1="644.49" y1="1534.42" x2="707.85" y2="1359.06" stroke-linecap="round" style="stroke:#1A476F;stroke-width:8.64"/>
	<line x1="707.85" y1="1359.06" x2="771.33" y2="1231.23" stroke-linecap="round" style="stroke:#1A476F;stroke-width:8.64"/>
	<line x1="771.33" y1="1231.23" x2="834.82" y2="1161.31" stroke-linecap="round" style="stroke:#1A476F;stroke-width:8.64"/>
	<line x1="834.82" y1="1161.31" x2="898.30" y2="1143.11" stroke-linecap="round" style="stroke:#1A476F;stroke-width:8.64"/>
	<line x1="898.30" y1="1143.11" x2="961.66" y2="1137.92" stroke-linecap="round" style="stroke:#1A476F;stroke-width:8.64"/>
	<line x1="961.66" y1="1137.92" x2="1025.14" y2="1119.11" stroke-linecap="round" style="stroke:#1A476F;stroke-width:8.64"/>
	<line x1="1025.14" y1="1119.11" x2="1088.63" y2="1135.94" stroke-linecap="round" style="stroke:#1A476F;stroke-width:8.64"/>
	<line x1="1088.63" y1="1135.94" x2="1152.11" y2="1155.98" stroke-linecap="round" style="stroke:#1A476F;stroke-width:8.64"/>
	<line x1="1152.11" y1="1155.98" x2="1215.60" y2="1186.30" stroke-linecap="round" style="stroke:#1A476F;stroke-width:8.64"/>
	<line x1="1215.60" y1="1186.30" x2="1278.96" y2="1220.58" stroke-linecap="round" style="stroke:#1A476F;stroke-width:8.64"/>
	<line x1="1278.96" y1="1220.58" x2="1342.44" y2="1220.21" stroke-linecap="round" style="stroke:#1A476F;stroke-width:8.64"/>
	<line x1="1342.44" y1="1220.21" x2="1405.92" y2="1195.21" stroke-linecap="round" style="stroke:#1A476F;stroke-width:8.64"/>
	<line x1="1405.92" y1="1195.21" x2="1469.41" y2="1126.53" stroke-linecap="round" style="stroke:#1A476F;stroke-width:8.64"/>
	<line x1="1469.41" y1="1126.53" x2="1532.77" y2="1016.27" stroke-linecap="round" style="stroke:#1A476F;stroke-width:8.64"/>
	<line x1="1532.77" y1="1016.27" x2="1596.25" y2="884.72" stroke-linecap="round" style="stroke:#1A476F;stroke-width:8.64"/>
	<line x1="1596.25" y1="884.72" x2="1659.73" y2="749.08" stroke-linecap="round" style="stroke:#1A476F;stroke-width:8.64"/>
	<line x1="1659.73" y1="749.08" x2="1723.22" y2="640.30" stroke-linecap="round" style="stroke:#1A476F;stroke-width:8.64"/>
	<line x1="1723.22" y1="640.30" x2="1786.70" y2="567.29" stroke-linecap="round" style="stroke:#1A476F;stroke-width:8.64"/>
	<line x1="1786.70" y1="567.29" x2="1850.06" y2="553.43" stroke-linecap="round" style="stroke:#1A476F;stroke-width:8.64"/>
	<line x1="1850.06" y1="553.43" x2="1913.55" y2="602.06" stroke-linecap="round" style="stroke:#1A476F;stroke-width:8.64"/>
	<line x1="1913.55" y1="602.06" x2="1977.03" y2="670.75" stroke-linecap="round" style="stroke:#1A476F;stroke-width:8.64"/>
	<line x1="1977.03" y1="670.75" x2="2040.51" y2="751.43" stroke-linecap="round" style="stroke:#1A476F;stroke-width:8.64"/>
	<line x1="2040.51" y1="751.43" x2="2103.87" y2="834.22" stroke-linecap="round" style="stroke:#1A476F;stroke-width:8.64"/>
	<line x1="2103.87" y1="834.22" x2="2167.36" y2="908.23" stroke-linecap="round" style="stroke:#1A476F;stroke-width:8.64"/>
	<line x1="2167.36" y1="908.23" x2="2230.84" y2="985.58" stroke-linecap="round" style="stroke:#1A476F;stroke-width:8.64"/>
	<line x1="2230.84" y1="985.58" x2="2294.32" y2="1058.10" stroke-linecap="round" style="stroke:#1A476F;stroke-width:8.64"/>
	<line x1="2294.32" y1="1058.10" x2="2357.81" y2="1125.54" stroke-linecap="round" style="stroke:#1A476F;stroke-width:8.64"/>
	<line x1="2357.81" y1="1125.54" x2="2421.17" y2="1193.23" stroke-linecap="round" style="stroke:#1A476F;stroke-width:8.64"/>
	<line x1="2421.17" y1="1193.23" x2="2484.65" y2="1240.51" stroke-linecap="round" style="stroke:#1A476F;stroke-width:8.64"/>
	<line x1="2484.65" y1="1240.51" x2="2548.14" y2="1270.09" stroke-linecap="round" style="stroke:#1A476F;stroke-width:8.64"/>
	<line x1="2548.14" y1="1270.09" x2="2611.62" y2="1283.70" stroke-linecap="round" style="stroke:#1A476F;stroke-width:8.64"/>
	<line x1="2611.62" y1="1283.70" x2="2674.98" y2="1306.84" stroke-linecap="round" style="stroke:#1A476F;stroke-width:8.64"/>
	<line x1="2674.98" y1="1306.84" x2="2738.46" y2="1340.63" stroke-linecap="round" style="stroke:#1A476F;stroke-width:8.64"/>
	<line x1="2738.46" y1="1340.63" x2="2801.95" y2="1389.76" stroke-linecap="round" style="stroke:#1A476F;stroke-width:8.64"/>
	<line x1="2801.95" y1="1389.76" x2="2865.43" y2="1478.49" stroke-linecap="round" style="stroke:#1A476F;stroke-width:8.64"/>
	<line x1="2865.43" y1="1478.49" x2="2928.79" y2="1597.04" stroke-linecap="round" style="stroke:#1A476F;stroke-width:8.64"/>
	<line x1="2928.79" y1="1597.04" x2="2992.28" y2="1713.37" stroke-linecap="round" style="stroke:#1A476F;stroke-width:8.64"/>
	<line x1="2992.28" y1="1713.37" x2="3055.76" y2="1821.78" stroke-linecap="round" style="stroke:#1A476F;stroke-width:8.64"/>
	<line x1="3055.76" y1="1821.78" x2="3119.24" y2="1915.83" stroke-linecap="round" style="stroke:#1A476F;stroke-width:8.64"/>
	<line x1="3119.24" y1="1915.83" x2="3182.73" y2="2002.96" stroke-linecap="round" style="stroke:#1A476F;stroke-width:8.64"/>
	<line x1="3182.73" y1="2002.96" x2="3246.09" y2="2086.61" stroke-linecap="round" style="stroke:#1A476F;stroke-width:8.64"/>
	<line x1="3246.09" y1="2086.61" x2="3309.57" y2="2151.83" stroke-linecap="round" style="stroke:#1A476F;stroke-width:8.64"/>
	<line x1="3309.57" y1="2151.83" x2="3373.05" y2="2206.66" stroke-linecap="round" style="stroke:#1A476F;stroke-width:8.64"/>
	<line x1="3373.05" y1="2206.66" x2="3436.54" y2="2248.73" stroke-linecap="round" style="stroke:#1A476F;stroke-width:8.64"/>
	<line x1="3436.54" y1="2248.73" x2="3499.90" y2="2278.93" stroke-linecap="round" style="stroke:#1A476F;stroke-width:8.64"/>
	<line x1="3499.90" y1="2278.93" x2="3563.38" y2="2298.11" stroke-linecap="round" style="stroke:#1A476F;stroke-width:8.64"/>
	<line x1="390.80" y1="2374.71" x2="390.80" y2="275.35" style="stroke:#000000;stroke-width:5.76"/>
	<line x1="390.80" y1="2311.35" x2="350.83" y2="2311.35" style="stroke:#000000;stroke-width:5.76"/>
	<text x="300.72" y="2311.35" style="font-family:'Helvetica';font-size:99.99px;fill:#000000" transform="rotate(-90 300.72,2311.35)" text-anchor="middle">0</text>
	<line x1="390.80" y1="1916.82" x2="350.83" y2="1916.82" style="stroke:#000000;stroke-width:5.76"/>
	<text x="300.72" y="1916.82" style="font-family:'Helvetica';font-size:99.99px;fill:#000000" transform="rotate(-90 300.72,1916.82)" text-anchor="middle">.005</text>
	<line x1="390.80" y1="1522.30" x2="350.83" y2="1522.30" style="stroke:#000000;stroke-width:5.76"/>
	<text x="300.72" y="1522.30" style="font-family:'Helvetica';font-size:99.99px;fill:#000000" transform="rotate(-90 300.72,1522.30)" text-anchor="middle">.01</text>
	<line x1="390.80" y1="1127.77" x2="350.83" y2="1127.77" style="stroke:#000000;stroke-width:5.76"/>
	<text x="300.72" y="1127.77" style="font-family:'Helvetica';font-size:99.99px;fill:#000000" transform="rotate(-90 300.72,1127.77)" text-anchor="middle">.015</text>
	<line x1="390.80" y1="733.24" x2="350.83" y2="733.24" style="stroke:#000000;stroke-width:5.76"/>
	<text x="300.72" y="733.24" style="font-family:'Helvetica';font-size:99.99px;fill:#000000" transform="rotate(-90 300.72,733.24)" text-anchor="middle">.02</text>
	<line x1="390.80" y1="338.71" x2="350.83" y2="338.71" style="stroke:#000000;stroke-width:5.76"/>
	<text x="300.72" y="338.71" style="font-family:'Helvetica';font-size:99.99px;fill:#000000" transform="rotate(-90 300.72,338.71)" text-anchor="middle">.025</text>
	<text x="190.71" y="1325.03" style="font-family:'Helvetica';font-size:99.99px;fill:#000000" transform="rotate(-90 190.71,1325.03)" text-anchor="middle">Density</text>
	<line x1="390.80" y1="2374.71" x2="3859.02" y2="2374.71" style="stroke:#000000;stroke-width:5.76"/>
	<line x1="653.89" y1="2374.71" x2="653.89" y2="2414.69" style="stroke:#000000;stroke-width:5.76"/>
	<text x="653.89" y="2504.54" style="font-family:'Helvetica';font-size:99.99px;fill:#000000" text-anchor="middle">20</text>
	<line x1="1439.34" y1="2374.71" x2="1439.34" y2="2414.69" style="stroke:#000000;stroke-width:5.76"/>
	<text x="1439.34" y="2504.54" style="font-family:'Helvetica';font-size:99.99px;fill:#000000" text-anchor="middle">40</text>
	<line x1="2224.78" y1="2374.71" x2="2224.78" y2="2414.69" style="stroke:#000000;stroke-width:5.76"/>
	<text x="2224.78" y="2504.54" style="font-family:'Helvetica';font-size:99.99px;fill:#000000" text-anchor="middle">60</text>
	<line x1="3010.22" y1="2374.71" x2="3010.22" y2="2414.69" style="stroke:#000000;stroke-width:5.76"/>
	<text x="3010.22" y="2504.54" style="font-family:'Helvetica';font-size:99.99px;fill:#000000" text-anchor="middle">80</text>
	<line x1="3795.66" y1="2374.71" x2="3795.66" y2="2414.69" style="stroke:#000000;stroke-width:5.76"/>
	<text x="3795.66" y="2504.54" style="font-family:'Helvetica';font-size:99.99px;fill:#000000" text-anchor="middle">100</text>
	<text x="2124.91" y="2614.56" style="font-family:'Helvetica';font-size:99.99px;fill:#000000" text-anchor="middle">Age of respondent</text>
	<text x="408.00" y="2737.89" style="font-family:'Helvetica';font-size:79.94px;fill:#000000">kernel = epanechnikov, bandwidth = 3.0862</text>
	<text x="2124.91" y="215.98" style="font-family:'Helvetica';font-size:139.96px;fill:#1E2D53" text-anchor="middle">Kernel density estimate</text>
</svg>
