<?xml version="1.0" encoding="UTF-8" standalone="no"?>
<!-- This is a Stata generated SVG file (http://www.stata.com) -->

<svg version="1.1" width="5.50in" height="4.00in" viewBox="0 0 3960 2880" xmlns="http://www.w3.org/2000/svg">
	<rect x="0.00" y="0.00" width="3959.88" height="2880.00" style="fill:#EAF2F3;stroke:#EAF2F3;stroke-width:5.76"/>
	<rect x="390.80" y="100.86" width="3468.22" height="2388.33" style="fill:#FFFFFF;stroke:#FFFFFF;stroke-width:5.76"/>
	<line x1="390.80" y1="2489.19" x2="3859.02" y2="2489.19" style="stroke:#EAF2F3;stroke-width:8.64"/>
	<line x1="390.80" y1="1907.91" x2="3859.02" y2="1907.91" style="stroke:#EAF2F3;stroke-width:8.64"/>
	<line x1="390.80" y1="1326.64" x2="3859.02" y2="1326.64" style="stroke:#EAF2F3;stroke-width:8.64"/>
	<line x1="390.80" y1="745.37" x2="3859.02" y2="745.37" style="stroke:#EAF2F3;stroke-width:8.64"/>
	<line x1="390.80" y1="164.22" x2="3859.02" y2="164.22" style="stroke:#EAF2F3;stroke-width:8.64"/>
	<rect x="496.11" y="1036.07" width="83.90" height="1453.12" style="fill:#CAC27E;stroke:#D7D29E;stroke-width:8.64"/>
	<rect x="580.02" y="1361.54" width="83.90" height="1127.65" style="fill:#CAC27E;stroke:#D7D29E;stroke-width:8.64"/>
	<rect x="663.92" y="1384.81" width="84.03" height="1104.38" style="fill:#CAC27E;stroke:#D7D29E;stroke-width:8.64"/>
	<rect x="747.95" y="1210.44" width="83.90" height="1278.75" style="fill:#CAC27E;stroke:#D7D29E;stroke-width:8.64"/>
	<rect x="831.85" y="1280.23" width="83.90" height="1208.95" style="fill:#CAC27E;stroke:#D7D29E;stroke-width:8.64"/>
	<rect x="915.75" y="1245.34" width="83.90" height="1243.85" style="fill:#CAC27E;stroke:#D7D29E;stroke-width:8.64"/>
	<rect x="999.65" y="1256.97" width="83.90" height="1232.22" style="fill:#CAC27E;stroke:#D7D29E;stroke-width:8.64"/>
	<rect x="1083.56" y="1373.17" width="84.03" height="1116.01" style="fill:#CAC27E;stroke:#D7D29E;stroke-width:8.64"/>
	<rect x="1167.58" y="1210.44" width="83.90" height="1278.75" style="fill:#CAC27E;stroke:#D7D29E;stroke-width:8.64"/>
	<rect x="1251.48" y="1524.28" width="83.90" height="964.91" style="fill:#CAC27E;stroke:#D7D29E;stroke-width:8.64"/>
	<rect x="1335.39" y="1512.64" width="83.90" height="976.54" style="fill:#CAC27E;stroke:#D7D29E;stroke-width:8.64"/>
	<rect x="1419.29" y="617.53" width="83.90" height="1871.65" style="fill:#CAC27E;stroke:#D7D29E;stroke-width:8.64"/>
	<rect x="1503.19" y="966.27" width="84.03" height="1522.92" style="fill:#CAC27E;stroke:#D7D29E;stroke-width:8.64"/>
	<rect x="1587.22" y="815.17" width="83.90" height="1674.02" style="fill:#CAC27E;stroke:#D7D29E;stroke-width:8.64"/>
	<rect x="1671.12" y="466.43" width="83.90" height="2022.76" style="fill:#CAC27E;stroke:#D7D29E;stroke-width:8.64"/>
	<rect x="1755.02" y="687.33" width="83.90" height="1801.86" style="fill:#CAC27E;stroke:#D7D29E;stroke-width:8.64"/>
	<rect x="1838.92" y="687.33" width="83.90" height="1801.86" style="fill:#CAC27E;stroke:#D7D29E;stroke-width:8.64"/>
	<rect x="1922.83" y="733.74" width="84.03" height="1755.45" style="fill:#CAC27E;stroke:#D7D29E;stroke-width:8.64"/>
	<rect x="2006.85" y="1129.01" width="83.90" height="1360.18" style="fill:#CAC27E;stroke:#D7D29E;stroke-width:8.64"/>
	<rect x="2090.76" y="1175.54" width="83.90" height="1313.65" style="fill:#CAC27E;stroke:#D7D29E;stroke-width:8.64"/>
	<rect x="2174.66" y="977.90" width="83.90" height="1511.28" style="fill:#CAC27E;stroke:#D7D29E;stroke-width:8.64"/>
	<rect x="2258.56" y="1303.38" width="83.90" height="1185.81" style="fill:#CAC27E;stroke:#D7D29E;stroke-width:8.64"/>
	<rect x="2342.46" y="1210.44" width="84.03" height="1278.75" style="fill:#CAC27E;stroke:#D7D29E;stroke-width:8.64"/>
	<rect x="2426.49" y="1117.37" width="83.90" height="1371.81" style="fill:#CAC27E;stroke:#D7D29E;stroke-width:8.64"/>
	<rect x="2510.39" y="1466.24" width="83.90" height="1022.95" style="fill:#CAC27E;stroke:#D7D29E;stroke-width:8.64"/>
	<rect x="2594.30" y="1396.44" width="83.90" height="1092.75" style="fill:#CAC27E;stroke:#D7D29E;stroke-width:8.64"/>
	<rect x="2678.20" y="1245.34" width="83.90" height="1243.85" style="fill:#CAC27E;stroke:#D7D29E;stroke-width:8.64"/>
	<rect x="2762.10" y="1628.97" width="84.03" height="860.21" style="fill:#CAC27E;stroke:#D7D29E;stroke-width:8.64"/>
	<rect x="2846.13" y="1791.71" width="83.90" height="697.48" style="fill:#CAC27E;stroke:#D7D29E;stroke-width:8.64"/>
	<rect x="2930.03" y="1838.24" width="83.90" height="650.95" style="fill:#CAC27E;stroke:#D7D29E;stroke-width:8.64"/>
	<rect x="3013.93" y="2012.61" width="83.90" height="476.58" style="fill:#CAC27E;stroke:#D7D29E;stroke-width:8.64"/>
	<rect x="3097.83" y="2175.35" width="83.90" height="313.84" style="fill:#CAC27E;stroke:#D7D29E;stroke-width:8.64"/>
	<rect x="3181.74" y="2233.51" width="84.03" height="255.68" style="fill:#CAC27E;stroke:#D7D29E;stroke-width:8.64"/>
	<rect x="3265.76" y="2326.45" width="83.90" height="162.74" style="fill:#CAC27E;stroke:#D7D29E;stroke-width:8.64"/>
	<rect x="3349.66" y="2407.88" width="83.90" height="81.31" style="fill:#CAC27E;stroke:#D7D29E;stroke-width:8.64"/>
	<line x1="390.80" y1="2489.19" x2="390.80" y2="100.86" style="stroke:#000000;stroke-width:5.76"/>
	<line x1="390.80" y1="2489.19" x2="350.83" y2="2489.19" style="stroke:#000000;stroke-width:5.76"/>
	<text x="300.72" y="2489.19" style="font-family:'Helvetica';font-size:99.99px;fill:#000000" transform="rotate(-90 300.72,2489.19)" text-anchor="middle">0</text>
	<line x1="390.80" y1="1907.91" x2="350.83" y2="1907.91" style="stroke:#000000;stroke-width:5.76"/>
	<text x="300.72" y="1907.91" style="font-family:'Helvetica';font-size:99.99px;fill:#000000" transform="rotate(-90 300.72,1907.91)" text-anchor="middle">50</text>
	<line x1="390.80" y1="1326.64" x2="350.83" y2="1326.64" style="stroke:#000000;stroke-width:5.76"/>
	<text x="300.72" y="1326.64" style="font-family:'Helvetica';font-size:99.99px;fill:#000000" transform="rotate(-90 300.72,1326.64)" text-anchor="middle">100</text>
	<line x1="390.80" y1="745.37" x2="350.83" y2="745.37" style="stroke:#000000;stroke-width:5.76"/>
	<text x="300.72" y="745.37" style="font-family:'Helvetica';font-size:99.99px;fill:#000000" transform="rotate(-90 300.72,745.37)" text-anchor="middle">150</text>
	<line x1="390.80" y1="164.22" x2="350.83" y2="164.22" style="stroke:#000000;stroke-width:5.76"/>
	<text x="300.72" y="164.22" style="font-family:'Helvetica';font-size:99.99px;fill:#000000" transform="rotate(-90 300.72,164.22)" text-anchor="middle">200</text>
	<text x="190.71" y="1294.96" style="font-family:'Helvetica';font-size:99.99px;fill:#000000" transform="rotate(-90 190.71,1294.96)" text-anchor="middle">Frequency</text>
	<line x1="390.80" y1="2489.19" x2="3859.02" y2="2489.19" style="stroke:#000000;stroke-width:5.76"/>
	<line x1="576.55" y1="2489.19" x2="576.55" y2="2529.16" style="stroke:#000000;stroke-width:5.76"/>
	<text x="576.55" y="2619.14" style="font-family:'Helvetica';font-size:99.99px;fill:#000000" text-anchor="middle">20</text>
	<line x1="1381.42" y1="2489.19" x2="1381.42" y2="2529.16" style="stroke:#000000;stroke-width:5.76"/>
	<text x="1381.42" y="2619.14" style="font-family:'Helvetica';font-size:99.99px;fill:#000000" text-anchor="middle">40</text>
	<line x1="2186.17" y1="2489.19" x2="2186.17" y2="2529.16" style="stroke:#000000;stroke-width:5.76"/>
	<text x="2186.17" y="2619.14" style="font-family:'Helvetica';font-size:99.99px;fill:#000000" text-anchor="middle">60</text>
	<line x1="2990.91" y1="2489.19" x2="2990.91" y2="2529.16" style="stroke:#000000;stroke-width:5.76"/>
	<text x="2990.91" y="2619.14" style="font-family:'Helvetica';font-size:99.99px;fill:#000000" text-anchor="middle">80</text>
	<line x1="3795.66" y1="2489.19" x2="3795.66" y2="2529.16" style="stroke:#000000;stroke-width:5.76"/>
	<text x="3795.66" y="2619.14" style="font-family:'Helvetica';font-size:99.99px;fill:#000000" text-anchor="middle">100</text>
	<text x="2124.91" y="2729.16" style="font-family:'Helvetica';font-size:99.99px;fill:#000000" text-anchor="middle">Age of respondent</text>
</svg>
