<?xml version="1.0" encoding="UTF-8" standalone="no"?>
<!-- This is a Stata generated SVG file (http://www.stata.com) -->

<svg version="1.1" width="5.50in" height="4.00in" viewBox="0 0 3960 2880" xmlns="http://www.w3.org/2000/svg">
	<rect x="0.00" y="0.00" width="3959.88" height="2880.00" style="fill:#EAF2F3;stroke:#EAF2F3;stroke-width:5.76"/>
	<rect x="390.80" y="100.86" width="3468.22" height="2388.33" style="fill:#FFFFFF;stroke:#FFFFFF;stroke-width:5.76"/>
	<line x1="390.80" y1="2489.19" x2="3859.02" y2="2489.19" style="stroke:#EAF2F3;stroke-width:8.64"/>
	<line x1="390.80" y1="2024.24" x2="3859.02" y2="2024.24" style="stroke:#EAF2F3;stroke-width:8.64"/>
	<line x1="390.80" y1="1559.17" x2="3859.02" y2="1559.17" style="stroke:#EAF2F3;stroke-width:8.64"/>
	<line x1="390.80" y1="1094.23" x2="3859.02" y2="1094.23" style="stroke:#EAF2F3;stroke-width:8.64"/>
	<line x1="390.80" y1="629.16" x2="3859.02" y2="629.16" style="stroke:#EAF2F3;stroke-width:8.64"/>
	<line x1="390.80" y1="164.22" x2="3859.02" y2="164.22" style="stroke:#EAF2F3;stroke-width:8.64"/>
	<rect x="596.60" y="1111.56" width="284.75" height="1377.63" style="fill:#CAC27E;stroke:#D7D29E;stroke-width:8.64"/>
	<rect x="881.35" y="1133.71" width="284.75" height="1355.48" style="fill:#CAC27E;stroke:#D7D29E;stroke-width:8.64"/>
	<rect x="1166.10" y="1258.58" width="284.87" height="1230.61" style="fill:#CAC27E;stroke:#D7D29E;stroke-width:8.64"/>
	<rect x="1450.97" y="747.97" width="284.75" height="1741.22" style="fill:#CAC27E;stroke:#D7D29E;stroke-width:8.64"/>
	<rect x="1735.72" y="406.28" width="284.87" height="2082.90" style="fill:#CAC27E;stroke:#D7D29E;stroke-width:8.64"/>
	<rect x="2020.59" y="916.89" width="284.75" height="1572.29" style="fill:#CAC27E;stroke:#D7D29E;stroke-width:8.64"/>
	<rect x="2305.34" y="1130.00" width="284.87" height="1359.19" style="fill:#CAC27E;stroke:#D7D29E;stroke-width:8.64"/>
	<rect x="2590.21" y="1302.63" width="284.75" height="1186.55" style="fill:#CAC27E;stroke:#D7D29E;stroke-width:8.64"/>
	<rect x="2874.96" y="1853.71" width="284.87" height="635.48" style="fill:#CAC27E;stroke:#D7D29E;stroke-width:8.64"/>
	<rect x="3159.83" y="2290.81" width="284.75" height="198.38" style="fill:#CAC27E;stroke:#D7D29E;stroke-width:8.64"/>
	<line x1="390.80" y1="2489.19" x2="390.80" y2="100.86" style="stroke:#000000;stroke-width:5.76"/>
	<line x1="390.80" y1="2489.19" x2="350.83" y2="2489.19" style="stroke:#000000;stroke-width:5.76"/>
	<text x="300.72" y="2489.19" style="font-family:'Helvetica';font-size:99.99px;fill:#000000" transform="rotate(-90 300.72,2489.19)" text-anchor="middle">0</text>
	<line x1="390.80" y1="2024.24" x2="350.83" y2="2024.24" style="stroke:#000000;stroke-width:5.76"/>
	<text x="300.72" y="2024.24" style="font-family:'Helvetica';font-size:99.99px;fill:#000000" transform="rotate(-90 300.72,2024.24)" text-anchor="middle">.005</text>
	<line x1="390.80" y1="1559.17" x2="350.83" y2="1559.17" style="stroke:#000000;stroke-width:5.76"/>
	<text x="300.72" y="1559.17" style="font-family:'Helvetica';font-size:99.99px;fill:#000000" transform="rotate(-90 300.72,1559.17)" text-anchor="middle">.01</text>
	<line x1="390.80" y1="1094.23" x2="350.83" y2="1094.23" style="stroke:#000000;stroke-width:5.76"/>
	<text x="300.72" y="1094.23" style="font-family:'Helvetica';font-size:99.99px;fill:#000000" transform="rotate(-90 300.72,1094.23)" text-anchor="middle">.015</text>
	<line x1="390.80" y1="629.16" x2="350.83" y2="629.16" style="stroke:#000000;stroke-width:5.76"/>
	<text x="300.72" y="629.16" style="font-family:'Helvetica';font-size:99.99px;fill:#000000" transform="rotate(-90 300.72,629.16)" text-anchor="middle">.02</text>
	<line x1="390.80" y1="164.22" x2="350.83" y2="164.22" style="stroke:#000000;stroke-width:5.76"/>
	<text x="300.72" y="164.22" style="font-family:'Helvetica';font-size:99.99px;fill:#000000" transform="rotate(-90 300.72,164.22)" text-anchor="middle">.025</text>
	<text x="190.71" y="1294.96" style="font-family:'Helvetica';font-size:99.99px;fill:#000000" transform="rotate(-90 190.71,1294.96)" text-anchor="middle">Density</text>
	<line x1="390.80" y1="2489.19" x2="3859.02" y2="2489.19" style="stroke:#000000;stroke-width:5.76"/>
	<line x1="674.56" y1="2489.19" x2="674.56" y2="2529.16" style="stroke:#000000;stroke-width:5.76"/>
	<text x="674.56" y="2619.14" style="font-family:'Helvetica';font-size:99.99px;fill:#000000" text-anchor="middle">20</text>
	<line x1="1454.81" y1="2489.19" x2="1454.81" y2="2529.16" style="stroke:#000000;stroke-width:5.76"/>
	<text x="1454.81" y="2619.14" style="font-family:'Helvetica';font-size:99.99px;fill:#000000" text-anchor="middle">40</text>
	<line x1="2235.17" y1="2489.19" x2="2235.17" y2="2529.16" style="stroke:#000000;stroke-width:5.76"/>
	<text x="2235.17" y="2619.14" style="font-family:'Helvetica';font-size:99.99px;fill:#000000" text-anchor="middle">60</text>
	<line x1="3015.42" y1="2489.19" x2="3015.42" y2="2529.16" style="stroke:#000000;stroke-width:5.76"/>
	<text x="3015.42" y="2619.14" style="font-family:'Helvetica';font-size:99.99px;fill:#000000" text-anchor="middle">80</text>
	<line x1="3795.66" y1="2489.19" x2="3795.66" y2="2529.16" style="stroke:#000000;stroke-width:5.76"/>
	<text x="3795.66" y="2619.14" style="font-family:'Helvetica';font-size:99.99px;fill:#000000" text-anchor="middle">100</text>
	<text x="2124.91" y="2729.16" style="font-family:'Helvetica';font-size:99.99px;fill:#000000" text-anchor="middle">Age of respondent</text>
</svg>
