<?xml version="1.0" encoding="UTF-8" standalone="no"?>
<!-- This is a Stata generated SVG file (http://www.stata.com) -->

<svg version="1.1" width="5.50in" height="4.00in" viewBox="0 0 3960 2880" xmlns="http://www.w3.org/2000/svg">
	<rect x="0.00" y="0.00" width="3959.88" height="2880.00" style="fill:#EAF2F3;stroke:#EAF2F3;stroke-width:5.76"/>
	<rect x="390.68" y="100.86" width="3468.34" height="2388.45" style="fill:#FFFFFF;stroke:#FFFFFF;stroke-width:5.76"/>
	<line x1="390.68" y1="2489.31" x2="3859.02" y2="2489.31" style="stroke:#EAF2F3;stroke-width:8.64"/>
	<line x1="390.68" y1="2024.24" x2="3859.02" y2="2024.24" style="stroke:#EAF2F3;stroke-width:8.64"/>
	<line x1="390.68" y1="1559.30" x2="3859.02" y2="1559.30" style="stroke:#EAF2F3;stroke-width:8.64"/>
	<line x1="390.68" y1="1094.23" x2="3859.02" y2="1094.23" style="stroke:#EAF2F3;stroke-width:8.64"/>
	<line x1="390.68" y1="629.29" x2="3859.02" y2="629.29" style="stroke:#EAF2F3;stroke-width:8.64"/>
	<line x1="390.68" y1="164.22" x2="3859.02" y2="164.22" style="stroke:#EAF2F3;stroke-width:8.64"/>
	<line x1="1761.21" y1="2489.31" x2="1761.21" y2="100.86" style="stroke:#C10534;stroke-width:8.64"/>
	<rect x="495.99" y="882.12" width="84.03" height="1607.19" style="fill:#CAC27E;stroke:#D7D29E;stroke-width:8.64"/>
	<rect x="580.02" y="1242.12" width="83.90" height="1247.19" style="fill:#CAC27E;stroke:#D7D29E;stroke-width:8.64"/>
	<rect x="663.92" y="1267.86" width="83.90" height="1221.45" style="fill:#CAC27E;stroke:#D7D29E;stroke-width:8.64"/>
	<rect x="747.82" y="1074.93" width="83.90" height="1414.38" style="fill:#CAC27E;stroke:#D7D29E;stroke-width:8.64"/>
	<rect x="831.72" y="1152.02" width="83.90" height="1337.28" style="fill:#CAC27E;stroke:#D7D29E;stroke-width:8.64"/>
	<rect x="915.63" y="1113.54" width="84.03" height="1375.77" style="fill:#CAC27E;stroke:#D7D29E;stroke-width:8.64"/>
	<rect x="999.65" y="1126.41" width="83.90" height="1362.90" style="fill:#CAC27E;stroke:#D7D29E;stroke-width:8.64"/>
	<rect x="1083.56" y="1254.99" width="83.90" height="1234.32" style="fill:#CAC27E;stroke:#D7D29E;stroke-width:8.64"/>
	<rect x="1167.46" y="1074.93" width="83.90" height="1414.38" style="fill:#CAC27E;stroke:#D7D29E;stroke-width:8.64"/>
	<rect x="1251.36" y="1422.06" width="83.90" height="1067.25" style="fill:#CAC27E;stroke:#D7D29E;stroke-width:8.64"/>
	<rect x="1335.26" y="1409.19" width="84.03" height="1080.12" style="fill:#CAC27E;stroke:#D7D29E;stroke-width:8.64"/>
	<rect x="1419.29" y="419.15" width="83.90" height="2070.15" style="fill:#CAC27E;stroke:#D7D29E;stroke-width:8.64"/>
	<rect x="1503.19" y="804.90" width="83.90" height="1684.41" style="fill:#CAC27E;stroke:#D7D29E;stroke-width:8.64"/>
	<rect x="1587.09" y="637.83" width="83.90" height="1851.48" style="fill:#CAC27E;stroke:#D7D29E;stroke-width:8.64"/>
	<rect x="1671.00" y="252.09" width="83.90" height="2237.22" style="fill:#CAC27E;stroke:#D7D29E;stroke-width:8.64"/>
	<rect x="1754.90" y="496.38" width="84.03" height="1992.93" style="fill:#CAC27E;stroke:#D7D29E;stroke-width:8.64"/>
	<rect x="1838.92" y="496.38" width="83.90" height="1992.93" style="fill:#CAC27E;stroke:#D7D29E;stroke-width:8.64"/>
	<rect x="1922.83" y="547.73" width="83.90" height="1941.57" style="fill:#CAC27E;stroke:#D7D29E;stroke-width:8.64"/>
	<rect x="2006.73" y="984.96" width="83.90" height="1504.35" style="fill:#CAC27E;stroke:#D7D29E;stroke-width:8.64"/>
	<rect x="2090.63" y="1036.31" width="83.90" height="1452.99" style="fill:#CAC27E;stroke:#D7D29E;stroke-width:8.64"/>
	<rect x="2174.53" y="817.77" width="84.03" height="1671.54" style="fill:#CAC27E;stroke:#D7D29E;stroke-width:8.64"/>
	<rect x="2258.56" y="1177.77" width="83.90" height="1311.54" style="fill:#CAC27E;stroke:#D7D29E;stroke-width:8.64"/>
	<rect x="2342.46" y="1074.93" width="83.90" height="1414.38" style="fill:#CAC27E;stroke:#D7D29E;stroke-width:8.64"/>
	<rect x="2426.37" y="972.09" width="83.90" height="1517.22" style="fill:#CAC27E;stroke:#D7D29E;stroke-width:8.64"/>
	<rect x="2510.27" y="1357.83" width="83.90" height="1131.48" style="fill:#CAC27E;stroke:#D7D29E;stroke-width:8.64"/>
	<rect x="2594.17" y="1280.61" width="84.03" height="1208.70" style="fill:#CAC27E;stroke:#D7D29E;stroke-width:8.64"/>
	<rect x="2678.20" y="1113.54" width="83.90" height="1375.77" style="fill:#CAC27E;stroke:#D7D29E;stroke-width:8.64"/>
	<rect x="2762.10" y="1537.77" width="83.90" height="951.54" style="fill:#CAC27E;stroke:#D7D29E;stroke-width:8.64"/>
	<rect x="2846.00" y="1717.83" width="83.90" height="771.48" style="fill:#CAC27E;stroke:#D7D29E;stroke-width:8.64"/>
	<rect x="2929.91" y="1769.19" width="83.90" height="720.12" style="fill:#CAC27E;stroke:#D7D29E;stroke-width:8.64"/>
	<rect x="3013.81" y="1962.12" width="84.03" height="527.19" style="fill:#CAC27E;stroke:#D7D29E;stroke-width:8.64"/>
	<rect x="3097.83" y="2142.06" width="83.90" height="347.25" style="fill:#CAC27E;stroke:#D7D29E;stroke-width:8.64"/>
	<rect x="3181.74" y="2206.41" width="83.90" height="282.90" style="fill:#CAC27E;stroke:#D7D29E;stroke-width:8.64"/>
	<rect x="3265.64" y="2309.25" width="83.90" height="180.06" style="fill:#CAC27E;stroke:#D7D29E;stroke-width:8.64"/>
	<rect x="3349.54" y="2399.22" width="84.03" height="90.09" style="fill:#CAC27E;stroke:#D7D29E;stroke-width:8.64"/>
	<line x1="390.68" y1="2489.31" x2="390.68" y2="100.86" style="stroke:#000000;stroke-width:5.76"/>
	<line x1="390.68" y1="2489.31" x2="350.71" y2="2489.31" style="stroke:#000000;stroke-width:5.76"/>
	<text x="300.72" y="2489.31" style="font-family:'Helvetica';font-size:99.99px;fill:#000000" transform="rotate(-90 300.72,2489.31)" text-anchor="middle">0</text>
	<line x1="390.68" y1="2024.24" x2="350.71" y2="2024.24" style="stroke:#000000;stroke-width:5.76"/>
	<text x="300.72" y="2024.24" style="font-family:'Helvetica';font-size:99.99px;fill:#000000" transform="rotate(-90 300.72,2024.24)" text-anchor="middle">.005</text>
	<line x1="390.68" y1="1559.30" x2="350.71" y2="1559.30" style="stroke:#000000;stroke-width:5.76"/>
	<text x="300.72" y="1559.30" style="font-family:'Helvetica';font-size:99.99px;fill:#000000" transform="rotate(-90 300.72,1559.30)" text-anchor="middle">.01</text>
	<line x1="390.68" y1="1094.23" x2="350.71" y2="1094.23" style="stroke:#000000;stroke-width:5.76"/>
	<text x="300.72" y="1094.23" style="font-family:'Helvetica';font-size:99.99px;fill:#000000" transform="rotate(-90 300.72,1094.23)" text-anchor="middle">.015</text>
	<line x1="390.68" y1="629.29" x2="350.71" y2="629.29" style="stroke:#000000;stroke-width:5.76"/>
	<text x="300.72" y="629.29" style="font-family:'Helvetica';font-size:99.99px;fill:#000000" transform="rotate(-90 300.72,629.29)" text-anchor="middle">.02</text>
	<line x1="390.68" y1="164.22" x2="350.71" y2="164.22" style="stroke:#000000;stroke-width:5.76"/>
	<text x="300.72" y="164.22" style="font-family:'Helvetica';font-size:99.99px;fill:#000000" transform="rotate(-90 300.72,164.22)" text-anchor="middle">.025</text>
	<text x="190.71" y="1295.08" style="font-family:'Helvetica';font-size:99.99px;fill:#000000" transform="rotate(-90 190.71,1295.08)" text-anchor="middle">Density</text>
	<line x1="390.68" y1="2489.31" x2="3859.02" y2="2489.31" style="stroke:#000000;stroke-width:5.76"/>
	<line x1="576.55" y1="2489.31" x2="576.55" y2="2529.28" style="stroke:#000000;stroke-width:5.76"/>
	<text x="576.55" y="2619.14" style="font-family:'Helvetica';font-size:99.99px;fill:#000000" text-anchor="middle">20</text>
	<line x1="1381.30" y1="2489.31" x2="1381.30" y2="2529.28" style="stroke:#000000;stroke-width:5.76"/>
	<text x="1381.30" y="2619.14" style="font-family:'Helvetica';font-size:99.99px;fill:#000000" text-anchor="middle">40</text>
	<line x1="2186.04" y1="2489.31" x2="2186.04" y2="2529.28" style="stroke:#000000;stroke-width:5.76"/>
	<text x="2186.04" y="2619.14" style="font-family:'Helvetica';font-size:99.99px;fill:#000000" text-anchor="middle">60</text>
	<line x1="2990.91" y1="2489.31" x2="2990.91" y2="2529.28" style="stroke:#000000;stroke-width:5.76"/>
	<text x="2990.91" y="2619.14" style="font-family:'Helvetica';font-size:99.99px;fill:#000000" text-anchor="middle">80</text>
	<line x1="3795.66" y1="2489.31" x2="3795.66" y2="2529.28" style="stroke:#000000;stroke-width:5.76"/>
	<text x="3795.66" y="2619.14" style="font-family:'Helvetica';font-size:99.99px;fill:#000000" text-anchor="middle">100</text>
	<text x="2124.91" y="2729.16" style="font-family:'Helvetica';font-size:99.99px;fill:#000000" text-anchor="middle">Age of respondent</text>
</svg>
