<?xml version="1.0" encoding="UTF-8" standalone="no"?>
<!-- This is a Stata generated SVG file (http://www.stata.com) -->

<svg version="1.1" width="5.50in" height="4.00in" viewBox="0 0 3960 2880" xmlns="http://www.w3.org/2000/svg">
	<rect x="0.00" y="0.00" width="3959.88" height="2880.00" style="fill:#EAF2F3;stroke:#EAF2F3;stroke-width:5.76"/>
	<rect x="390.68" y="100.86" width="3468.34" height="2388.45" style="fill:#FFFFFF;stroke:#FFFFFF;stroke-width:5.76"/>
	<line x1="390.68" y1="2489.31" x2="3859.02" y2="2489.31" style="stroke:#EAF2F3;stroke-width:8.64"/>
	<line x1="390.68" y1="2024.24" x2="3859.02" y2="2024.24" style="stroke:#EAF2F3;stroke-width:8.64"/>
	<line x1="390.68" y1="1559.30" x2="3859.02" y2="1559.30" style="stroke:#EAF2F3;stroke-width:8.64"/>
	<line x1="390.68" y1="1094.23" x2="3859.02" y2="1094.23" style="stroke:#EAF2F3;stroke-width:8.64"/>
	<line x1="390.68" y1="629.29" x2="3859.02" y2="629.29" style="stroke:#EAF2F3;stroke-width:8.64"/>
	<line x1="390.68" y1="164.22" x2="3859.02" y2="164.22" style="stroke:#EAF2F3;stroke-width:8.64"/>
	<rect x="495.99" y="882.12" width="84.03" height="1607.19" style="fill:#CAC27E;stroke:#D7D29E;stroke-width:8.64"/>
	<rect x="580.02" y="1242.12" width="83.90" height="1247.19" style="fill:#CAC27E;stroke:#D7D29E;stroke-width:8.64"/>
	<rect x="663.92" y="1267.86" width="83.90" height="1221.45" style="fill:#CAC27E;stroke:#D7D29E;stroke-width:8.64"/>
	<rect x="747.82" y="1074.93" width="83.90" height="1414.38" style="fill:#CAC27E;stroke:#D7D29E;stroke-width:8.64"/>
	<rect x="831.72" y="1152.02" width="83.90" height="1337.28" style="fill:#CAC27E;stroke:#D7D29E;stroke-width:8.64"/>
	<rect x="915.63" y="1113.54" width="84.03" height="1375.77" style="fill:#CAC27E;stroke:#D7D29E;stroke-width:8.64"/>
	<rect x="999.65" y="1126.41" width="83.90" height="1362.90" style="fill:#CAC27E;stroke:#D7D29E;stroke-width:8.64"/>
	<rect x="1083.56" y="1254.99" width="83.90" height="1234.32" style="fill:#CAC27E;stroke:#D7D29E;stroke-width:8.64"/>
	<rect x="1167.46" y="1074.93" width="83.90" height="1414.38" style="fill:#CAC27E;stroke:#D7D29E;stroke-width:8.64"/>
	<rect x="1251.36" y="1422.06" width="83.90" height="1067.25" style="fill:#CAC27E;stroke:#D7D29E;stroke-width:8.64"/>
	<rect x="1335.26" y="1409.19" width="84.03" height="1080.12" style="fill:#CAC27E;stroke:#D7D29E;stroke-width:8.64"/>
	<rect x="1419.29" y="419.15" width="83.90" height="2070.15" style="fill:#CAC27E;stroke:#D7D29E;stroke-width:8.64"/>
	<rect x="1503.19" y="804.90" width="83.90" height="1684.41" style="fill:#CAC27E;stroke:#D7D29E;stroke-width:8.64"/>
	<rect x="1587.09" y="637.83" width="83.90" height="1851.48" style="fill:#CAC27E;stroke:#D7D29E;stroke-width:8.64"/>
	<rect x="1671.00" y="252.09" width="83.90" height="2237.22" style="fill:#CAC27E;stroke:#D7D29E;stroke-width:8.64"/>
	<rect x="1754.90" y="496.38" width="84.03" height="1992.93" style="fill:#CAC27E;stroke:#D7D29E;stroke-width:8.64"/>
	<rect x="1838.92" y="496.38" width="83.90" height="1992.93" style="fill:#CAC27E;stroke:#D7D29E;stroke-width:8.64"/>
	<rect x="1922.83" y="547.73" width="83.90" height="1941.57" style="fill:#CAC27E;stroke:#D7D29E;stroke-width:8.64"/>
	<rect x="2006.73" y="984.96" width="83.90" height="1504.35" style="fill:#CAC27E;stroke:#D7D29E;stroke-width:8.64"/>
	<rect x="2090.63" y="1036.31" width="83.90" height="1452.99" style="fill:#CAC27E;stroke:#D7D29E;stroke-width:8.64"/>
	<rect x="2174.53" y="817.77" width="84.03" height="1671.54" style="fill:#CAC27E;stroke:#D7D29E;stroke-width:8.64"/>
	<rect x="2258.56" y="1177.77" width="83.90" height="1311.54" style="fill:#CAC27E;stroke:#D7D29E;stroke-width:8.64"/>
	<rect x="2342.46" y="1074.93" width="83.90" height="1414.38" style="fill:#CAC27E;stroke:#D7D29E;stroke-width:8.64"/>
	<rect x="2426.37" y="972.09" width="83.90" height="1517.22" style="fill:#CAC27E;stroke:#D7D29E;stroke-width:8.64"/>
	<rect x="2510.27" y="1357.83" width="83.90" height="1131.48" style="fill:#CAC27E;stroke:#D7D29E;stroke-width:8.64"/>
	<rect x="2594.17" y="1280.61" width="84.03" height="1208.70" style="fill:#CAC27E;stroke:#D7D29E;stroke-width:8.64"/>
	<rect x="2678.20" y="1113.54" width="83.90" height="1375.77" style="fill:#CAC27E;stroke:#D7D29E;stroke-width:8.64"/>
	<rect x="2762.10" y="1537.77" width="83.90" height="951.54" style="fill:#CAC27E;stroke:#D7D29E;stroke-width:8.64"/>
	<rect x="2846.00" y="1717.83" width="83.90" height="771.48" style="fill:#CAC27E;stroke:#D7D29E;stroke-width:8.64"/>
	<rect x="2929.91" y="1769.19" width="83.90" height="720.12" style="fill:#CAC27E;stroke:#D7D29E;stroke-width:8.64"/>
	<rect x="3013.81" y="1962.12" width="84.03" height="527.19" style="fill:#CAC27E;stroke:#D7D29E;stroke-width:8.64"/>
	<rect x="3097.83" y="2142.06" width="83.90" height="347.25" style="fill:#CAC27E;stroke:#D7D29E;stroke-width:8.64"/>
	<rect x="3181.74" y="2206.41" width="83.90" height="282.90" style="fill:#CAC27E;stroke:#D7D29E;stroke-width:8.64"/>
	<rect x="3265.64" y="2309.25" width="83.90" height="180.06" style="fill:#CAC27E;stroke:#D7D29E;stroke-width:8.64"/>
	<rect x="3349.54" y="2399.22" width="84.03" height="90.09" style="fill:#CAC27E;stroke:#D7D29E;stroke-width:8.64"/>
	<line x1="495.99" y1="2066.81" x2="505.89" y2="2056.05" stroke-linecap="round" style="stroke:#2D6D66;stroke-width:8.64"/>
	<line x1="505.89" y1="2056.05" x2="515.67" y2="2045.28" stroke-linecap="round" style="stroke:#2D6D66;stroke-width:8.64"/>
	<line x1="515.67" y1="2045.28" x2="525.57" y2="2034.27" stroke-linecap="round" style="stroke:#2D6D66;stroke-width:8.64"/>
	<line x1="525.57" y1="2034.27" x2="535.34" y2="2023.00" stroke-linecap="round" style="stroke:#2D6D66;stroke-width:8.64"/>
	<line x1="535.34" y1="2023.00" x2="545.12" y2="2011.62" stroke-linecap="round" style="stroke:#2D6D66;stroke-width:8.64"/>
	<line x1="545.12" y1="2011.62" x2="555.02" y2="1999.99" stroke-linecap="round" style="stroke:#2D6D66;stroke-width:8.64"/>
	<line x1="555.02" y1="1999.99" x2="564.79" y2="1988.23" stroke-linecap="round" style="stroke:#2D6D66;stroke-width:8.64"/>
	<line x1="564.79" y1="1988.23" x2="574.70" y2="1976.23" stroke-linecap="round" style="stroke:#2D6D66;stroke-width:8.64"/>
	<line x1="574.70" y1="1976.23" x2="584.47" y2="1964.10" stroke-linecap="round" style="stroke:#2D6D66;stroke-width:8.64"/>
	<line x1="584.47" y1="1964.10" x2="594.25" y2="1951.72" stroke-linecap="round" style="stroke:#2D6D66;stroke-width:8.64"/>
	<line x1="594.25" y1="1951.72" x2="604.15" y2="1939.22" stroke-linecap="round" style="stroke:#2D6D66;stroke-width:8.64"/>
	<line x1="604.15" y1="1939.22" x2="613.92" y2="1926.60" stroke-linecap="round" style="stroke:#2D6D66;stroke-width:8.64"/>
	<line x1="613.92" y1="1926.60" x2="623.70" y2="1913.73" stroke-linecap="round" style="stroke:#2D6D66;stroke-width:8.64"/>
	<line x1="623.70" y1="1913.73" x2="633.60" y2="1900.61" stroke-linecap="round" style="stroke:#2D6D66;stroke-width:8.64"/>
	<line x1="633.60" y1="1900.61" x2="643.38" y2="1887.49" stroke-linecap="round" style="stroke:#2D6D66;stroke-width:8.64"/>
	<line x1="643.38" y1="1887.49" x2="653.28" y2="1874.00" stroke-linecap="round" style="stroke:#2D6D66;stroke-width:8.64"/>
	<line x1="653.28" y1="1874.00" x2="663.05" y2="1860.39" stroke-linecap="round" style="stroke:#2D6D66;stroke-width:8.64"/>
	<line x1="663.05" y1="1860.39" x2="672.83" y2="1846.66" stroke-linecap="round" style="stroke:#2D6D66;stroke-width:8.64"/>
	<line x1="672.83" y1="1846.66" x2="682.73" y2="1832.79" stroke-linecap="round" style="stroke:#2D6D66;stroke-width:8.64"/>
	<line x1="682.73" y1="1832.79" x2="692.50" y2="1818.69" stroke-linecap="round" style="stroke:#2D6D66;stroke-width:8.64"/>
	<line x1="692.50" y1="1818.69" x2="702.40" y2="1804.33" stroke-linecap="round" style="stroke:#2D6D66;stroke-width:8.64"/>
	<line x1="702.40" y1="1804.33" x2="712.18" y2="1789.98" stroke-linecap="round" style="stroke:#2D6D66;stroke-width:8.64"/>
	<line x1="712.18" y1="1789.98" x2="721.96" y2="1775.37" stroke-linecap="round" style="stroke:#2D6D66;stroke-width:8.64"/>
	<line x1="721.96" y1="1775.37" x2="731.86" y2="1760.52" stroke-linecap="round" style="stroke:#2D6D66;stroke-width:8.64"/>
	<line x1="731.86" y1="1760.52" x2="741.63" y2="1745.67" stroke-linecap="round" style="stroke:#2D6D66;stroke-width:8.64"/>
	<line x1="741.63" y1="1745.67" x2="751.53" y2="1730.57" stroke-linecap="round" style="stroke:#2D6D66;stroke-width:8.64"/>
	<line x1="751.53" y1="1730.57" x2="761.31" y2="1715.35" stroke-linecap="round" style="stroke:#2D6D66;stroke-width:8.64"/>
	<line x1="761.31" y1="1715.35" x2="771.09" y2="1699.88" stroke-linecap="round" style="stroke:#2D6D66;stroke-width:8.64"/>
	<line x1="771.09" y1="1699.88" x2="780.99" y2="1684.41" stroke-linecap="round" style="stroke:#2D6D66;stroke-width:8.64"/>
	<line x1="780.99" y1="1684.41" x2="790.76" y2="1668.70" stroke-linecap="round" style="stroke:#2D6D66;stroke-width:8.64"/>
	<line x1="790.76" y1="1668.70" x2="800.54" y2="1652.86" stroke-linecap="round" style="stroke:#2D6D66;stroke-width:8.64"/>
	<line x1="800.54" y1="1652.86" x2="810.44" y2="1636.89" stroke-linecap="round" style="stroke:#2D6D66;stroke-width:8.64"/>
	<line x1="810.44" y1="1636.89" x2="820.22" y2="1620.68" stroke-linecap="round" style="stroke:#2D6D66;stroke-width:8.64"/>
	<line x1="820.22" y1="1620.68" x2="830.12" y2="1604.47" stroke-linecap="round" style="stroke:#2D6D66;stroke-width:8.64"/>
	<line x1="830.12" y1="1604.47" x2="839.89" y2="1588.13" stroke-linecap="round" style="stroke:#2D6D66;stroke-width:8.64"/>
	<line x1="839.89" y1="1588.13" x2="849.67" y2="1571.67" stroke-linecap="round" style="stroke:#2D6D66;stroke-width:8.64"/>
	<line x1="849.67" y1="1571.67" x2="859.57" y2="1554.97" stroke-linecap="round" style="stroke:#2D6D66;stroke-width:8.64"/>
	<line x1="859.57" y1="1554.97" x2="869.34" y2="1538.26" stroke-linecap="round" style="stroke:#2D6D66;stroke-width:8.64"/>
	<line x1="869.34" y1="1538.26" x2="879.24" y2="1521.43" stroke-linecap="round" style="stroke:#2D6D66;stroke-width:8.64"/>
	<line x1="879.24" y1="1521.43" x2="889.02" y2="1504.48" stroke-linecap="round" style="stroke:#2D6D66;stroke-width:8.64"/>
	<line x1="889.02" y1="1504.48" x2="898.80" y2="1487.40" stroke-linecap="round" style="stroke:#2D6D66;stroke-width:8.64"/>
	<line x1="898.80" y1="1487.40" x2="908.70" y2="1470.32" stroke-linecap="round" style="stroke:#2D6D66;stroke-width:8.64"/>
	<line x1="908.70" y1="1470.32" x2="918.47" y2="1452.99" stroke-linecap="round" style="stroke:#2D6D66;stroke-width:8.64"/>
	<line x1="918.47" y1="1452.99" x2="928.25" y2="1435.67" stroke-linecap="round" style="stroke:#2D6D66;stroke-width:8.64"/>
	<line x1="928.25" y1="1435.67" x2="938.15" y2="1418.22" stroke-linecap="round" style="stroke:#2D6D66;stroke-width:8.64"/>
	<line x1="938.15" y1="1418.22" x2="947.92" y2="1400.77" stroke-linecap="round" style="stroke:#2D6D66;stroke-width:8.64"/>
	<line x1="947.92" y1="1400.77" x2="957.83" y2="1383.20" stroke-linecap="round" style="stroke:#2D6D66;stroke-width:8.64"/>
	<line x1="957.83" y1="1383.20" x2="967.60" y2="1365.62" stroke-linecap="round" style="stroke:#2D6D66;stroke-width:8.64"/>
	<line x1="967.60" y1="1365.62" x2="977.38" y2="1347.93" stroke-linecap="round" style="stroke:#2D6D66;stroke-width:8.64"/>
	<line x1="977.38" y1="1347.93" x2="987.28" y2="1330.23" stroke-linecap="round" style="stroke:#2D6D66;stroke-width:8.64"/>
	<line x1="987.28" y1="1330.23" x2="997.05" y2="1312.41" stroke-linecap="round" style="stroke:#2D6D66;stroke-width:8.64"/>
	<line x1="997.05" y1="1312.41" x2="1006.95" y2="1294.59" stroke-linecap="round" style="stroke:#2D6D66;stroke-width:8.64"/>
	<line x1="1006.95" y1="1294.59" x2="1016.73" y2="1276.77" stroke-linecap="round" style="stroke:#2D6D66;stroke-width:8.64"/>
	<line x1="1016.73" y1="1276.77" x2="1026.51" y2="1258.82" stroke-linecap="round" style="stroke:#2D6D66;stroke-width:8.64"/>
	<line x1="1026.51" y1="1258.82" x2="1036.41" y2="1241.00" stroke-linecap="round" style="stroke:#2D6D66;stroke-width:8.64"/>
	<line x1="1036.41" y1="1241.00" x2="1046.18" y2="1223.06" stroke-linecap="round" style="stroke:#2D6D66;stroke-width:8.64"/>
	<line x1="1046.18" y1="1223.06" x2="1056.08" y2="1205.12" stroke-linecap="round" style="stroke:#2D6D66;stroke-width:8.64"/>
	<line x1="1056.08" y1="1205.12" x2="1065.86" y2="1187.17" stroke-linecap="round" style="stroke:#2D6D66;stroke-width:8.64"/>
	<line x1="1065.86" y1="1187.17" x2="1075.63" y2="1169.23" stroke-linecap="round" style="stroke:#2D6D66;stroke-width:8.64"/>
	<line x1="1075.63" y1="1169.23" x2="1085.54" y2="1151.41" stroke-linecap="round" style="stroke:#2D6D66;stroke-width:8.64"/>
	<line x1="1085.54" y1="1151.41" x2="1095.31" y2="1133.46" stroke-linecap="round" style="stroke:#2D6D66;stroke-width:8.64"/>
	<line x1="1095.31" y1="1133.46" x2="1105.09" y2="1115.64" stroke-linecap="round" style="stroke:#2D6D66;stroke-width:8.64"/>
	<line x1="1105.09" y1="1115.64" x2="1114.99" y2="1097.82" stroke-linecap="round" style="stroke:#2D6D66;stroke-width:8.64"/>
	<line x1="1114.99" y1="1097.82" x2="1124.76" y2="1080.00" stroke-linecap="round" style="stroke:#2D6D66;stroke-width:8.64"/>
	<line x1="1124.76" y1="1080.00" x2="1134.66" y2="1062.30" stroke-linecap="round" style="stroke:#2D6D66;stroke-width:8.64"/>
	<line x1="1134.66" y1="1062.30" x2="1144.44" y2="1044.61" stroke-linecap="round" style="stroke:#2D6D66;stroke-width:8.64"/>
	<line x1="1144.44" y1="1044.61" x2="1154.22" y2="1027.03" stroke-linecap="round" style="stroke:#2D6D66;stroke-width:8.64"/>
	<line x1="1154.22" y1="1027.03" x2="1164.12" y2="1009.46" stroke-linecap="round" style="stroke:#2D6D66;stroke-width:8.64"/>
	<line x1="1164.12" y1="1009.46" x2="1173.89" y2="992.01" stroke-linecap="round" style="stroke:#2D6D66;stroke-width:8.64"/>
	<line x1="1173.89" y1="992.01" x2="1183.79" y2="974.69" stroke-linecap="round" style="stroke:#2D6D66;stroke-width:8.64"/>
	<line x1="1183.79" y1="974.69" x2="1193.57" y2="957.36" stroke-linecap="round" style="stroke:#2D6D66;stroke-width:8.64"/>
	<line x1="1193.57" y1="957.36" x2="1203.35" y2="940.28" stroke-linecap="round" style="stroke:#2D6D66;stroke-width:8.64"/>
	<line x1="1203.35" y1="940.28" x2="1213.24" y2="923.20" stroke-linecap="round" style="stroke:#2D6D66;stroke-width:8.64"/>
	<line x1="1213.24" y1="923.20" x2="1223.02" y2="906.25" stroke-linecap="round" style="stroke:#2D6D66;stroke-width:8.64"/>
	<line x1="1223.02" y1="906.25" x2="1232.92" y2="889.42" stroke-linecap="round" style="stroke:#2D6D66;stroke-width:8.64"/>
	<line x1="1232.92" y1="889.42" x2="1242.70" y2="872.84" stroke-linecap="round" style="stroke:#2D6D66;stroke-width:8.64"/>
	<line x1="1242.70" y1="872.84" x2="1252.47" y2="856.25" stroke-linecap="round" style="stroke:#2D6D66;stroke-width:8.64"/>
	<line x1="1252.47" y1="856.25" x2="1262.37" y2="839.92" stroke-linecap="round" style="stroke:#2D6D66;stroke-width:8.64"/>
	<line x1="1262.37" y1="839.92" x2="1272.15" y2="823.71" stroke-linecap="round" style="stroke:#2D6D66;stroke-width:8.64"/>
	<line x1="1272.15" y1="823.71" x2="1281.93" y2="807.62" stroke-linecap="round" style="stroke:#2D6D66;stroke-width:8.64"/>
	<line x1="1281.93" y1="807.62" x2="1291.83" y2="791.78" stroke-linecap="round" style="stroke:#2D6D66;stroke-width:8.64"/>
	<line x1="1291.83" y1="791.78" x2="1301.60" y2="776.06" stroke-linecap="round" style="stroke:#2D6D66;stroke-width:8.64"/>
	<line x1="1301.60" y1="776.06" x2="1311.50" y2="760.59" stroke-linecap="round" style="stroke:#2D6D66;stroke-width:8.64"/>
	<line x1="1311.50" y1="760.59" x2="1321.28" y2="745.37" stroke-linecap="round" style="stroke:#2D6D66;stroke-width:8.64"/>
	<line x1="1321.28" y1="745.37" x2="1331.06" y2="730.27" stroke-linecap="round" style="stroke:#2D6D66;stroke-width:8.64"/>
	<line x1="1331.06" y1="730.27" x2="1340.95" y2="715.42" stroke-linecap="round" style="stroke:#2D6D66;stroke-width:8.64"/>
	<line x1="1340.95" y1="715.42" x2="1350.73" y2="700.69" stroke-linecap="round" style="stroke:#2D6D66;stroke-width:8.64"/>
	<line x1="1350.73" y1="700.69" x2="1360.63" y2="686.34" stroke-linecap="round" style="stroke:#2D6D66;stroke-width:8.64"/>
	<line x1="1360.63" y1="686.34" x2="1370.41" y2="672.11" stroke-linecap="round" style="stroke:#2D6D66;stroke-width:8.64"/>
	<line x1="1370.41" y1="672.11" x2="1380.18" y2="658.25" stroke-linecap="round" style="stroke:#2D6D66;stroke-width:8.64"/>
	<line x1="1380.18" y1="658.25" x2="1390.08" y2="644.51" stroke-linecap="round" style="stroke:#2D6D66;stroke-width:8.64"/>
	<line x1="1390.08" y1="644.51" x2="1399.86" y2="631.14" stroke-linecap="round" style="stroke:#2D6D66;stroke-width:8.64"/>
	<line x1="1399.86" y1="631.14" x2="1409.76" y2="617.90" stroke-linecap="round" style="stroke:#2D6D66;stroke-width:8.64"/>
	<line x1="1409.76" y1="617.90" x2="1419.54" y2="605.03" stroke-linecap="round" style="stroke:#2D6D66;stroke-width:8.64"/>
	<line x1="1419.54" y1="605.03" x2="1429.31" y2="592.41" stroke-linecap="round" style="stroke:#2D6D66;stroke-width:8.64"/>
	<line x1="1429.31" y1="592.41" x2="1439.21" y2="580.16" stroke-linecap="round" style="stroke:#2D6D66;stroke-width:8.64"/>
	<line x1="1439.21" y1="580.16" x2="1448.99" y2="568.15" stroke-linecap="round" style="stroke:#2D6D66;stroke-width:8.64"/>
	<line x1="1448.99" y1="568.15" x2="1458.77" y2="556.40" stroke-linecap="round" style="stroke:#2D6D66;stroke-width:8.64"/>
	<line x1="1458.77" y1="556.40" x2="1468.66" y2="545.01" stroke-linecap="round" style="stroke:#2D6D66;stroke-width:8.64"/>
	<line x1="1468.66" y1="545.01" x2="1478.44" y2="533.87" stroke-linecap="round" style="stroke:#2D6D66;stroke-width:8.64"/>
	<line x1="1478.44" y1="533.87" x2="1488.34" y2="523.11" stroke-linecap="round" style="stroke:#2D6D66;stroke-width:8.64"/>
	<line x1="1488.34" y1="523.11" x2="1498.12" y2="512.59" stroke-linecap="round" style="stroke:#2D6D66;stroke-width:8.64"/>
	<line x1="1498.12" y1="512.59" x2="1507.89" y2="502.44" stroke-linecap="round" style="stroke:#2D6D66;stroke-width:8.64"/>
	<line x1="1507.89" y1="502.44" x2="1517.79" y2="492.66" stroke-linecap="round" style="stroke:#2D6D66;stroke-width:8.64"/>
	<line x1="1517.79" y1="492.66" x2="1527.57" y2="483.26" stroke-linecap="round" style="stroke:#2D6D66;stroke-width:8.64"/>
	<line x1="1527.57" y1="483.26" x2="1537.47" y2="474.10" stroke-linecap="round" style="stroke:#2D6D66;stroke-width:8.64"/>
	<line x1="1537.47" y1="474.10" x2="1547.25" y2="465.44" stroke-linecap="round" style="stroke:#2D6D66;stroke-width:8.64"/>
	<line x1="1547.25" y1="465.44" x2="1557.02" y2="457.02" stroke-linecap="round" style="stroke:#2D6D66;stroke-width:8.64"/>
	<line x1="1557.02" y1="457.02" x2="1566.92" y2="448.98" stroke-linecap="round" style="stroke:#2D6D66;stroke-width:8.64"/>
	<line x1="1566.92" y1="448.98" x2="1576.70" y2="441.31" stroke-linecap="round" style="stroke:#2D6D66;stroke-width:8.64"/>
	<line x1="1576.70" y1="441.31" x2="1586.60" y2="434.00" stroke-linecap="round" style="stroke:#2D6D66;stroke-width:8.64"/>
	<line x1="1586.60" y1="434.00" x2="1596.38" y2="427.07" stroke-linecap="round" style="stroke:#2D6D66;stroke-width:8.64"/>
	<line x1="1596.38" y1="427.07" x2="1606.15" y2="420.52" stroke-linecap="round" style="stroke:#2D6D66;stroke-width:8.64"/>
	<line x1="1606.15" y1="420.52" x2="1616.05" y2="414.45" stroke-linecap="round" style="stroke:#2D6D66;stroke-width:8.64"/>
	<line x1="1616.05" y1="414.45" x2="1625.83" y2="408.64" stroke-linecap="round" style="stroke:#2D6D66;stroke-width:8.64"/>
	<line x1="1625.83" y1="408.64" x2="1635.60" y2="403.31" stroke-linecap="round" style="stroke:#2D6D66;stroke-width:8.64"/>
	<line x1="1635.60" y1="403.31" x2="1645.50" y2="398.24" stroke-linecap="round" style="stroke:#2D6D66;stroke-width:8.64"/>
	<line x1="1645.50" y1="398.24" x2="1655.28" y2="393.66" stroke-linecap="round" style="stroke:#2D6D66;stroke-width:8.64"/>
	<line x1="1655.28" y1="393.66" x2="1665.18" y2="389.45" stroke-linecap="round" style="stroke:#2D6D66;stroke-width:8.64"/>
	<line x1="1665.18" y1="389.45" x2="1674.96" y2="385.74" stroke-linecap="round" style="stroke:#2D6D66;stroke-width:8.64"/>
	<line x1="1674.96" y1="385.74" x2="1684.73" y2="382.28" stroke-linecap="round" style="stroke:#2D6D66;stroke-width:8.64"/>
	<line x1="1684.73" y1="382.28" x2="1694.63" y2="379.31" stroke-linecap="round" style="stroke:#2D6D66;stroke-width:8.64"/>
	<line x1="1694.63" y1="379.31" x2="1704.41" y2="376.71" stroke-linecap="round" style="stroke:#2D6D66;stroke-width:8.64"/>
	<line x1="1704.41" y1="376.71" x2="1714.31" y2="374.60" stroke-linecap="round" style="stroke:#2D6D66;stroke-width:8.64"/>
	<line x1="1714.31" y1="374.60" x2="1724.09" y2="372.87" stroke-linecap="round" style="stroke:#2D6D66;stroke-width:8.64"/>
	<line x1="1724.09" y1="372.87" x2="1733.86" y2="371.51" stroke-linecap="round" style="stroke:#2D6D66;stroke-width:8.64"/>
	<line x1="1733.86" y1="371.51" x2="1743.76" y2="370.52" stroke-linecap="round" style="stroke:#2D6D66;stroke-width:8.64"/>
	<line x1="1743.76" y1="370.52" x2="1753.54" y2="370.02" stroke-linecap="round" style="stroke:#2D6D66;stroke-width:8.64"/>
	<line x1="1753.54" y1="370.02" x2="1763.31" y2="369.90" stroke-linecap="round" style="stroke:#2D6D66;stroke-width:8.64"/>
	<line x1="1763.31" y1="369.90" x2="1773.21" y2="370.15" stroke-linecap="round" style="stroke:#2D6D66;stroke-width:8.64"/>
	<line x1="1773.21" y1="370.15" x2="1782.99" y2="370.89" stroke-linecap="round" style="stroke:#2D6D66;stroke-width:8.64"/>
	<line x1="1782.99" y1="370.89" x2="1792.89" y2="372.00" stroke-linecap="round" style="stroke:#2D6D66;stroke-width:8.64"/>
	<line x1="1792.89" y1="372.00" x2="1802.67" y2="373.61" stroke-linecap="round" style="stroke:#2D6D66;stroke-width:8.64"/>
	<line x1="1802.67" y1="373.61" x2="1812.44" y2="375.47" stroke-linecap="round" style="stroke:#2D6D66;stroke-width:8.64"/>
	<line x1="1812.44" y1="375.47" x2="1822.34" y2="377.82" stroke-linecap="round" style="stroke:#2D6D66;stroke-width:8.64"/>
	<line x1="1822.34" y1="377.82" x2="1832.12" y2="380.67" stroke-linecap="round" style="stroke:#2D6D66;stroke-width:8.64"/>
	<line x1="1832.12" y1="380.67" x2="1842.02" y2="383.76" stroke-linecap="round" style="stroke:#2D6D66;stroke-width:8.64"/>
	<line x1="1842.02" y1="383.76" x2="1851.80" y2="387.35" stroke-linecap="round" style="stroke:#2D6D66;stroke-width:8.64"/>
	<line x1="1851.80" y1="387.35" x2="1861.57" y2="391.31" stroke-linecap="round" style="stroke:#2D6D66;stroke-width:8.64"/>
	<line x1="1861.57" y1="391.31" x2="1871.47" y2="395.64" stroke-linecap="round" style="stroke:#2D6D66;stroke-width:8.64"/>
	<line x1="1871.47" y1="395.64" x2="1881.25" y2="400.47" stroke-linecap="round" style="stroke:#2D6D66;stroke-width:8.64"/>
	<line x1="1881.25" y1="400.47" x2="1891.15" y2="405.67" stroke-linecap="round" style="stroke:#2D6D66;stroke-width:8.64"/>
	<line x1="1891.15" y1="405.67" x2="1900.92" y2="411.23" stroke-linecap="round" style="stroke:#2D6D66;stroke-width:8.64"/>
	<line x1="1900.92" y1="411.23" x2="1910.70" y2="417.17" stroke-linecap="round" style="stroke:#2D6D66;stroke-width:8.64"/>
	<line x1="1910.70" y1="417.17" x2="1920.60" y2="423.49" stroke-linecap="round" style="stroke:#2D6D66;stroke-width:8.64"/>
	<line x1="1920.60" y1="423.49" x2="1930.38" y2="430.17" stroke-linecap="round" style="stroke:#2D6D66;stroke-width:8.64"/>
	<line x1="1930.38" y1="430.17" x2="1940.15" y2="437.22" stroke-linecap="round" style="stroke:#2D6D66;stroke-width:8.64"/>
	<line x1="1940.15" y1="437.22" x2="1950.05" y2="444.65" stroke-linecap="round" style="stroke:#2D6D66;stroke-width:8.64"/>
	<line x1="1950.05" y1="444.65" x2="1959.83" y2="452.57" stroke-linecap="round" style="stroke:#2D6D66;stroke-width:8.64"/>
	<line x1="1959.83" y1="452.57" x2="1969.73" y2="460.74" stroke-linecap="round" style="stroke:#2D6D66;stroke-width:8.64"/>
	<line x1="1969.73" y1="460.74" x2="1979.51" y2="469.27" stroke-linecap="round" style="stroke:#2D6D66;stroke-width:8.64"/>
	<line x1="1979.51" y1="469.27" x2="1989.28" y2="478.18" stroke-linecap="round" style="stroke:#2D6D66;stroke-width:8.64"/>
	<line x1="1989.28" y1="478.18" x2="1999.18" y2="487.47" stroke-linecap="round" style="stroke:#2D6D66;stroke-width:8.64"/>
	<line x1="1999.18" y1="487.47" x2="2008.96" y2="497.00" stroke-linecap="round" style="stroke:#2D6D66;stroke-width:8.64"/>
	<line x1="2008.96" y1="497.00" x2="2018.86" y2="507.02" stroke-linecap="round" style="stroke:#2D6D66;stroke-width:8.64"/>
	<line x1="2018.86" y1="507.02" x2="2028.63" y2="517.29" stroke-linecap="round" style="stroke:#2D6D66;stroke-width:8.64"/>
	<line x1="2028.63" y1="517.29" x2="2038.41" y2="527.93" stroke-linecap="round" style="stroke:#2D6D66;stroke-width:8.64"/>
	<line x1="2038.41" y1="527.93" x2="2048.31" y2="538.82" stroke-linecap="round" style="stroke:#2D6D66;stroke-width:8.64"/>
	<line x1="2048.31" y1="538.82" x2="2058.09" y2="550.09" stroke-linecap="round" style="stroke:#2D6D66;stroke-width:8.64"/>
	<line x1="2058.09" y1="550.09" x2="2067.99" y2="561.60" stroke-linecap="round" style="stroke:#2D6D66;stroke-width:8.64"/>
	<line x1="2067.99" y1="561.60" x2="2077.76" y2="573.48" stroke-linecap="round" style="stroke:#2D6D66;stroke-width:8.64"/>
	<line x1="2077.76" y1="573.48" x2="2087.54" y2="585.60" stroke-linecap="round" style="stroke:#2D6D66;stroke-width:8.64"/>
	<line x1="2087.54" y1="585.60" x2="2097.44" y2="598.10" stroke-linecap="round" style="stroke:#2D6D66;stroke-width:8.64"/>
	<line x1="2097.44" y1="598.10" x2="2107.22" y2="610.73" stroke-linecap="round" style="stroke:#2D6D66;stroke-width:8.64"/>
	<line x1="2107.22" y1="610.73" x2="2116.99" y2="623.84" stroke-linecap="round" style="stroke:#2D6D66;stroke-width:8.64"/>
	<line x1="2116.99" y1="623.84" x2="2126.89" y2="637.08" stroke-linecap="round" style="stroke:#2D6D66;stroke-width:8.64"/>
	<line x1="2126.89" y1="637.08" x2="2136.67" y2="650.57" stroke-linecap="round" style="stroke:#2D6D66;stroke-width:8.64"/>
	<line x1="2136.67" y1="650.57" x2="2146.57" y2="664.43" stroke-linecap="round" style="stroke:#2D6D66;stroke-width:8.64"/>
	<line x1="2146.57" y1="664.43" x2="2156.34" y2="678.42" stroke-linecap="round" style="stroke:#2D6D66;stroke-width:8.64"/>
	<line x1="2156.34" y1="678.42" x2="2166.12" y2="692.77" stroke-linecap="round" style="stroke:#2D6D66;stroke-width:8.64"/>
	<line x1="2166.12" y1="692.77" x2="2176.02" y2="707.25" stroke-linecap="round" style="stroke:#2D6D66;stroke-width:8.64"/>
	<line x1="2176.02" y1="707.25" x2="2185.80" y2="721.98" stroke-linecap="round" style="stroke:#2D6D66;stroke-width:8.64"/>
	<line x1="2185.80" y1="721.98" x2="2195.70" y2="736.95" stroke-linecap="round" style="stroke:#2D6D66;stroke-width:8.64"/>
	<line x1="2195.70" y1="736.95" x2="2205.47" y2="752.18" stroke-linecap="round" style="stroke:#2D6D66;stroke-width:8.64"/>
	<line x1="2205.47" y1="752.18" x2="2215.25" y2="767.52" stroke-linecap="round" style="stroke:#2D6D66;stroke-width:8.64"/>
	<line x1="2215.25" y1="767.52" x2="2225.15" y2="783.11" stroke-linecap="round" style="stroke:#2D6D66;stroke-width:8.64"/>
	<line x1="2225.15" y1="783.11" x2="2234.93" y2="798.83" stroke-linecap="round" style="stroke:#2D6D66;stroke-width:8.64"/>
	<line x1="2234.93" y1="798.83" x2="2244.82" y2="814.80" stroke-linecap="round" style="stroke:#2D6D66;stroke-width:8.64"/>
	<line x1="2244.82" y1="814.80" x2="2254.60" y2="830.88" stroke-linecap="round" style="stroke:#2D6D66;stroke-width:8.64"/>
	<line x1="2254.60" y1="830.88" x2="2264.38" y2="847.22" stroke-linecap="round" style="stroke:#2D6D66;stroke-width:8.64"/>
	<line x1="2264.38" y1="847.22" x2="2274.28" y2="863.68" stroke-linecap="round" style="stroke:#2D6D66;stroke-width:8.64"/>
	<line x1="2274.28" y1="863.68" x2="2284.05" y2="880.26" stroke-linecap="round" style="stroke:#2D6D66;stroke-width:8.64"/>
	<line x1="2284.05" y1="880.26" x2="2293.83" y2="896.97" stroke-linecap="round" style="stroke:#2D6D66;stroke-width:8.64"/>
	<line x1="2293.83" y1="896.97" x2="2303.73" y2="913.80" stroke-linecap="round" style="stroke:#2D6D66;stroke-width:8.64"/>
	<line x1="2303.73" y1="913.80" x2="2313.51" y2="930.75" stroke-linecap="round" style="stroke:#2D6D66;stroke-width:8.64"/>
	<line x1="2313.51" y1="930.75" x2="2323.41" y2="947.95" stroke-linecap="round" style="stroke:#2D6D66;stroke-width:8.64"/>
	<line x1="2323.41" y1="947.95" x2="2333.18" y2="965.16" stroke-linecap="round" style="stroke:#2D6D66;stroke-width:8.64"/>
	<line x1="2333.18" y1="965.16" x2="2342.96" y2="982.36" stroke-linecap="round" style="stroke:#2D6D66;stroke-width:8.64"/>
	<line x1="2342.96" y1="982.36" x2="2352.86" y2="999.81" stroke-linecap="round" style="stroke:#2D6D66;stroke-width:8.64"/>
	<line x1="2352.86" y1="999.81" x2="2362.64" y2="1017.26" stroke-linecap="round" style="stroke:#2D6D66;stroke-width:8.64"/>
	<line x1="2362.64" y1="1017.26" x2="2372.53" y2="1034.83" stroke-linecap="round" style="stroke:#2D6D66;stroke-width:8.64"/>
	<line x1="2372.53" y1="1034.83" x2="2382.31" y2="1052.53" stroke-linecap="round" style="stroke:#2D6D66;stroke-width:8.64"/>
	<line x1="2382.31" y1="1052.53" x2="2392.09" y2="1070.22" stroke-linecap="round" style="stroke:#2D6D66;stroke-width:8.64"/>
	<line x1="2392.09" y1="1070.22" x2="2401.99" y2="1087.92" stroke-linecap="round" style="stroke:#2D6D66;stroke-width:8.64"/>
	<line x1="2401.99" y1="1087.92" x2="2411.76" y2="1105.74" stroke-linecap="round" style="stroke:#2D6D66;stroke-width:8.64"/>
	<line x1="2411.76" y1="1105.74" x2="2421.66" y2="1123.56" stroke-linecap="round" style="stroke:#2D6D66;stroke-width:8.64"/>
	<line x1="2421.66" y1="1123.56" x2="2431.44" y2="1141.51" stroke-linecap="round" style="stroke:#2D6D66;stroke-width:8.64"/>
	<line x1="2431.44" y1="1141.51" x2="2441.22" y2="1159.33" stroke-linecap="round" style="stroke:#2D6D66;stroke-width:8.64"/>
	<line x1="2441.22" y1="1159.33" x2="2451.12" y2="1177.27" stroke-linecap="round" style="stroke:#2D6D66;stroke-width:8.64"/>
	<line x1="2451.12" y1="1177.27" x2="2460.89" y2="1195.21" stroke-linecap="round" style="stroke:#2D6D66;stroke-width:8.64"/>
	<line x1="2460.89" y1="1195.21" x2="2470.67" y2="1213.16" stroke-linecap="round" style="stroke:#2D6D66;stroke-width:8.64"/>
	<line x1="2470.67" y1="1213.16" x2="2480.57" y2="1231.10" stroke-linecap="round" style="stroke:#2D6D66;stroke-width:8.64"/>
	<line x1="2480.57" y1="1231.10" x2="2490.34" y2="1248.92" stroke-linecap="round" style="stroke:#2D6D66;stroke-width:8.64"/>
	<line x1="2490.34" y1="1248.92" x2="2500.24" y2="1266.87" stroke-linecap="round" style="stroke:#2D6D66;stroke-width:8.64"/>
	<line x1="2500.24" y1="1266.87" x2="2510.02" y2="1284.69" stroke-linecap="round" style="stroke:#2D6D66;stroke-width:8.64"/>
	<line x1="2510.02" y1="1284.69" x2="2519.80" y2="1302.63" stroke-linecap="round" style="stroke:#2D6D66;stroke-width:8.64"/>
	<line x1="2519.80" y1="1302.63" x2="2529.70" y2="1320.33" stroke-linecap="round" style="stroke:#2D6D66;stroke-width:8.64"/>
	<line x1="2529.70" y1="1320.33" x2="2539.47" y2="1338.15" stroke-linecap="round" style="stroke:#2D6D66;stroke-width:8.64"/>
	<line x1="2539.47" y1="1338.15" x2="2549.37" y2="1355.85" stroke-linecap="round" style="stroke:#2D6D66;stroke-width:8.64"/>
	<line x1="2549.37" y1="1355.85" x2="2559.15" y2="1373.54" stroke-linecap="round" style="stroke:#2D6D66;stroke-width:8.64"/>
	<line x1="2559.15" y1="1373.54" x2="2568.93" y2="1391.12" stroke-linecap="round" style="stroke:#2D6D66;stroke-width:8.64"/>
	<line x1="2568.93" y1="1391.12" x2="2578.83" y2="1408.69" stroke-linecap="round" style="stroke:#2D6D66;stroke-width:8.64"/>
	<line x1="2578.83" y1="1408.69" x2="2588.60" y2="1426.14" stroke-linecap="round" style="stroke:#2D6D66;stroke-width:8.64"/>
	<line x1="2588.60" y1="1426.14" x2="2598.50" y2="1443.47" stroke-linecap="round" style="stroke:#2D6D66;stroke-width:8.64"/>
	<line x1="2598.50" y1="1443.47" x2="2608.28" y2="1460.79" stroke-linecap="round" style="stroke:#2D6D66;stroke-width:8.64"/>
	<line x1="2608.28" y1="1460.79" x2="2618.05" y2="1477.99" stroke-linecap="round" style="stroke:#2D6D66;stroke-width:8.64"/>
	<line x1="2618.05" y1="1477.99" x2="2627.95" y2="1495.07" stroke-linecap="round" style="stroke:#2D6D66;stroke-width:8.64"/>
	<line x1="2627.95" y1="1495.07" x2="2637.73" y2="1512.02" stroke-linecap="round" style="stroke:#2D6D66;stroke-width:8.64"/>
	<line x1="2637.73" y1="1512.02" x2="2647.51" y2="1528.98" stroke-linecap="round" style="stroke:#2D6D66;stroke-width:8.64"/>
	<line x1="2647.51" y1="1528.98" x2="2657.41" y2="1545.81" stroke-linecap="round" style="stroke:#2D6D66;stroke-width:8.64"/>
	<line x1="2657.41" y1="1545.81" x2="2667.18" y2="1562.52" stroke-linecap="round" style="stroke:#2D6D66;stroke-width:8.64"/>
	<line x1="2667.18" y1="1562.52" x2="2677.08" y2="1578.98" stroke-linecap="round" style="stroke:#2D6D66;stroke-width:8.64"/>
	<line x1="2677.08" y1="1578.98" x2="2686.86" y2="1595.43" stroke-linecap="round" style="stroke:#2D6D66;stroke-width:8.64"/>
	<line x1="2686.86" y1="1595.43" x2="2696.64" y2="1611.77" stroke-linecap="round" style="stroke:#2D6D66;stroke-width:8.64"/>
	<line x1="2696.64" y1="1611.77" x2="2706.54" y2="1627.98" stroke-linecap="round" style="stroke:#2D6D66;stroke-width:8.64"/>
	<line x1="2706.54" y1="1627.98" x2="2716.31" y2="1644.07" stroke-linecap="round" style="stroke:#2D6D66;stroke-width:8.64"/>
	<line x1="2716.31" y1="1644.07" x2="2726.21" y2="1659.91" stroke-linecap="round" style="stroke:#2D6D66;stroke-width:8.64"/>
	<line x1="2726.21" y1="1659.91" x2="2735.99" y2="1675.75" stroke-linecap="round" style="stroke:#2D6D66;stroke-width:8.64"/>
	<line x1="2735.99" y1="1675.75" x2="2745.76" y2="1691.34" stroke-linecap="round" style="stroke:#2D6D66;stroke-width:8.64"/>
	<line x1="2745.76" y1="1691.34" x2="2755.66" y2="1706.81" stroke-linecap="round" style="stroke:#2D6D66;stroke-width:8.64"/>
	<line x1="2755.66" y1="1706.81" x2="2765.44" y2="1722.16" stroke-linecap="round" style="stroke:#2D6D66;stroke-width:8.64"/>
	<line x1="2765.44" y1="1722.16" x2="2775.22" y2="1737.38" stroke-linecap="round" style="stroke:#2D6D66;stroke-width:8.64"/>
	<line x1="2775.22" y1="1737.38" x2="2785.12" y2="1752.35" stroke-linecap="round" style="stroke:#2D6D66;stroke-width:8.64"/>
	<line x1="2785.12" y1="1752.35" x2="2794.89" y2="1767.21" stroke-linecap="round" style="stroke:#2D6D66;stroke-width:8.64"/>
	<line x1="2794.89" y1="1767.21" x2="2804.79" y2="1781.93" stroke-linecap="round" style="stroke:#2D6D66;stroke-width:8.64"/>
	<line x1="2804.79" y1="1781.93" x2="2814.57" y2="1796.41" stroke-linecap="round" style="stroke:#2D6D66;stroke-width:8.64"/>
	<line x1="2814.57" y1="1796.41" x2="2824.35" y2="1810.77" stroke-linecap="round" style="stroke:#2D6D66;stroke-width:8.64"/>
	<line x1="2824.35" y1="1810.77" x2="2834.25" y2="1825.00" stroke-linecap="round" style="stroke:#2D6D66;stroke-width:8.64"/>
	<line x1="2834.25" y1="1825.00" x2="2844.02" y2="1838.98" stroke-linecap="round" style="stroke:#2D6D66;stroke-width:8.64"/>
	<line x1="2844.02" y1="1838.98" x2="2853.92" y2="1852.84" stroke-linecap="round" style="stroke:#2D6D66;stroke-width:8.64"/>
	<line x1="2853.92" y1="1852.84" x2="2863.70" y2="1866.58" stroke-linecap="round" style="stroke:#2D6D66;stroke-width:8.64"/>
	<line x1="2863.70" y1="1866.58" x2="2873.47" y2="1880.07" stroke-linecap="round" style="stroke:#2D6D66;stroke-width:8.64"/>
	<line x1="2873.47" y1="1880.07" x2="2883.38" y2="1893.43" stroke-linecap="round" style="stroke:#2D6D66;stroke-width:8.64"/>
	<line x1="2883.38" y1="1893.43" x2="2893.15" y2="1906.55" stroke-linecap="round" style="stroke:#2D6D66;stroke-width:8.64"/>
	<line x1="2893.15" y1="1906.55" x2="2903.05" y2="1919.55" stroke-linecap="round" style="stroke:#2D6D66;stroke-width:8.64"/>
	<line x1="2903.05" y1="1919.55" x2="2912.83" y2="1932.29" stroke-linecap="round" style="stroke:#2D6D66;stroke-width:8.64"/>
	<line x1="2912.83" y1="1932.29" x2="2922.60" y2="1944.92" stroke-linecap="round" style="stroke:#2D6D66;stroke-width:8.64"/>
	<line x1="2922.60" y1="1944.92" x2="2932.50" y2="1957.29" stroke-linecap="round" style="stroke:#2D6D66;stroke-width:8.64"/>
	<line x1="2932.50" y1="1957.29" x2="2942.28" y2="1969.54" stroke-linecap="round" style="stroke:#2D6D66;stroke-width:8.64"/>
	<line x1="2942.28" y1="1969.54" x2="2952.06" y2="1981.67" stroke-linecap="round" style="stroke:#2D6D66;stroke-width:8.64"/>
	<line x1="2952.06" y1="1981.67" x2="2961.96" y2="1993.55" stroke-linecap="round" style="stroke:#2D6D66;stroke-width:8.64"/>
	<line x1="2961.96" y1="1993.55" x2="2971.73" y2="2005.18" stroke-linecap="round" style="stroke:#2D6D66;stroke-width:8.64"/>
	<line x1="2971.73" y1="2005.18" x2="2981.63" y2="2016.69" stroke-linecap="round" style="stroke:#2D6D66;stroke-width:8.64"/>
	<line x1="2981.63" y1="2016.69" x2="2991.41" y2="2028.08" stroke-linecap="round" style="stroke:#2D6D66;stroke-width:8.64"/>
	<line x1="2991.41" y1="2028.08" x2="3001.18" y2="2039.22" stroke-linecap="round" style="stroke:#2D6D66;stroke-width:8.64"/>
	<line x1="3001.18" y1="2039.22" x2="3011.09" y2="2050.11" stroke-linecap="round" style="stroke:#2D6D66;stroke-width:8.64"/>
	<line x1="3011.09" y1="2050.11" x2="3020.86" y2="2060.87" stroke-linecap="round" style="stroke:#2D6D66;stroke-width:8.64"/>
	<line x1="3020.86" y1="2060.87" x2="3030.76" y2="2071.52" stroke-linecap="round" style="stroke:#2D6D66;stroke-width:8.64"/>
	<line x1="3030.76" y1="2071.52" x2="3040.54" y2="2081.91" stroke-linecap="round" style="stroke:#2D6D66;stroke-width:8.64"/>
	<line x1="3040.54" y1="2081.91" x2="3050.31" y2="2092.18" stroke-linecap="round" style="stroke:#2D6D66;stroke-width:8.64"/>
	<line x1="3050.31" y1="2092.18" x2="3060.21" y2="2102.21" stroke-linecap="round" style="stroke:#2D6D66;stroke-width:8.64"/>
	<line x1="3060.21" y1="2102.21" x2="3069.99" y2="2112.11" stroke-linecap="round" style="stroke:#2D6D66;stroke-width:8.64"/>
	<line x1="3069.99" y1="2112.11" x2="3079.89" y2="2121.76" stroke-linecap="round" style="stroke:#2D6D66;stroke-width:8.64"/>
	<line x1="3079.89" y1="2121.76" x2="3089.67" y2="2131.29" stroke-linecap="round" style="stroke:#2D6D66;stroke-width:8.64"/>
	<line x1="3089.67" y1="2131.29" x2="3099.44" y2="2140.57" stroke-linecap="round" style="stroke:#2D6D66;stroke-width:8.64"/>
	<line x1="3099.44" y1="2140.57" x2="3109.34" y2="2149.73" stroke-linecap="round" style="stroke:#2D6D66;stroke-width:8.64"/>
	<line x1="3109.34" y1="2149.73" x2="3119.12" y2="2158.64" stroke-linecap="round" style="stroke:#2D6D66;stroke-width:8.64"/>
	<line x1="3119.12" y1="2158.64" x2="3128.89" y2="2167.55" stroke-linecap="round" style="stroke:#2D6D66;stroke-width:8.64"/>
	<line x1="3128.89" y1="2167.55" x2="3138.80" y2="2176.09" stroke-linecap="round" style="stroke:#2D6D66;stroke-width:8.64"/>
	<line x1="3138.80" y1="2176.09" x2="3148.57" y2="2184.63" stroke-linecap="round" style="stroke:#2D6D66;stroke-width:8.64"/>
	<line x1="3148.57" y1="2184.63" x2="3158.47" y2="2192.92" stroke-linecap="round" style="stroke:#2D6D66;stroke-width:8.64"/>
	<line x1="3158.47" y1="2192.92" x2="3168.25" y2="2200.96" stroke-linecap="round" style="stroke:#2D6D66;stroke-width:8.64"/>
	<line x1="3168.25" y1="2200.96" x2="3178.02" y2="2208.88" stroke-linecap="round" style="stroke:#2D6D66;stroke-width:8.64"/>
	<line x1="3178.02" y1="2208.88" x2="3187.92" y2="2216.68" stroke-linecap="round" style="stroke:#2D6D66;stroke-width:8.64"/>
	<line x1="3187.92" y1="2216.68" x2="3197.70" y2="2224.35" stroke-linecap="round" style="stroke:#2D6D66;stroke-width:8.64"/>
	<line x1="3197.70" y1="2224.35" x2="3207.60" y2="2231.78" stroke-linecap="round" style="stroke:#2D6D66;stroke-width:8.64"/>
	<line x1="3207.60" y1="2231.78" x2="3217.38" y2="2239.08" stroke-linecap="round" style="stroke:#2D6D66;stroke-width:8.64"/>
	<line x1="3217.38" y1="2239.08" x2="3227.15" y2="2246.26" stroke-linecap="round" style="stroke:#2D6D66;stroke-width:8.64"/>
	<line x1="3227.15" y1="2246.26" x2="3237.05" y2="2253.19" stroke-linecap="round" style="stroke:#2D6D66;stroke-width:8.64"/>
	<line x1="3237.05" y1="2253.19" x2="3246.83" y2="2259.99" stroke-linecap="round" style="stroke:#2D6D66;stroke-width:8.64"/>
	<line x1="3246.83" y1="2259.99" x2="3256.73" y2="2266.68" stroke-linecap="round" style="stroke:#2D6D66;stroke-width:8.64"/>
	<line x1="3256.73" y1="2266.68" x2="3266.51" y2="2273.23" stroke-linecap="round" style="stroke:#2D6D66;stroke-width:8.64"/>
	<line x1="3266.51" y1="2273.23" x2="3276.28" y2="2279.55" stroke-linecap="round" style="stroke:#2D6D66;stroke-width:8.64"/>
	<line x1="3276.28" y1="2279.55" x2="3286.18" y2="2285.73" stroke-linecap="round" style="stroke:#2D6D66;stroke-width:8.64"/>
	<line x1="3286.18" y1="2285.73" x2="3295.96" y2="2291.80" stroke-linecap="round" style="stroke:#2D6D66;stroke-width:8.64"/>
	<line x1="3295.96" y1="2291.80" x2="3305.73" y2="2297.74" stroke-linecap="round" style="stroke:#2D6D66;stroke-width:8.64"/>
	<line x1="3305.73" y1="2297.74" x2="3315.63" y2="2303.55" stroke-linecap="round" style="stroke:#2D6D66;stroke-width:8.64"/>
	<line x1="3315.63" y1="2303.55" x2="3325.41" y2="2309.25" stroke-linecap="round" style="stroke:#2D6D66;stroke-width:8.64"/>
	<line x1="3325.41" y1="2309.25" x2="3335.31" y2="2314.69" stroke-linecap="round" style="stroke:#2D6D66;stroke-width:8.64"/>
	<line x1="3335.31" y1="2314.69" x2="3345.09" y2="2320.01" stroke-linecap="round" style="stroke:#2D6D66;stroke-width:8.64"/>
	<line x1="3345.09" y1="2320.01" x2="3354.86" y2="2325.34" stroke-linecap="round" style="stroke:#2D6D66;stroke-width:8.64"/>
	<line x1="3354.86" y1="2325.34" x2="3364.76" y2="2330.41" stroke-linecap="round" style="stroke:#2D6D66;stroke-width:8.64"/>
	<line x1="3364.76" y1="2330.41" x2="3374.54" y2="2335.36" stroke-linecap="round" style="stroke:#2D6D66;stroke-width:8.64"/>
	<line x1="3374.54" y1="2335.36" x2="3384.44" y2="2340.31" stroke-linecap="round" style="stroke:#2D6D66;stroke-width:8.64"/>
	<line x1="3384.44" y1="2340.31" x2="3394.22" y2="2345.01" stroke-linecap="round" style="stroke:#2D6D66;stroke-width:8.64"/>
	<line x1="3394.22" y1="2345.01" x2="3403.99" y2="2349.59" stroke-linecap="round" style="stroke:#2D6D66;stroke-width:8.64"/>
	<line x1="3403.99" y1="2349.59" x2="3413.89" y2="2354.05" stroke-linecap="round" style="stroke:#2D6D66;stroke-width:8.64"/>
	<line x1="3413.89" y1="2354.05" x2="3423.67" y2="2358.38" stroke-linecap="round" style="stroke:#2D6D66;stroke-width:8.64"/>
	<line x1="3423.67" y1="2358.38" x2="3433.57" y2="2362.71" stroke-linecap="round" style="stroke:#2D6D66;stroke-width:8.64"/>
	<line x1="390.68" y1="2489.31" x2="390.68" y2="100.86" style="stroke:#000000;stroke-width:5.76"/>
	<line x1="390.68" y1="2489.31" x2="350.71" y2="2489.31" style="stroke:#000000;stroke-width:5.76"/>
	<text x="300.72" y="2489.31" style="font-family:'Helvetica';font-size:99.99px;fill:#000000" transform="rotate(-90 300.72,2489.31)" text-anchor="middle">0</text>
	<line x1="390.68" y1="2024.24" x2="350.71" y2="2024.24" style="stroke:#000000;stroke-width:5.76"/>
	<text x="300.72" y="2024.24" style="font-family:'Helvetica';font-size:99.99px;fill:#000000" transform="rotate(-90 300.72,2024.24)" text-anchor="middle">.005</text>
	<line x1="390.68" y1="1559.30" x2="350.71" y2="1559.30" style="stroke:#000000;stroke-width:5.76"/>
	<text x="300.72" y="1559.30" style="font-family:'Helvetica';font-size:99.99px;fill:#000000" transform="rotate(-90 300.72,1559.30)" text-anchor="middle">.01</text>
	<line x1="390.68" y1="1094.23" x2="350.71" y2="1094.23" style="stroke:#000000;stroke-width:5.76"/>
	<text x="300.72" y="1094.23" style="font-family:'Helvetica';font-size:99.99px;fill:#000000" transform="rotate(-90 300.72,1094.23)" text-anchor="middle">.015</text>
	<line x1="390.68" y1="629.29" x2="350.71" y2="629.29" style="stroke:#000000;stroke-width:5.76"/>
	<text x="300.72" y="629.29" style="font-family:'Helvetica';font-size:99.99px;fill:#000000" transform="rotate(-90 300.72,629.29)" text-anchor="middle">.02</text>
	<line x1="390.68" y1="164.22" x2="350.71" y2="164.22" style="stroke:#000000;stroke-width:5.76"/>
	<text x="300.72" y="164.22" style="font-family:'Helvetica';font-size:99.99px;fill:#000000" transform="rotate(-90 300.72,164.22)" text-anchor="middle">.025</text>
	<text x="190.71" y="1295.08" style="font-family:'Helvetica';font-size:99.99px;fill:#000000" transform="rotate(-90 190.71,1295.08)" text-anchor="middle">Density</text>
	<line x1="390.68" y1="2489.31" x2="3859.02" y2="2489.31" style="stroke:#000000;stroke-width:5.76"/>
	<line x1="576.55" y1="2489.31" x2="576.55" y2="2529.28" style="stroke:#000000;stroke-width:5.76"/>
	<text x="576.55" y="2619.14" style="font-family:'Helvetica';font-size:99.99px;fill:#000000" text-anchor="middle">20</text>
	<line x1="1381.30" y1="2489.31" x2="1381.30" y2="2529.28" style="stroke:#000000;stroke-width:5.76"/>
	<text x="1381.30" y="2619.14" style="font-family:'Helvetica';font-size:99.99px;fill:#000000" text-anchor="middle">40</text>
	<line x1="2186.04" y1="2489.31" x2="2186.04" y2="2529.28" style="stroke:#000000;stroke-width:5.76"/>
	<text x="2186.04" y="2619.14" style="font-family:'Helvetica';font-size:99.99px;fill:#000000" text-anchor="middle">60</text>
	<line x1="2990.91" y1="2489.31" x2="2990.91" y2="2529.28" style="stroke:#000000;stroke-width:5.76"/>
	<text x="2990.91" y="2619.14" style="font-family:'Helvetica';font-size:99.99px;fill:#000000" text-anchor="middle">80</text>
	<line x1="3795.66" y1="2489.31" x2="3795.66" y2="2529.28" style="stroke:#000000;stroke-width:5.76"/>
	<text x="3795.66" y="2619.14" style="font-family:'Helvetica';font-size:99.99px;fill:#000000" text-anchor="middle">100</text>
	<text x="2124.91" y="2729.16" style="font-family:'Helvetica';font-size:99.99px;fill:#000000" text-anchor="middle">Age of respondent</text>
</svg>
