<?xml version="1.0" encoding="UTF-8" standalone="no"?>
<!-- This is a Stata generated SVG file (http://www.stata.com) -->

<svg version="1.1" width="5.50in" height="4.00in" viewBox="0 0 3960 2880" xmlns="http://www.w3.org/2000/svg">
	<rect x="0.00" y="0.00" width="3959.88" height="2880.00" style="fill:#EAF2F3;stroke:#EAF2F3;stroke-width:5.76"/>
	<rect x="390.68" y="275.48" width="3468.34" height="2343.77" style="fill:#FFFFFF;stroke:#FFFFFF;stroke-width:5.76"/>
	<line x1="390.68" y1="2619.25" x2="3859.02" y2="2619.25" style="stroke:#EAF2F3;stroke-width:8.64"/>
	<line x1="390.68" y1="2170.64" x2="3859.02" y2="2170.64" style="stroke:#EAF2F3;stroke-width:8.64"/>
	<line x1="390.68" y1="1722.04" x2="3859.02" y2="1722.04" style="stroke:#EAF2F3;stroke-width:8.64"/>
	<line x1="390.68" y1="1273.43" x2="3859.02" y2="1273.43" style="stroke:#EAF2F3;stroke-width:8.64"/>
	<line x1="390.68" y1="824.82" x2="3859.02" y2="824.82" style="stroke:#EAF2F3;stroke-width:8.64"/>
	<rect x="704.38" y="819.13" width="1064.00" height="1800.12" style="fill:#1A476F;stroke:#1A476F;stroke-width:0.12"/>
	<rect x="2481.31" y="2384.98" width="1064.13" height="234.27" style="fill:#1A476F;stroke:#1A476F;stroke-width:0.12"/>
	<line x1="390.68" y1="2619.25" x2="390.68" y2="275.48" style="stroke:#000000;stroke-width:5.76"/>
	<line x1="390.68" y1="2619.25" x2="350.71" y2="2619.25" style="stroke:#000000;stroke-width:5.76"/>
	<text x="300.72" y="2619.25" style="font-family:'Helvetica';font-size:99.99px;fill:#000000" transform="rotate(-90 300.72,2619.25)" text-anchor="middle">2,500</text>
	<line x1="390.68" y1="2170.64" x2="350.71" y2="2170.64" style="stroke:#000000;stroke-width:5.76"/>
	<text x="300.72" y="2170.64" style="font-family:'Helvetica';font-size:99.99px;fill:#000000" transform="rotate(-90 300.72,2170.64)" text-anchor="middle">2,600</text>
	<line x1="390.68" y1="1722.04" x2="350.71" y2="1722.04" style="stroke:#000000;stroke-width:5.76"/>
	<text x="300.72" y="1722.04" style="font-family:'Helvetica';font-size:99.99px;fill:#000000" transform="rotate(-90 300.72,1722.04)" text-anchor="middle">2,700</text>
	<line x1="390.68" y1="1273.43" x2="350.71" y2="1273.43" style="stroke:#000000;stroke-width:5.76"/>
	<text x="300.72" y="1273.43" style="font-family:'Helvetica';font-size:99.99px;fill:#000000" transform="rotate(-90 300.72,1273.43)" text-anchor="middle">2,800</text>
	<line x1="390.68" y1="824.82" x2="350.71" y2="824.82" style="stroke:#000000;stroke-width:5.76"/>
	<text x="300.72" y="824.82" style="font-family:'Helvetica';font-size:99.99px;fill:#000000" transform="rotate(-90 300.72,824.82)" text-anchor="middle">2,900</text>
	<text x="190.71" y="1447.30" style="font-family:'Helvetica';font-size:99.99px;fill:#000000" transform="rotate(-90 190.71,1447.30)" text-anchor="middle">Mean Household Income</text>
	<line x1="390.68" y1="2619.25" x2="3859.02" y2="2619.25" style="stroke:#000000;stroke-width:5.76"/>
	<text x="1236.39" y="2729.16" style="font-family:'Helvetica';font-size:99.99px;fill:#000000" text-anchor="middle">Male</text>
	<text x="3013.31" y="2729.16" style="font-family:'Helvetica';font-size:99.99px;fill:#000000" text-anchor="middle">Female</text>
	<text x="2124.91" y="216.10" style="font-family:'Helvetica';font-size:139.96px;fill:#1E2D53" text-anchor="middle">Income across Gender</text>
</svg>
