<?xml version="1.0" encoding="UTF-8" standalone="no"?>
<!-- This is a Stata 15.1 generated SVG file (http://www.stata.com) -->

<svg version="1.1" width="5.50in" height="4.00in" viewBox="0 0 3960 2880" xmlns="http://www.w3.org/2000/svg" xmlns:xlink="http://www.w3.org/1999/xlink">
	<desc>Stata Graph - Graph</desc>
	<rect x="0" y="0" width="3960" height="2880" style="fill:#EAF2F3;stroke:none"/>
	<rect x="0.00" y="0.00" width="3959.88" height="2880.00" style="fill:#EAF2F3"/>
	<rect x="2.88" y="2.88" width="3954.12" height="2874.24" style="fill:none;stroke:#EAF2F3;stroke-width:5.76"/>
	<rect x="390.80" y="100.86" width="3468.22" height="2388.33" style="fill:#FFFFFF"/>
	<rect x="393.68" y="103.74" width="3462.46" height="2382.57" style="fill:none;stroke:#FFFFFF;stroke-width:5.76"/>
	<line x1="390.80" y1="2425.82" x2="3859.02" y2="2425.82" style="stroke:#EAF2F3;stroke-width:8.64"/>
	<line x1="390.80" y1="1860.39" x2="3859.02" y2="1860.39" style="stroke:#EAF2F3;stroke-width:8.64"/>
	<line x1="390.80" y1="1294.96" x2="3859.02" y2="1294.96" style="stroke:#EAF2F3;stroke-width:8.64"/>
	<line x1="390.80" y1="729.53" x2="3859.02" y2="729.53" style="stroke:#EAF2F3;stroke-width:8.64"/>
	<line x1="390.80" y1="164.22" x2="3859.02" y2="164.22" style="stroke:#EAF2F3;stroke-width:8.64"/>
	<line x1="1306.18" y1="2489.19" x2="1306.18" y2="100.86" style="stroke:#C10534;stroke-width:8.64"/>
	<line x1="2943.64" y1="2489.19" x2="2943.64" y2="100.86" style="stroke:#C10534;stroke-width:8.64"/>
	<line x1="2124.91" y1="2489.19" x2="2124.91" y2="2431.64" style="stroke:#C10534;stroke-width:8.64"/>
	<line x1="2124.91" y1="2402.81" x2="2124.91" y2="2345.26" style="stroke:#C10534;stroke-width:8.64"/>
	<line x1="2124.91" y1="2316.42" x2="2124.91" y2="2258.76" style="stroke:#C10534;stroke-width:8.64"/>
	<line x1="2124.91" y1="2230.04" x2="2124.91" y2="2172.38" style="stroke:#C10534;stroke-width:8.64"/>
	<line x1="2124.91" y1="2143.54" x2="2124.91" y2="2086.00" style="stroke:#C10534;stroke-width:8.64"/>
	<line x1="2124.91" y1="2057.16" x2="2124.91" y2="1999.61" style="stroke:#C10534;stroke-width:8.64"/>
	<line x1="2124.91" y1="1970.78" x2="2124.91" y2="1913.23" style="stroke:#C10534;stroke-width:8.64"/>
	<line x1="2124.91" y1="1884.40" x2="2124.91" y2="1826.85" style="stroke:#C10534;stroke-width:8.64"/>
	<line x1="2124.91" y1="1798.02" x2="2124.91" y2="1740.47" style="stroke:#C10534;stroke-width:8.64"/>
	<line x1="2124.91" y1="1711.64" x2="2124.91" y2="1654.09" style="stroke:#C10534;stroke-width:8.64"/>
	<line x1="2124.91" y1="1625.26" x2="2124.91" y2="1567.71" style="stroke:#C10534;stroke-width:8.64"/>
	<line x1="2124.91" y1="1538.88" x2="2124.91" y2="1481.33" style="stroke:#C10534;stroke-width:8.64"/>
	<line x1="2124.91" y1="1452.50" x2="2124.91" y2="1394.95" style="stroke:#C10534;stroke-width:8.64"/>
	<line x1="2124.91" y1="1366.12" x2="2124.91" y2="1308.45" style="stroke:#C10534;stroke-width:8.64"/>
	<line x1="2124.91" y1="1279.74" x2="2124.91" y2="1222.07" style="stroke:#C10534;stroke-width:8.64"/>
	<line x1="2124.91" y1="1193.23" x2="2124.91" y2="1135.69" style="stroke:#C10534;stroke-width:8.64"/>
	<line x1="2124.91" y1="1106.85" x2="2124.91" y2="1049.31" style="stroke:#C10534;stroke-width:8.64"/>
	<line x1="2124.91" y1="1020.47" x2="2124.91" y2="962.93" style="stroke:#C10534;stroke-width:8.64"/>
	<line x1="2124.91" y1="934.09" x2="2124.91" y2="876.55" style="stroke:#C10534;stroke-width:8.64"/>
	<line x1="2124.91" y1="847.71" x2="2124.91" y2="790.17" style="stroke:#C10534;stroke-width:8.64"/>
	<line x1="2124.91" y1="761.33" x2="2124.91" y2="703.79" style="stroke:#C10534;stroke-width:8.64"/>
	<line x1="2124.91" y1="674.95" x2="2124.91" y2="617.41" style="stroke:#C10534;stroke-width:8.64"/>
	<line x1="2124.91" y1="588.57" x2="2124.91" y2="531.03" style="stroke:#C10534;stroke-width:8.64"/>
	<line x1="2124.91" y1="502.19" x2="2124.91" y2="444.52" style="stroke:#C10534;stroke-width:8.64"/>
	<line x1="2124.91" y1="415.81" x2="2124.91" y2="358.14" style="stroke:#C10534;stroke-width:8.64"/>
	<line x1="2124.91" y1="329.43" x2="2124.91" y2="271.76" style="stroke:#C10534;stroke-width:8.64"/>
	<line x1="2124.91" y1="242.93" x2="2124.91" y2="185.38" style="stroke:#C10534;stroke-width:8.64"/>
	<line x1="2124.91" y1="156.55" x2="2124.91" y2="100.86" style="stroke:#C10534;stroke-width:8.64"/>
	<line x1="454.04" y1="2425.20" x2="465.30" y2="2425.08" stroke-linecap="round" style="stroke:#1A476F;stroke-width:8.64"/>
	<line x1="465.30" y1="2425.08" x2="476.44" y2="2424.96" stroke-linecap="round" style="stroke:#1A476F;stroke-width:8.64"/>
	<line x1="476.44" y1="2424.96" x2="487.57" y2="2424.83" stroke-linecap="round" style="stroke:#1A476F;stroke-width:8.64"/>
	<line x1="487.57" y1="2424.83" x2="498.84" y2="2424.71" stroke-linecap="round" style="stroke:#1A476F;stroke-width:8.64"/>
	<line x1="498.84" y1="2424.71" x2="509.97" y2="2424.59" stroke-linecap="round" style="stroke:#1A476F;stroke-width:8.64"/>
	<line x1="509.97" y1="2424.59" x2="521.11" y2="2424.46" stroke-linecap="round" style="stroke:#1A476F;stroke-width:8.64"/>
	<line x1="521.11" y1="2424.46" x2="532.25" y2="2424.34" stroke-linecap="round" style="stroke:#1A476F;stroke-width:8.64"/>
	<line x1="532.25" y1="2424.34" x2="543.51" y2="2424.21" stroke-linecap="round" style="stroke:#1A476F;stroke-width:8.64"/>
	<line x1="543.51" y1="2424.21" x2="554.65" y2="2423.97" stroke-linecap="round" style="stroke:#1A476F;stroke-width:8.64"/>
	<line x1="554.65" y1="2423.97" x2="565.78" y2="2423.72" stroke-linecap="round" style="stroke:#1A476F;stroke-width:8.64"/>
	<line x1="565.78" y1="2423.72" x2="577.05" y2="2423.60" stroke-linecap="round" style="stroke:#1A476F;stroke-width:8.64"/>
	<line x1="577.05" y1="2423.60" x2="588.18" y2="2423.35" stroke-linecap="round" style="stroke:#1A476F;stroke-width:8.64"/>
	<line x1="588.18" y1="2423.35" x2="599.32" y2="2423.10" stroke-linecap="round" style="stroke:#1A476F;stroke-width:8.64"/>
	<line x1="599.32" y1="2423.10" x2="610.58" y2="2422.73" stroke-linecap="round" style="stroke:#1A476F;stroke-width:8.64"/>
	<line x1="610.58" y1="2422.73" x2="621.72" y2="2422.48" stroke-linecap="round" style="stroke:#1A476F;stroke-width:8.64"/>
	<line x1="621.72" y1="2422.48" x2="632.86" y2="2422.11" stroke-linecap="round" style="stroke:#1A476F;stroke-width:8.64"/>
	<line x1="632.86" y1="2422.11" x2="644.12" y2="2421.74" stroke-linecap="round" style="stroke:#1A476F;stroke-width:8.64"/>
	<line x1="644.12" y1="2421.74" x2="655.26" y2="2421.24" stroke-linecap="round" style="stroke:#1A476F;stroke-width:8.64"/>
	<line x1="655.26" y1="2421.24" x2="666.39" y2="2420.87" stroke-linecap="round" style="stroke:#1A476F;stroke-width:8.64"/>
	<line x1="666.39" y1="2420.87" x2="677.65" y2="2420.38" stroke-linecap="round" style="stroke:#1A476F;stroke-width:8.64"/>
	<line x1="677.65" y1="2420.38" x2="688.79" y2="2419.76" stroke-linecap="round" style="stroke:#1A476F;stroke-width:8.64"/>
	<line x1="688.79" y1="2419.76" x2="699.93" y2="2419.26" stroke-linecap="round" style="stroke:#1A476F;stroke-width:8.64"/>
	<line x1="699.93" y1="2419.26" x2="711.07" y2="2418.52" stroke-linecap="round" style="stroke:#1A476F;stroke-width:8.64"/>
	<line x1="711.07" y1="2418.52" x2="722.33" y2="2417.90" stroke-linecap="round" style="stroke:#1A476F;stroke-width:8.64"/>
	<line x1="722.33" y1="2417.90" x2="733.47" y2="2417.16" stroke-linecap="round" style="stroke:#1A476F;stroke-width:8.64"/>
	<line x1="733.47" y1="2417.16" x2="744.60" y2="2416.29" stroke-linecap="round" style="stroke:#1A476F;stroke-width:8.64"/>
	<line x1="744.60" y1="2416.29" x2="755.87" y2="2415.43" stroke-linecap="round" style="stroke:#1A476F;stroke-width:8.64"/>
	<line x1="755.87" y1="2415.43" x2="767.00" y2="2414.44" stroke-linecap="round" style="stroke:#1A476F;stroke-width:8.64"/>
	<line x1="767.00" y1="2414.44" x2="778.14" y2="2413.45" stroke-linecap="round" style="stroke:#1A476F;stroke-width:8.64"/>
	<line x1="778.14" y1="2413.45" x2="789.40" y2="2412.33" stroke-linecap="round" style="stroke:#1A476F;stroke-width:8.64"/>
	<line x1="789.40" y1="2412.33" x2="800.54" y2="2411.10" stroke-linecap="round" style="stroke:#1A476F;stroke-width:8.64"/>
	<line x1="800.54" y1="2411.10" x2="811.68" y2="2409.86" stroke-linecap="round" style="stroke:#1A476F;stroke-width:8.64"/>
	<line x1="811.68" y1="2409.86" x2="822.94" y2="2408.37" stroke-linecap="round" style="stroke:#1A476F;stroke-width:8.64"/>
	<line x1="822.94" y1="2408.37" x2="834.08" y2="2406.89" stroke-linecap="round" style="stroke:#1A476F;stroke-width:8.64"/>
	<line x1="834.08" y1="2406.89" x2="845.21" y2="2405.28" stroke-linecap="round" style="stroke:#1A476F;stroke-width:8.64"/>
	<line x1="845.21" y1="2405.28" x2="856.35" y2="2403.42" stroke-linecap="round" style="stroke:#1A476F;stroke-width:8.64"/>
	<line x1="856.35" y1="2403.42" x2="867.61" y2="2401.57" stroke-linecap="round" style="stroke:#1A476F;stroke-width:8.64"/>
	<line x1="867.61" y1="2401.57" x2="878.75" y2="2399.59" stroke-linecap="round" style="stroke:#1A476F;stroke-width:8.64"/>
	<line x1="878.75" y1="2399.59" x2="889.89" y2="2397.36" stroke-linecap="round" style="stroke:#1A476F;stroke-width:8.64"/>
	<line x1="889.89" y1="2397.36" x2="901.15" y2="2395.01" stroke-linecap="round" style="stroke:#1A476F;stroke-width:8.64"/>
	<line x1="901.15" y1="2395.01" x2="912.28" y2="2392.53" stroke-linecap="round" style="stroke:#1A476F;stroke-width:8.64"/>
	<line x1="912.28" y1="2392.53" x2="923.42" y2="2389.81" stroke-linecap="round" style="stroke:#1A476F;stroke-width:8.64"/>
	<line x1="923.42" y1="2389.81" x2="934.68" y2="2386.96" stroke-linecap="round" style="stroke:#1A476F;stroke-width:8.64"/>
	<line x1="934.68" y1="2386.96" x2="945.82" y2="2383.87" stroke-linecap="round" style="stroke:#1A476F;stroke-width:8.64"/>
	<line x1="945.82" y1="2383.87" x2="956.96" y2="2380.65" stroke-linecap="round" style="stroke:#1A476F;stroke-width:8.64"/>
	<line x1="956.96" y1="2380.65" x2="968.22" y2="2377.19" stroke-linecap="round" style="stroke:#1A476F;stroke-width:8.64"/>
	<line x1="968.22" y1="2377.19" x2="979.36" y2="2373.48" stroke-linecap="round" style="stroke:#1A476F;stroke-width:8.64"/>
	<line x1="979.36" y1="2373.48" x2="990.50" y2="2369.39" stroke-linecap="round" style="stroke:#1A476F;stroke-width:8.64"/>
	<line x1="990.50" y1="2369.39" x2="1001.63" y2="2365.18" stroke-linecap="round" style="stroke:#1A476F;stroke-width:8.64"/>
	<line x1="1001.63" y1="2365.18" x2="1012.89" y2="2360.73" stroke-linecap="round" style="stroke:#1A476F;stroke-width:8.64"/>
	<line x1="1012.89" y1="2360.73" x2="1024.03" y2="2355.90" stroke-linecap="round" style="stroke:#1A476F;stroke-width:8.64"/>
	<line x1="1024.03" y1="2355.90" x2="1035.17" y2="2350.83" stroke-linecap="round" style="stroke:#1A476F;stroke-width:8.64"/>
	<line x1="1035.17" y1="2350.83" x2="1046.43" y2="2345.38" stroke-linecap="round" style="stroke:#1A476F;stroke-width:8.64"/>
	<line x1="1046.43" y1="2345.38" x2="1057.57" y2="2339.69" stroke-linecap="round" style="stroke:#1A476F;stroke-width:8.64"/>
	<line x1="1057.57" y1="2339.69" x2="1068.70" y2="2333.63" stroke-linecap="round" style="stroke:#1A476F;stroke-width:8.64"/>
	<line x1="1068.70" y1="2333.63" x2="1079.97" y2="2327.19" stroke-linecap="round" style="stroke:#1A476F;stroke-width:8.64"/>
	<line x1="1079.97" y1="2327.19" x2="1091.10" y2="2320.39" stroke-linecap="round" style="stroke:#1A476F;stroke-width:8.64"/>
	<line x1="1091.10" y1="2320.39" x2="1102.24" y2="2313.21" stroke-linecap="round" style="stroke:#1A476F;stroke-width:8.64"/>
	<line x1="1102.24" y1="2313.21" x2="1113.50" y2="2305.66" stroke-linecap="round" style="stroke:#1A476F;stroke-width:8.64"/>
	<line x1="1113.50" y1="2305.66" x2="1124.64" y2="2297.61" stroke-linecap="round" style="stroke:#1A476F;stroke-width:8.64"/>
	<line x1="1124.64" y1="2297.61" x2="1135.78" y2="2289.20" stroke-linecap="round" style="stroke:#1A476F;stroke-width:8.64"/>
	<line x1="1135.78" y1="2289.20" x2="1147.04" y2="2280.29" stroke-linecap="round" style="stroke:#1A476F;stroke-width:8.64"/>
	<line x1="1147.04" y1="2280.29" x2="1158.18" y2="2271.01" stroke-linecap="round" style="stroke:#1A476F;stroke-width:8.64"/>
	<line x1="1158.18" y1="2271.01" x2="1169.31" y2="2261.11" stroke-linecap="round" style="stroke:#1A476F;stroke-width:8.64"/>
	<line x1="1169.31" y1="2261.11" x2="1180.45" y2="2250.84" stroke-linecap="round" style="stroke:#1A476F;stroke-width:8.64"/>
	<line x1="1180.45" y1="2250.84" x2="1191.71" y2="2239.94" stroke-linecap="round" style="stroke:#1A476F;stroke-width:8.64"/>
	<line x1="1191.71" y1="2239.94" x2="1202.85" y2="2228.56" stroke-linecap="round" style="stroke:#1A476F;stroke-width:8.64"/>
	<line x1="1202.85" y1="2228.56" x2="1213.99" y2="2216.68" stroke-linecap="round" style="stroke:#1A476F;stroke-width:8.64"/>
	<line x1="1213.99" y1="2216.68" x2="1225.25" y2="2204.18" stroke-linecap="round" style="stroke:#1A476F;stroke-width:8.64"/>
	<line x1="1225.25" y1="2204.18" x2="1236.39" y2="2191.06" stroke-linecap="round" style="stroke:#1A476F;stroke-width:8.64"/>
	<line x1="1236.39" y1="2191.06" x2="1247.52" y2="2177.45" stroke-linecap="round" style="stroke:#1A476F;stroke-width:8.64"/>
	<line x1="1247.52" y1="2177.45" x2="1258.79" y2="2163.09" stroke-linecap="round" style="stroke:#1A476F;stroke-width:8.64"/>
	<line x1="1258.79" y1="2163.09" x2="1269.92" y2="2148.24" stroke-linecap="round" style="stroke:#1A476F;stroke-width:8.64"/>
	<line x1="1269.92" y1="2148.24" x2="1281.06" y2="2132.65" stroke-linecap="round" style="stroke:#1A476F;stroke-width:8.64"/>
	<line x1="1281.06" y1="2132.65" x2="1292.32" y2="2116.56" stroke-linecap="round" style="stroke:#1A476F;stroke-width:8.64"/>
	<line x1="1292.32" y1="2116.56" x2="1303.46" y2="2099.73" stroke-linecap="round" style="stroke:#1A476F;stroke-width:8.64"/>
	<line x1="1303.46" y1="2099.73" x2="1314.60" y2="2082.16" stroke-linecap="round" style="stroke:#1A476F;stroke-width:8.64"/>
	<line x1="1314.60" y1="2082.16" x2="1325.73" y2="2063.97" stroke-linecap="round" style="stroke:#1A476F;stroke-width:8.64"/>
	<line x1="1325.73" y1="2063.97" x2="1336.99" y2="2045.16" stroke-linecap="round" style="stroke:#1A476F;stroke-width:8.64"/>
	<line x1="1336.99" y1="2045.16" x2="1348.13" y2="2025.60" stroke-linecap="round" style="stroke:#1A476F;stroke-width:8.64"/>
	<line x1="1348.13" y1="2025.60" x2="1359.27" y2="2005.31" stroke-linecap="round" style="stroke:#1A476F;stroke-width:8.64"/>
	<line x1="1359.27" y1="2005.31" x2="1370.53" y2="1984.27" stroke-linecap="round" style="stroke:#1A476F;stroke-width:8.64"/>
	<line x1="1370.53" y1="1984.27" x2="1381.67" y2="1962.61" stroke-linecap="round" style="stroke:#1A476F;stroke-width:8.64"/>
	<line x1="1381.67" y1="1962.61" x2="1392.81" y2="1940.21" stroke-linecap="round" style="stroke:#1A476F;stroke-width:8.64"/>
	<line x1="1392.81" y1="1940.21" x2="1404.07" y2="1917.07" stroke-linecap="round" style="stroke:#1A476F;stroke-width:8.64"/>
	<line x1="1404.07" y1="1917.07" x2="1415.20" y2="1893.19" stroke-linecap="round" style="stroke:#1A476F;stroke-width:8.64"/>
	<line x1="1415.20" y1="1893.19" x2="1426.34" y2="1868.68" stroke-linecap="round" style="stroke:#1A476F;stroke-width:8.64"/>
	<line x1="1426.34" y1="1868.68" x2="1437.60" y2="1843.31" stroke-linecap="round" style="stroke:#1A476F;stroke-width:8.64"/>
	<line x1="1437.60" y1="1843.31" x2="1448.74" y2="1817.33" stroke-linecap="round" style="stroke:#1A476F;stroke-width:8.64"/>
	<line x1="1448.74" y1="1817.33" x2="1459.88" y2="1790.59" stroke-linecap="round" style="stroke:#1A476F;stroke-width:8.64"/>
	<line x1="1459.88" y1="1790.59" x2="1471.14" y2="1763.25" stroke-linecap="round" style="stroke:#1A476F;stroke-width:8.64"/>
	<line x1="1471.14" y1="1763.25" x2="1482.28" y2="1735.15" stroke-linecap="round" style="stroke:#1A476F;stroke-width:8.64"/>
	<line x1="1482.28" y1="1735.15" x2="1493.41" y2="1706.44" stroke-linecap="round" style="stroke:#1A476F;stroke-width:8.64"/>
	<line x1="1493.41" y1="1706.44" x2="1504.55" y2="1676.99" stroke-linecap="round" style="stroke:#1A476F;stroke-width:8.64"/>
	<line x1="1504.55" y1="1676.99" x2="1515.81" y2="1646.92" stroke-linecap="round" style="stroke:#1A476F;stroke-width:8.64"/>
	<line x1="1515.81" y1="1646.92" x2="1526.95" y2="1616.23" stroke-linecap="round" style="stroke:#1A476F;stroke-width:8.64"/>
	<line x1="1526.95" y1="1616.23" x2="1538.09" y2="1584.92" stroke-linecap="round" style="stroke:#1A476F;stroke-width:8.64"/>
	<line x1="1538.09" y1="1584.92" x2="1549.35" y2="1552.99" stroke-linecap="round" style="stroke:#1A476F;stroke-width:8.64"/>
	<line x1="1549.35" y1="1552.99" x2="1560.49" y2="1520.44" stroke-linecap="round" style="stroke:#1A476F;stroke-width:8.64"/>
	<line x1="1560.49" y1="1520.44" x2="1571.62" y2="1487.52" stroke-linecap="round" style="stroke:#1A476F;stroke-width:8.64"/>
	<line x1="1571.62" y1="1487.52" x2="1582.89" y2="1453.98" stroke-linecap="round" style="stroke:#1A476F;stroke-width:8.64"/>
	<line x1="1582.89" y1="1453.98" x2="1594.02" y2="1420.08" stroke-linecap="round" style="stroke:#1A476F;stroke-width:8.64"/>
	<line x1="1594.02" y1="1420.08" x2="1605.16" y2="1385.55" stroke-linecap="round" style="stroke:#1A476F;stroke-width:8.64"/>
	<line x1="1605.16" y1="1385.55" x2="1616.42" y2="1350.77" stroke-linecap="round" style="stroke:#1A476F;stroke-width:8.64"/>
	<line x1="1616.42" y1="1350.77" x2="1627.56" y2="1315.63" stroke-linecap="round" style="stroke:#1A476F;stroke-width:8.64"/>
	<line x1="1627.56" y1="1315.63" x2="1638.70" y2="1280.11" stroke-linecap="round" style="stroke:#1A476F;stroke-width:8.64"/>
	<line x1="1638.70" y1="1280.11" x2="1649.84" y2="1244.22" stroke-linecap="round" style="stroke:#1A476F;stroke-width:8.64"/>
	<line x1="1649.84" y1="1244.22" x2="1661.10" y2="1208.21" stroke-linecap="round" style="stroke:#1A476F;stroke-width:8.64"/>
	<line x1="1661.10" y1="1208.21" x2="1672.23" y2="1171.95" stroke-linecap="round" style="stroke:#1A476F;stroke-width:8.64"/>
	<line x1="1672.23" y1="1171.95" x2="1683.37" y2="1135.44" stroke-linecap="round" style="stroke:#1A476F;stroke-width:8.64"/>
	<line x1="1683.37" y1="1135.44" x2="1694.63" y2="1098.93" stroke-linecap="round" style="stroke:#1A476F;stroke-width:8.64"/>
	<line x1="1694.63" y1="1098.93" x2="1705.77" y2="1062.30" stroke-linecap="round" style="stroke:#1A476F;stroke-width:8.64"/>
	<line x1="1705.77" y1="1062.30" x2="1716.91" y2="1025.67" stroke-linecap="round" style="stroke:#1A476F;stroke-width:8.64"/>
	<line x1="1716.91" y1="1025.67" x2="1728.17" y2="989.16" stroke-linecap="round" style="stroke:#1A476F;stroke-width:8.64"/>
	<line x1="1728.17" y1="989.16" x2="1739.31" y2="952.78" stroke-linecap="round" style="stroke:#1A476F;stroke-width:8.64"/>
	<line x1="1739.31" y1="952.78" x2="1750.44" y2="916.40" stroke-linecap="round" style="stroke:#1A476F;stroke-width:8.64"/>
	<line x1="1750.44" y1="916.40" x2="1761.70" y2="880.39" stroke-linecap="round" style="stroke:#1A476F;stroke-width:8.64"/>
	<line x1="1761.70" y1="880.39" x2="1772.84" y2="844.50" stroke-linecap="round" style="stroke:#1A476F;stroke-width:8.64"/>
	<line x1="1772.84" y1="844.50" x2="1783.98" y2="808.98" stroke-linecap="round" style="stroke:#1A476F;stroke-width:8.64"/>
	<line x1="1783.98" y1="808.98" x2="1795.24" y2="773.96" stroke-linecap="round" style="stroke:#1A476F;stroke-width:8.64"/>
	<line x1="1795.24" y1="773.96" x2="1806.38" y2="739.31" stroke-linecap="round" style="stroke:#1A476F;stroke-width:8.64"/>
	<line x1="1806.38" y1="739.31" x2="1817.52" y2="705.15" stroke-linecap="round" style="stroke:#1A476F;stroke-width:8.64"/>
	<line x1="1817.52" y1="705.15" x2="1828.65" y2="671.61" stroke-linecap="round" style="stroke:#1A476F;stroke-width:8.64"/>
	<line x1="1828.65" y1="671.61" x2="1839.91" y2="638.57" stroke-linecap="round" style="stroke:#1A476F;stroke-width:8.64"/>
	<line x1="1839.91" y1="638.57" x2="1851.05" y2="606.27" stroke-linecap="round" style="stroke:#1A476F;stroke-width:8.64"/>
	<line x1="1851.05" y1="606.27" x2="1862.19" y2="574.84" stroke-linecap="round" style="stroke:#1A476F;stroke-width:8.64"/>
	<line x1="1862.19" y1="574.84" x2="1873.45" y2="544.02" stroke-linecap="round" style="stroke:#1A476F;stroke-width:8.64"/>
	<line x1="1873.45" y1="544.02" x2="1884.59" y2="514.20" stroke-linecap="round" style="stroke:#1A476F;stroke-width:8.64"/>
	<line x1="1884.59" y1="514.20" x2="1895.73" y2="485.24" stroke-linecap="round" style="stroke:#1A476F;stroke-width:8.64"/>
	<line x1="1895.73" y1="485.24" x2="1906.99" y2="457.27" stroke-linecap="round" style="stroke:#1A476F;stroke-width:8.64"/>
	<line x1="1906.99" y1="457.27" x2="1918.12" y2="430.29" stroke-linecap="round" style="stroke:#1A476F;stroke-width:8.64"/>
	<line x1="1918.12" y1="430.29" x2="1929.26" y2="404.43" stroke-linecap="round" style="stroke:#1A476F;stroke-width:8.64"/>
	<line x1="1929.26" y1="404.43" x2="1940.52" y2="379.68" stroke-linecap="round" style="stroke:#1A476F;stroke-width:8.64"/>
	<line x1="1940.52" y1="379.68" x2="1951.66" y2="356.04" stroke-linecap="round" style="stroke:#1A476F;stroke-width:8.64"/>
	<line x1="1951.66" y1="356.04" x2="1962.80" y2="333.76" stroke-linecap="round" style="stroke:#1A476F;stroke-width:8.64"/>
	<line x1="1962.80" y1="333.76" x2="1973.94" y2="312.60" stroke-linecap="round" style="stroke:#1A476F;stroke-width:8.64"/>
	<line x1="1973.94" y1="312.60" x2="1985.20" y2="292.93" stroke-linecap="round" style="stroke:#1A476F;stroke-width:8.64"/>
	<line x1="1985.20" y1="292.93" x2="1996.34" y2="274.49" stroke-linecap="round" style="stroke:#1A476F;stroke-width:8.64"/>
	<line x1="1996.34" y1="274.49" x2="2007.47" y2="257.53" stroke-linecap="round" style="stroke:#1A476F;stroke-width:8.64"/>
	<line x1="2007.47" y1="257.53" x2="2018.73" y2="241.94" stroke-linecap="round" style="stroke:#1A476F;stroke-width:8.64"/>
	<line x1="2018.73" y1="241.94" x2="2029.87" y2="227.83" stroke-linecap="round" style="stroke:#1A476F;stroke-width:8.64"/>
	<line x1="2029.87" y1="227.83" x2="2041.01" y2="215.21" stroke-linecap="round" style="stroke:#1A476F;stroke-width:8.64"/>
	<line x1="2041.01" y1="215.21" x2="2052.27" y2="204.07" stroke-linecap="round" style="stroke:#1A476F;stroke-width:8.64"/>
	<line x1="2052.27" y1="204.07" x2="2063.41" y2="194.54" stroke-linecap="round" style="stroke:#1A476F;stroke-width:8.64"/>
	<line x1="2063.41" y1="194.54" x2="2074.55" y2="186.50" stroke-linecap="round" style="stroke:#1A476F;stroke-width:8.64"/>
	<line x1="2074.55" y1="186.50" x2="2085.81" y2="180.06" stroke-linecap="round" style="stroke:#1A476F;stroke-width:8.64"/>
	<line x1="2085.81" y1="180.06" x2="2096.94" y2="175.24" stroke-linecap="round" style="stroke:#1A476F;stroke-width:8.64"/>
	<line x1="2096.94" y1="175.24" x2="2108.08" y2="172.02" stroke-linecap="round" style="stroke:#1A476F;stroke-width:8.64"/>
	<line x1="2108.08" y1="172.02" x2="2119.22" y2="170.41" stroke-linecap="round" style="stroke:#1A476F;stroke-width:8.64"/>
	<line x1="2119.22" y1="170.41" x2="2130.48" y2="170.41" stroke-linecap="round" style="stroke:#1A476F;stroke-width:8.64"/>
	<line x1="2130.48" y1="170.41" x2="2141.62" y2="172.02" stroke-linecap="round" style="stroke:#1A476F;stroke-width:8.64"/>
	<line x1="2141.62" y1="172.02" x2="2152.76" y2="175.24" stroke-linecap="round" style="stroke:#1A476F;stroke-width:8.64"/>
	<line x1="2152.76" y1="175.24" x2="2164.02" y2="180.06" stroke-linecap="round" style="stroke:#1A476F;stroke-width:8.64"/>
	<line x1="2164.02" y1="180.06" x2="2175.15" y2="186.50" stroke-linecap="round" style="stroke:#1A476F;stroke-width:8.64"/>
	<line x1="2175.15" y1="186.50" x2="2186.29" y2="194.54" stroke-linecap="round" style="stroke:#1A476F;stroke-width:8.64"/>
	<line x1="2186.29" y1="194.54" x2="2197.55" y2="204.07" stroke-linecap="round" style="stroke:#1A476F;stroke-width:8.64"/>
	<line x1="2197.55" y1="204.07" x2="2208.69" y2="215.21" stroke-linecap="round" style="stroke:#1A476F;stroke-width:8.64"/>
	<line x1="2208.69" y1="215.21" x2="2219.83" y2="227.83" stroke-linecap="round" style="stroke:#1A476F;stroke-width:8.64"/>
	<line x1="2219.83" y1="227.83" x2="2231.09" y2="241.94" stroke-linecap="round" style="stroke:#1A476F;stroke-width:8.64"/>
	<line x1="2231.09" y1="241.94" x2="2242.23" y2="257.53" stroke-linecap="round" style="stroke:#1A476F;stroke-width:8.64"/>
	<line x1="2242.23" y1="257.53" x2="2253.36" y2="274.49" stroke-linecap="round" style="stroke:#1A476F;stroke-width:8.64"/>
	<line x1="2253.36" y1="274.49" x2="2264.62" y2="292.93" stroke-linecap="round" style="stroke:#1A476F;stroke-width:8.64"/>
	<line x1="2264.62" y1="292.93" x2="2275.76" y2="312.60" stroke-linecap="round" style="stroke:#1A476F;stroke-width:8.64"/>
	<line x1="2275.76" y1="312.60" x2="2286.90" y2="333.76" stroke-linecap="round" style="stroke:#1A476F;stroke-width:8.64"/>
	<line x1="2286.90" y1="333.76" x2="2298.04" y2="356.04" stroke-linecap="round" style="stroke:#1A476F;stroke-width:8.64"/>
	<line x1="2298.04" y1="356.04" x2="2309.30" y2="379.68" stroke-linecap="round" style="stroke:#1A476F;stroke-width:8.64"/>
	<line x1="2309.30" y1="379.68" x2="2320.44" y2="404.43" stroke-linecap="round" style="stroke:#1A476F;stroke-width:8.64"/>
	<line x1="2320.44" y1="404.43" x2="2331.57" y2="430.29" stroke-linecap="round" style="stroke:#1A476F;stroke-width:8.64"/>
	<line x1="2331.57" y1="430.29" x2="2342.84" y2="457.27" stroke-linecap="round" style="stroke:#1A476F;stroke-width:8.64"/>
	<line x1="2342.84" y1="457.27" x2="2353.97" y2="485.24" stroke-linecap="round" style="stroke:#1A476F;stroke-width:8.64"/>
	<line x1="2353.97" y1="485.24" x2="2365.11" y2="514.20" stroke-linecap="round" style="stroke:#1A476F;stroke-width:8.64"/>
	<line x1="2365.11" y1="514.20" x2="2376.37" y2="544.02" stroke-linecap="round" style="stroke:#1A476F;stroke-width:8.64"/>
	<line x1="2376.37" y1="544.02" x2="2387.51" y2="574.84" stroke-linecap="round" style="stroke:#1A476F;stroke-width:8.64"/>
	<line x1="2387.51" y1="574.84" x2="2398.65" y2="606.27" stroke-linecap="round" style="stroke:#1A476F;stroke-width:8.64"/>
	<line x1="2398.65" y1="606.27" x2="2409.91" y2="638.57" stroke-linecap="round" style="stroke:#1A476F;stroke-width:8.64"/>
	<line x1="2409.91" y1="638.57" x2="2421.05" y2="671.61" stroke-linecap="round" style="stroke:#1A476F;stroke-width:8.64"/>
	<line x1="2421.05" y1="671.61" x2="2432.18" y2="705.15" stroke-linecap="round" style="stroke:#1A476F;stroke-width:8.64"/>
	<line x1="2432.18" y1="705.15" x2="2443.32" y2="739.31" stroke-linecap="round" style="stroke:#1A476F;stroke-width:8.64"/>
	<line x1="2443.32" y1="739.31" x2="2454.58" y2="773.96" stroke-linecap="round" style="stroke:#1A476F;stroke-width:8.64"/>
	<line x1="2454.58" y1="773.96" x2="2465.72" y2="808.98" stroke-linecap="round" style="stroke:#1A476F;stroke-width:8.64"/>
	<line x1="2465.72" y1="808.98" x2="2476.86" y2="844.50" stroke-linecap="round" style="stroke:#1A476F;stroke-width:8.64"/>
	<line x1="2476.86" y1="844.50" x2="2488.12" y2="880.39" stroke-linecap="round" style="stroke:#1A476F;stroke-width:8.64"/>
	<line x1="2488.12" y1="880.39" x2="2499.26" y2="916.40" stroke-linecap="round" style="stroke:#1A476F;stroke-width:8.64"/>
	<line x1="2499.26" y1="916.40" x2="2510.39" y2="952.78" stroke-linecap="round" style="stroke:#1A476F;stroke-width:8.64"/>
	<line x1="2510.39" y1="952.78" x2="2521.65" y2="989.16" stroke-linecap="round" style="stroke:#1A476F;stroke-width:8.64"/>
	<line x1="2521.65" y1="989.16" x2="2532.79" y2="1025.67" stroke-linecap="round" style="stroke:#1A476F;stroke-width:8.64"/>
	<line x1="2532.79" y1="1025.67" x2="2543.93" y2="1062.30" stroke-linecap="round" style="stroke:#1A476F;stroke-width:8.64"/>
	<line x1="2543.93" y1="1062.30" x2="2555.19" y2="1098.93" stroke-linecap="round" style="stroke:#1A476F;stroke-width:8.64"/>
	<line x1="2555.19" y1="1098.93" x2="2566.33" y2="1135.44" stroke-linecap="round" style="stroke:#1A476F;stroke-width:8.64"/>
	<line x1="2566.33" y1="1135.44" x2="2577.47" y2="1171.95" stroke-linecap="round" style="stroke:#1A476F;stroke-width:8.64"/>
	<line x1="2577.47" y1="1171.95" x2="2588.73" y2="1208.21" stroke-linecap="round" style="stroke:#1A476F;stroke-width:8.64"/>
	<line x1="2588.73" y1="1208.21" x2="2599.86" y2="1244.22" stroke-linecap="round" style="stroke:#1A476F;stroke-width:8.64"/>
	<line x1="2599.86" y1="1244.22" x2="2611.00" y2="1280.11" stroke-linecap="round" style="stroke:#1A476F;stroke-width:8.64"/>
	<line x1="2611.00" y1="1280.11" x2="2622.14" y2="1315.63" stroke-linecap="round" style="stroke:#1A476F;stroke-width:8.64"/>
	<line x1="2622.14" y1="1315.63" x2="2633.40" y2="1350.77" stroke-linecap="round" style="stroke:#1A476F;stroke-width:8.64"/>
	<line x1="2633.40" y1="1350.77" x2="2644.54" y2="1385.55" stroke-linecap="round" style="stroke:#1A476F;stroke-width:8.64"/>
	<line x1="2644.54" y1="1385.55" x2="2655.68" y2="1420.08" stroke-linecap="round" style="stroke:#1A476F;stroke-width:8.64"/>
	<line x1="2655.68" y1="1420.08" x2="2666.94" y2="1453.98" stroke-linecap="round" style="stroke:#1A476F;stroke-width:8.64"/>
	<line x1="2666.94" y1="1453.98" x2="2678.07" y2="1487.52" stroke-linecap="round" style="stroke:#1A476F;stroke-width:8.64"/>
	<line x1="2678.07" y1="1487.52" x2="2689.21" y2="1520.44" stroke-linecap="round" style="stroke:#1A476F;stroke-width:8.64"/>
	<line x1="2689.21" y1="1520.44" x2="2700.47" y2="1552.99" stroke-linecap="round" style="stroke:#1A476F;stroke-width:8.64"/>
	<line x1="2700.47" y1="1552.99" x2="2711.61" y2="1584.92" stroke-linecap="round" style="stroke:#1A476F;stroke-width:8.64"/>
	<line x1="2711.61" y1="1584.92" x2="2722.75" y2="1616.23" stroke-linecap="round" style="stroke:#1A476F;stroke-width:8.64"/>
	<line x1="2722.75" y1="1616.23" x2="2734.01" y2="1646.92" stroke-linecap="round" style="stroke:#1A476F;stroke-width:8.64"/>
	<line x1="2734.01" y1="1646.92" x2="2745.15" y2="1676.99" stroke-linecap="round" style="stroke:#1A476F;stroke-width:8.64"/>
	<line x1="2745.15" y1="1676.99" x2="2756.28" y2="1706.44" stroke-linecap="round" style="stroke:#1A476F;stroke-width:8.64"/>
	<line x1="2756.28" y1="1706.44" x2="2767.42" y2="1735.15" stroke-linecap="round" style="stroke:#1A476F;stroke-width:8.64"/>
	<line x1="2767.42" y1="1735.15" x2="2778.68" y2="1763.25" stroke-linecap="round" style="stroke:#1A476F;stroke-width:8.64"/>
	<line x1="2778.68" y1="1763.25" x2="2789.82" y2="1790.59" stroke-linecap="round" style="stroke:#1A476F;stroke-width:8.64"/>
	<line x1="2789.82" y1="1790.59" x2="2800.96" y2="1817.33" stroke-linecap="round" style="stroke:#1A476F;stroke-width:8.64"/>
	<line x1="2800.96" y1="1817.33" x2="2812.22" y2="1843.31" stroke-linecap="round" style="stroke:#1A476F;stroke-width:8.64"/>
	<line x1="2812.22" y1="1843.31" x2="2823.36" y2="1868.68" stroke-linecap="round" style="stroke:#1A476F;stroke-width:8.64"/>
	<line x1="2823.36" y1="1868.68" x2="2834.49" y2="1893.19" stroke-linecap="round" style="stroke:#1A476F;stroke-width:8.64"/>
	<line x1="2834.49" y1="1893.19" x2="2845.76" y2="1917.07" stroke-linecap="round" style="stroke:#1A476F;stroke-width:8.64"/>
	<line x1="2845.76" y1="1917.07" x2="2856.89" y2="1940.21" stroke-linecap="round" style="stroke:#1A476F;stroke-width:8.64"/>
	<line x1="2856.89" y1="1940.21" x2="2868.03" y2="1962.61" stroke-linecap="round" style="stroke:#1A476F;stroke-width:8.64"/>
	<line x1="2868.03" y1="1962.61" x2="2879.29" y2="1984.27" stroke-linecap="round" style="stroke:#1A476F;stroke-width:8.64"/>
	<line x1="2879.29" y1="1984.27" x2="2890.43" y2="2005.31" stroke-linecap="round" style="stroke:#1A476F;stroke-width:8.64"/>
	<line x1="2890.43" y1="2005.31" x2="2901.57" y2="2025.60" stroke-linecap="round" style="stroke:#1A476F;stroke-width:8.64"/>
	<line x1="2901.57" y1="2025.60" x2="2912.83" y2="2045.16" stroke-linecap="round" style="stroke:#1A476F;stroke-width:8.64"/>
	<line x1="2912.83" y1="2045.16" x2="2923.97" y2="2063.97" stroke-linecap="round" style="stroke:#1A476F;stroke-width:8.64"/>
	<line x1="2923.97" y1="2063.97" x2="2935.10" y2="2082.16" stroke-linecap="round" style="stroke:#1A476F;stroke-width:8.64"/>
	<line x1="2935.10" y1="2082.16" x2="2946.24" y2="2099.73" stroke-linecap="round" style="stroke:#1A476F;stroke-width:8.64"/>
	<line x1="2946.24" y1="2099.73" x2="2957.50" y2="2116.56" stroke-linecap="round" style="stroke:#1A476F;stroke-width:8.64"/>
	<line x1="2957.50" y1="2116.56" x2="2968.64" y2="2132.65" stroke-linecap="round" style="stroke:#1A476F;stroke-width:8.64"/>
	<line x1="2968.64" y1="2132.65" x2="2979.78" y2="2148.24" stroke-linecap="round" style="stroke:#1A476F;stroke-width:8.64"/>
	<line x1="2979.78" y1="2148.24" x2="2991.04" y2="2163.09" stroke-linecap="round" style="stroke:#1A476F;stroke-width:8.64"/>
	<line x1="2991.04" y1="2163.09" x2="3002.18" y2="2177.45" stroke-linecap="round" style="stroke:#1A476F;stroke-width:8.64"/>
	<line x1="3002.18" y1="2177.45" x2="3013.31" y2="2191.06" stroke-linecap="round" style="stroke:#1A476F;stroke-width:8.64"/>
	<line x1="3013.31" y1="2191.06" x2="3024.57" y2="2204.18" stroke-linecap="round" style="stroke:#1A476F;stroke-width:8.64"/>
	<line x1="3024.57" y1="2204.18" x2="3035.71" y2="2216.68" stroke-linecap="round" style="stroke:#1A476F;stroke-width:8.64"/>
	<line x1="3035.71" y1="2216.68" x2="3046.85" y2="2228.56" stroke-linecap="round" style="stroke:#1A476F;stroke-width:8.64"/>
	<line x1="3046.85" y1="2228.56" x2="3058.11" y2="2239.94" stroke-linecap="round" style="stroke:#1A476F;stroke-width:8.64"/>
	<line x1="3058.11" y1="2239.94" x2="3069.25" y2="2250.84" stroke-linecap="round" style="stroke:#1A476F;stroke-width:8.64"/>
	<line x1="3069.25" y1="2250.84" x2="3080.39" y2="2261.11" stroke-linecap="round" style="stroke:#1A476F;stroke-width:8.64"/>
	<line x1="3080.39" y1="2261.11" x2="3091.52" y2="2271.01" stroke-linecap="round" style="stroke:#1A476F;stroke-width:8.64"/>
	<line x1="3091.52" y1="2271.01" x2="3102.78" y2="2280.29" stroke-linecap="round" style="stroke:#1A476F;stroke-width:8.64"/>
	<line x1="3102.78" y1="2280.29" x2="3113.92" y2="2289.20" stroke-linecap="round" style="stroke:#1A476F;stroke-width:8.64"/>
	<line x1="3113.92" y1="2289.20" x2="3125.06" y2="2297.61" stroke-linecap="round" style="stroke:#1A476F;stroke-width:8.64"/>
	<line x1="3125.06" y1="2297.61" x2="3136.32" y2="2305.66" stroke-linecap="round" style="stroke:#1A476F;stroke-width:8.64"/>
	<line x1="3136.32" y1="2305.66" x2="3147.46" y2="2313.21" stroke-linecap="round" style="stroke:#1A476F;stroke-width:8.64"/>
	<line x1="3147.46" y1="2313.21" x2="3158.59" y2="2320.39" stroke-linecap="round" style="stroke:#1A476F;stroke-width:8.64"/>
	<line x1="3158.59" y1="2320.39" x2="3169.86" y2="2327.19" stroke-linecap="round" style="stroke:#1A476F;stroke-width:8.64"/>
	<line x1="3169.86" y1="2327.19" x2="3180.99" y2="2333.63" stroke-linecap="round" style="stroke:#1A476F;stroke-width:8.64"/>
	<line x1="3180.99" y1="2333.63" x2="3192.13" y2="2339.69" stroke-linecap="round" style="stroke:#1A476F;stroke-width:8.64"/>
	<line x1="3192.13" y1="2339.69" x2="3203.39" y2="2345.38" stroke-linecap="round" style="stroke:#1A476F;stroke-width:8.64"/>
	<line x1="3203.39" y1="2345.38" x2="3214.53" y2="2350.83" stroke-linecap="round" style="stroke:#1A476F;stroke-width:8.64"/>
	<line x1="3214.53" y1="2350.83" x2="3225.67" y2="2355.90" stroke-linecap="round" style="stroke:#1A476F;stroke-width:8.64"/>
	<line x1="3225.67" y1="2355.90" x2="3236.80" y2="2360.73" stroke-linecap="round" style="stroke:#1A476F;stroke-width:8.64"/>
	<line x1="3236.80" y1="2360.73" x2="3248.07" y2="2365.18" stroke-linecap="round" style="stroke:#1A476F;stroke-width:8.64"/>
	<line x1="3248.07" y1="2365.18" x2="3259.20" y2="2369.39" stroke-linecap="round" style="stroke:#1A476F;stroke-width:8.64"/>
	<line x1="3259.20" y1="2369.39" x2="3270.34" y2="2373.48" stroke-linecap="round" style="stroke:#1A476F;stroke-width:8.64"/>
	<line x1="3270.34" y1="2373.48" x2="3281.60" y2="2377.19" stroke-linecap="round" style="stroke:#1A476F;stroke-width:8.64"/>
	<line x1="3281.60" y1="2377.19" x2="3292.74" y2="2380.65" stroke-linecap="round" style="stroke:#1A476F;stroke-width:8.64"/>
	<line x1="3292.74" y1="2380.65" x2="3303.88" y2="2383.87" stroke-linecap="round" style="stroke:#1A476F;stroke-width:8.64"/>
	<line x1="3303.88" y1="2383.87" x2="3315.14" y2="2386.96" stroke-linecap="round" style="stroke:#1A476F;stroke-width:8.64"/>
	<line x1="3315.14" y1="2386.96" x2="3326.28" y2="2389.81" stroke-linecap="round" style="stroke:#1A476F;stroke-width:8.64"/>
	<line x1="3326.28" y1="2389.81" x2="3337.41" y2="2392.53" stroke-linecap="round" style="stroke:#1A476F;stroke-width:8.64"/>
	<line x1="3337.41" y1="2392.53" x2="3348.68" y2="2395.01" stroke-linecap="round" style="stroke:#1A476F;stroke-width:8.64"/>
	<line x1="3348.68" y1="2395.01" x2="3359.81" y2="2397.36" stroke-linecap="round" style="stroke:#1A476F;stroke-width:8.64"/>
	<line x1="3359.81" y1="2397.36" x2="3370.95" y2="2399.59" stroke-linecap="round" style="stroke:#1A476F;stroke-width:8.64"/>
	<line x1="3370.95" y1="2399.59" x2="3382.21" y2="2401.57" stroke-linecap="round" style="stroke:#1A476F;stroke-width:8.64"/>
	<line x1="3382.21" y1="2401.57" x2="3393.35" y2="2403.42" stroke-linecap="round" style="stroke:#1A476F;stroke-width:8.64"/>
	<line x1="3393.35" y1="2403.42" x2="3404.49" y2="2405.28" stroke-linecap="round" style="stroke:#1A476F;stroke-width:8.64"/>
	<line x1="3404.49" y1="2405.28" x2="3415.62" y2="2406.89" stroke-linecap="round" style="stroke:#1A476F;stroke-width:8.64"/>
	<line x1="3415.62" y1="2406.89" x2="3426.89" y2="2408.37" stroke-linecap="round" style="stroke:#1A476F;stroke-width:8.64"/>
	<line x1="3426.89" y1="2408.37" x2="3438.02" y2="2409.86" stroke-linecap="round" style="stroke:#1A476F;stroke-width:8.64"/>
	<line x1="3438.02" y1="2409.86" x2="3449.16" y2="2411.10" stroke-linecap="round" style="stroke:#1A476F;stroke-width:8.64"/>
	<line x1="3449.16" y1="2411.10" x2="3460.42" y2="2412.33" stroke-linecap="round" style="stroke:#1A476F;stroke-width:8.64"/>
	<line x1="3460.42" y1="2412.33" x2="3471.56" y2="2413.45" stroke-linecap="round" style="stroke:#1A476F;stroke-width:8.64"/>
	<line x1="3471.56" y1="2413.45" x2="3482.70" y2="2414.44" stroke-linecap="round" style="stroke:#1A476F;stroke-width:8.64"/>
	<line x1="3482.70" y1="2414.44" x2="3493.96" y2="2415.43" stroke-linecap="round" style="stroke:#1A476F;stroke-width:8.64"/>
	<line x1="3493.96" y1="2415.43" x2="3505.09" y2="2416.29" stroke-linecap="round" style="stroke:#1A476F;stroke-width:8.64"/>
	<line x1="3505.09" y1="2416.29" x2="3516.23" y2="2417.16" stroke-linecap="round" style="stroke:#1A476F;stroke-width:8.64"/>
	<line x1="3516.23" y1="2417.16" x2="3527.49" y2="2417.90" stroke-linecap="round" style="stroke:#1A476F;stroke-width:8.64"/>
	<line x1="3527.49" y1="2417.90" x2="3538.63" y2="2418.52" stroke-linecap="round" style="stroke:#1A476F;stroke-width:8.64"/>
	<line x1="3538.63" y1="2418.52" x2="3549.77" y2="2419.26" stroke-linecap="round" style="stroke:#1A476F;stroke-width:8.64"/>
	<line x1="3549.77" y1="2419.26" x2="3560.91" y2="2419.76" stroke-linecap="round" style="stroke:#1A476F;stroke-width:8.64"/>
	<line x1="3560.91" y1="2419.76" x2="3572.17" y2="2420.38" stroke-linecap="round" style="stroke:#1A476F;stroke-width:8.64"/>
	<line x1="3572.17" y1="2420.38" x2="3583.30" y2="2420.87" stroke-linecap="round" style="stroke:#1A476F;stroke-width:8.64"/>
	<line x1="3583.30" y1="2420.87" x2="3594.44" y2="2421.24" stroke-linecap="round" style="stroke:#1A476F;stroke-width:8.64"/>
	<line x1="3594.44" y1="2421.24" x2="3605.70" y2="2421.74" stroke-linecap="round" style="stroke:#1A476F;stroke-width:8.64"/>
	<line x1="3605.70" y1="2421.74" x2="3616.84" y2="2422.11" stroke-linecap="round" style="stroke:#1A476F;stroke-width:8.64"/>
	<line x1="3616.84" y1="2422.11" x2="3627.98" y2="2422.48" stroke-linecap="round" style="stroke:#1A476F;stroke-width:8.64"/>
	<line x1="3627.98" y1="2422.48" x2="3639.24" y2="2422.73" stroke-linecap="round" style="stroke:#1A476F;stroke-width:8.64"/>
	<line x1="3639.24" y1="2422.73" x2="3650.38" y2="2423.10" stroke-linecap="round" style="stroke:#1A476F;stroke-width:8.64"/>
	<line x1="3650.38" y1="2423.10" x2="3661.51" y2="2423.35" stroke-linecap="round" style="stroke:#1A476F;stroke-width:8.64"/>
	<line x1="3661.51" y1="2423.35" x2="3672.78" y2="2423.60" stroke-linecap="round" style="stroke:#1A476F;stroke-width:8.64"/>
	<line x1="3672.78" y1="2423.60" x2="3683.91" y2="2423.72" stroke-linecap="round" style="stroke:#1A476F;stroke-width:8.64"/>
	<line x1="3683.91" y1="2423.72" x2="3695.05" y2="2423.97" stroke-linecap="round" style="stroke:#1A476F;stroke-width:8.64"/>
	<line x1="3695.05" y1="2423.97" x2="3706.31" y2="2424.21" stroke-linecap="round" style="stroke:#1A476F;stroke-width:8.64"/>
	<line x1="3706.31" y1="2424.21" x2="3717.45" y2="2424.34" stroke-linecap="round" style="stroke:#1A476F;stroke-width:8.64"/>
	<line x1="3717.45" y1="2424.34" x2="3728.59" y2="2424.46" stroke-linecap="round" style="stroke:#1A476F;stroke-width:8.64"/>
	<line x1="3728.59" y1="2424.46" x2="3739.72" y2="2424.59" stroke-linecap="round" style="stroke:#1A476F;stroke-width:8.64"/>
	<line x1="3739.72" y1="2424.59" x2="3750.99" y2="2424.71" stroke-linecap="round" style="stroke:#1A476F;stroke-width:8.64"/>
	<line x1="3750.99" y1="2424.71" x2="3762.12" y2="2424.83" stroke-linecap="round" style="stroke:#1A476F;stroke-width:8.64"/>
	<line x1="3762.12" y1="2424.83" x2="3773.26" y2="2424.96" stroke-linecap="round" style="stroke:#1A476F;stroke-width:8.64"/>
	<line x1="3773.26" y1="2424.96" x2="3784.52" y2="2425.08" stroke-linecap="round" style="stroke:#1A476F;stroke-width:8.64"/>
	<line x1="3784.52" y1="2425.08" x2="3795.66" y2="2425.20" stroke-linecap="round" style="stroke:#1A476F;stroke-width:8.64"/>
	<line x1="390.80" y1="2489.19" x2="390.80" y2="100.86" style="stroke:#000000;stroke-width:5.76"/>
	<line x1="390.80" y1="2425.82" x2="350.83" y2="2425.82" style="stroke:#000000;stroke-width:5.76"/>
	<text x="300.72" y="2425.82" style="font-family:'Helvetica';font-size:99.99px;fill:#000000" transform="rotate(-90 300.72,2425.82)" text-anchor="middle">0</text>
	<line x1="390.80" y1="1860.39" x2="350.83" y2="1860.39" style="stroke:#000000;stroke-width:5.76"/>
	<text x="300.72" y="1860.39" style="font-family:'Helvetica';font-size:99.99px;fill:#000000" transform="rotate(-90 300.72,1860.39)" text-anchor="middle">.1</text>
	<line x1="390.80" y1="1294.96" x2="350.83" y2="1294.96" style="stroke:#000000;stroke-width:5.76"/>
	<text x="300.72" y="1294.96" style="font-family:'Helvetica';font-size:99.99px;fill:#000000" transform="rotate(-90 300.72,1294.96)" text-anchor="middle">.2</text>
	<line x1="390.80" y1="729.53" x2="350.83" y2="729.53" style="stroke:#000000;stroke-width:5.76"/>
	<text x="300.72" y="729.53" style="font-family:'Helvetica';font-size:99.99px;fill:#000000" transform="rotate(-90 300.72,729.53)" text-anchor="middle">.3</text>
	<line x1="390.80" y1="164.22" x2="350.83" y2="164.22" style="stroke:#000000;stroke-width:5.76"/>
	<text x="300.72" y="164.22" style="font-family:'Helvetica';font-size:99.99px;fill:#000000" transform="rotate(-90 300.72,164.22)" text-anchor="middle">.4</text>
	<text x="190.71" y="1294.96" style="font-family:'Helvetica';font-size:99.99px;fill:#000000" transform="rotate(-90 190.71,1294.96)" text-anchor="middle">probability density</text>
	<line x1="390.80" y1="2489.19" x2="3859.02" y2="2489.19" style="stroke:#000000;stroke-width:5.76"/>
	<line x1="1306.18" y1="2489.19" x2="1306.18" y2="2529.16" style="stroke:#000000;stroke-width:5.76"/>
	<text x="1306.18" y="2619.14" style="font-family:'Helvetica';font-size:99.99px;fill:#000000" text-anchor="middle">-1.96</text>
	<line x1="2124.91" y1="2489.19" x2="2124.91" y2="2529.16" style="stroke:#000000;stroke-width:5.76"/>
	<text x="2124.91" y="2619.14" style="font-family:'Helvetica';font-size:99.99px;fill:#000000" text-anchor="middle">0</text>
	<line x1="2943.64" y1="2489.19" x2="2943.64" y2="2529.16" style="stroke:#000000;stroke-width:5.76"/>
	<text x="2943.64" y="2619.14" style="font-family:'Helvetica';font-size:99.99px;fill:#000000" text-anchor="middle">1.96</text>
	<text x="2124.91" y="2729.16" style="font-family:'Helvetica';font-size:99.99px;fill:#000000" text-anchor="middle">z</text>
</svg>
