<?xml version="1.0" encoding="UTF-8" standalone="no"?>
<!-- This is a Stata generated SVG file (http://www.stata.com) -->

<svg version="1.1" width="5.50in" height="4.00in" viewBox="0 0 3960 2880" xmlns="http://www.w3.org/2000/svg">
	<rect x="0.00" y="0.00" width="3959.88" height="2880.00" style="fill:#EAF2F3;stroke:#EAF2F3;stroke-width:5.76"/>
	<rect x="390.68" y="100.86" width="3468.34" height="2388.45" style="fill:#FFFFFF;stroke:#FFFFFF;stroke-width:5.76"/>
	<line x1="390.68" y1="2489.31" x2="3859.02" y2="2489.31" style="stroke:#EAF2F3;stroke-width:8.64"/>
	<line x1="390.68" y1="1908.04" x2="3859.02" y2="1908.04" style="stroke:#EAF2F3;stroke-width:8.64"/>
	<line x1="390.68" y1="1326.77" x2="3859.02" y2="1326.77" style="stroke:#EAF2F3;stroke-width:8.64"/>
	<line x1="390.68" y1="745.49" x2="3859.02" y2="745.49" style="stroke:#EAF2F3;stroke-width:8.64"/>
	<line x1="390.68" y1="164.22" x2="3859.02" y2="164.22" style="stroke:#EAF2F3;stroke-width:8.64"/>
	<rect x="495.99" y="1036.07" width="84.03" height="1453.24" style="fill:#CAC27E;stroke:#D7D29E;stroke-width:8.64"/>
	<rect x="580.02" y="1361.66" width="83.90" height="1127.65" style="fill:#CAC27E;stroke:#D7D29E;stroke-width:8.64"/>
	<rect x="663.92" y="1384.93" width="83.90" height="1104.38" style="fill:#CAC27E;stroke:#D7D29E;stroke-width:8.64"/>
	<rect x="747.82" y="1210.44" width="83.90" height="1278.87" style="fill:#CAC27E;stroke:#D7D29E;stroke-width:8.64"/>
	<rect x="831.72" y="1280.23" width="83.90" height="1209.08" style="fill:#CAC27E;stroke:#D7D29E;stroke-width:8.64"/>
	<rect x="915.63" y="1245.34" width="84.03" height="1243.97" style="fill:#CAC27E;stroke:#D7D29E;stroke-width:8.64"/>
	<rect x="999.65" y="1256.97" width="83.90" height="1232.34" style="fill:#CAC27E;stroke:#D7D29E;stroke-width:8.64"/>
	<rect x="1083.56" y="1373.30" width="83.90" height="1116.01" style="fill:#CAC27E;stroke:#D7D29E;stroke-width:8.64"/>
	<rect x="1167.46" y="1210.44" width="83.90" height="1278.87" style="fill:#CAC27E;stroke:#D7D29E;stroke-width:8.64"/>
	<rect x="1251.36" y="1524.40" width="83.90" height="964.91" style="fill:#CAC27E;stroke:#D7D29E;stroke-width:8.64"/>
	<rect x="1335.26" y="1512.77" width="84.03" height="976.54" style="fill:#CAC27E;stroke:#D7D29E;stroke-width:8.64"/>
	<rect x="1419.29" y="617.66" width="83.90" height="1871.65" style="fill:#CAC27E;stroke:#D7D29E;stroke-width:8.64"/>
	<rect x="1503.19" y="966.39" width="83.90" height="1522.92" style="fill:#CAC27E;stroke:#D7D29E;stroke-width:8.64"/>
	<rect x="1587.09" y="815.29" width="83.90" height="1674.02" style="fill:#CAC27E;stroke:#D7D29E;stroke-width:8.64"/>
	<rect x="1671.00" y="466.43" width="83.90" height="2022.88" style="fill:#CAC27E;stroke:#D7D29E;stroke-width:8.64"/>
	<rect x="1754.90" y="687.33" width="84.03" height="1801.98" style="fill:#CAC27E;stroke:#D7D29E;stroke-width:8.64"/>
	<rect x="1838.92" y="687.33" width="83.90" height="1801.98" style="fill:#CAC27E;stroke:#D7D29E;stroke-width:8.64"/>
	<rect x="1922.83" y="733.86" width="83.90" height="1755.45" style="fill:#CAC27E;stroke:#D7D29E;stroke-width:8.64"/>
	<rect x="2006.73" y="1129.13" width="83.90" height="1360.18" style="fill:#CAC27E;stroke:#D7D29E;stroke-width:8.64"/>
	<rect x="2090.63" y="1175.66" width="83.90" height="1313.65" style="fill:#CAC27E;stroke:#D7D29E;stroke-width:8.64"/>
	<rect x="2174.53" y="978.03" width="84.03" height="1511.28" style="fill:#CAC27E;stroke:#D7D29E;stroke-width:8.64"/>
	<rect x="2258.56" y="1303.50" width="83.90" height="1185.81" style="fill:#CAC27E;stroke:#D7D29E;stroke-width:8.64"/>
	<rect x="2342.46" y="1210.44" width="83.90" height="1278.87" style="fill:#CAC27E;stroke:#D7D29E;stroke-width:8.64"/>
	<rect x="2426.37" y="1117.50" width="83.90" height="1371.81" style="fill:#CAC27E;stroke:#D7D29E;stroke-width:8.64"/>
	<rect x="2510.27" y="1466.24" width="83.90" height="1023.07" style="fill:#CAC27E;stroke:#D7D29E;stroke-width:8.64"/>
	<rect x="2594.17" y="1396.44" width="84.03" height="1092.87" style="fill:#CAC27E;stroke:#D7D29E;stroke-width:8.64"/>
	<rect x="2678.20" y="1245.34" width="83.90" height="1243.97" style="fill:#CAC27E;stroke:#D7D29E;stroke-width:8.64"/>
	<rect x="2762.10" y="1628.97" width="83.90" height="860.34" style="fill:#CAC27E;stroke:#D7D29E;stroke-width:8.64"/>
	<rect x="2846.00" y="1791.71" width="83.90" height="697.60" style="fill:#CAC27E;stroke:#D7D29E;stroke-width:8.64"/>
	<rect x="2929.91" y="1838.24" width="83.90" height="651.07" style="fill:#CAC27E;stroke:#D7D29E;stroke-width:8.64"/>
	<rect x="3013.81" y="2012.61" width="84.03" height="476.70" style="fill:#CAC27E;stroke:#D7D29E;stroke-width:8.64"/>
	<rect x="3097.83" y="2175.35" width="83.90" height="313.96" style="fill:#CAC27E;stroke:#D7D29E;stroke-width:8.64"/>
	<rect x="3181.74" y="2233.51" width="83.90" height="255.80" style="fill:#CAC27E;stroke:#D7D29E;stroke-width:8.64"/>
	<rect x="3265.64" y="2326.57" width="83.90" height="162.74" style="fill:#CAC27E;stroke:#D7D29E;stroke-width:8.64"/>
	<rect x="3349.54" y="2407.88" width="84.03" height="81.43" style="fill:#CAC27E;stroke:#D7D29E;stroke-width:8.64"/>
	<line x1="390.68" y1="2489.31" x2="390.68" y2="100.86" style="stroke:#000000;stroke-width:5.76"/>
	<line x1="390.68" y1="2489.31" x2="350.71" y2="2489.31" style="stroke:#000000;stroke-width:5.76"/>
	<text x="300.72" y="2489.31" style="font-family:'Helvetica';font-size:99.99px;fill:#000000" transform="rotate(-90 300.72,2489.31)" text-anchor="middle">0</text>
	<line x1="390.68" y1="1908.04" x2="350.71" y2="1908.04" style="stroke:#000000;stroke-width:5.76"/>
	<text x="300.72" y="1908.04" style="font-family:'Helvetica';font-size:99.99px;fill:#000000" transform="rotate(-90 300.72,1908.04)" text-anchor="middle">50</text>
	<line x1="390.68" y1="1326.77" x2="350.71" y2="1326.77" style="stroke:#000000;stroke-width:5.76"/>
	<text x="300.72" y="1326.77" style="font-family:'Helvetica';font-size:99.99px;fill:#000000" transform="rotate(-90 300.72,1326.77)" text-anchor="middle">100</text>
	<line x1="390.68" y1="745.49" x2="350.71" y2="745.49" style="stroke:#000000;stroke-width:5.76"/>
	<text x="300.72" y="745.49" style="font-family:'Helvetica';font-size:99.99px;fill:#000000" transform="rotate(-90 300.72,745.49)" text-anchor="middle">150</text>
	<line x1="390.68" y1="164.22" x2="350.71" y2="164.22" style="stroke:#000000;stroke-width:5.76"/>
	<text x="300.72" y="164.22" style="font-family:'Helvetica';font-size:99.99px;fill:#000000" transform="rotate(-90 300.72,164.22)" text-anchor="middle">200</text>
	<text x="190.71" y="1295.08" style="font-family:'Helvetica';font-size:99.99px;fill:#000000" transform="rotate(-90 190.71,1295.08)" text-anchor="middle">Frequency</text>
	<line x1="390.68" y1="2489.31" x2="3859.02" y2="2489.31" style="stroke:#000000;stroke-width:5.76"/>
	<line x1="576.55" y1="2489.31" x2="576.55" y2="2529.28" style="stroke:#000000;stroke-width:5.76"/>
	<text x="576.55" y="2619.14" style="font-family:'Helvetica';font-size:99.99px;fill:#000000" text-anchor="middle">20</text>
	<line x1="1381.30" y1="2489.31" x2="1381.30" y2="2529.28" style="stroke:#000000;stroke-width:5.76"/>
	<text x="1381.30" y="2619.14" style="font-family:'Helvetica';font-size:99.99px;fill:#000000" text-anchor="middle">40</text>
	<line x1="2186.04" y1="2489.31" x2="2186.04" y2="2529.28" style="stroke:#000000;stroke-width:5.76"/>
	<text x="2186.04" y="2619.14" style="font-family:'Helvetica';font-size:99.99px;fill:#000000" text-anchor="middle">60</text>
	<line x1="2990.91" y1="2489.31" x2="2990.91" y2="2529.28" style="stroke:#000000;stroke-width:5.76"/>
	<text x="2990.91" y="2619.14" style="font-family:'Helvetica';font-size:99.99px;fill:#000000" text-anchor="middle">80</text>
	<line x1="3795.66" y1="2489.31" x2="3795.66" y2="2529.28" style="stroke:#000000;stroke-width:5.76"/>
	<text x="3795.66" y="2619.14" style="font-family:'Helvetica';font-size:99.99px;fill:#000000" text-anchor="middle">100</text>
	<text x="2124.91" y="2729.16" style="font-family:'Helvetica';font-size:99.99px;fill:#000000" text-anchor="middle">Age of respondent</text>
</svg>
