<?xml version="1.0" encoding="UTF-8" standalone="no"?>
<!-- This is a Stata generated SVG file (http://www.stata.com) -->

<svg version="1.1" width="5.50in" height="4.00in" viewBox="0 0 3960 2880" xmlns="http://www.w3.org/2000/svg">
	<rect x="0.00" y="0.00" width="3959.88" height="2880.00" style="fill:#EAF2F3;stroke:#EAF2F3;stroke-width:5.76"/>
	<rect x="390.80" y="100.86" width="3468.22" height="2388.33" style="fill:#FFFFFF;stroke:#FFFFFF;stroke-width:5.76"/>
	<line x1="390.80" y1="2489.19" x2="3859.02" y2="2489.19" style="stroke:#EAF2F3;stroke-width:8.64"/>
	<line x1="390.80" y1="2024.24" x2="3859.02" y2="2024.24" style="stroke:#EAF2F3;stroke-width:8.64"/>
	<line x1="390.80" y1="1559.17" x2="3859.02" y2="1559.17" style="stroke:#EAF2F3;stroke-width:8.64"/>
	<line x1="390.80" y1="1094.23" x2="3859.02" y2="1094.23" style="stroke:#EAF2F3;stroke-width:8.64"/>
	<line x1="390.80" y1="629.16" x2="3859.02" y2="629.16" style="stroke:#EAF2F3;stroke-width:8.64"/>
	<line x1="390.80" y1="164.22" x2="3859.02" y2="164.22" style="stroke:#EAF2F3;stroke-width:8.64"/>
	<rect x="553.04" y="1298.55" width="197.63" height="1190.64" style="fill:#CAC27E;stroke:#D7D29E;stroke-width:8.64"/>
	<rect x="750.67" y="1094.73" width="197.75" height="1394.46" style="fill:#CAC27E;stroke:#D7D29E;stroke-width:8.64"/>
	<rect x="948.42" y="1083.96" width="197.75" height="1405.23" style="fill:#CAC27E;stroke:#D7D29E;stroke-width:8.64"/>
	<rect x="1146.17" y="1207.34" width="197.75" height="1281.84" style="fill:#CAC27E;stroke:#D7D29E;stroke-width:8.64"/>
	<rect x="1343.92" y="1271.69" width="197.75" height="1217.49" style="fill:#CAC27E;stroke:#D7D29E;stroke-width:8.64"/>
	<rect x="1541.68" y="649.58" width="197.63" height="1839.60" style="fill:#CAC27E;stroke:#D7D29E;stroke-width:8.64"/>
	<rect x="1739.31" y="290.20" width="197.75" height="2198.98" style="fill:#CAC27E;stroke:#D7D29E;stroke-width:8.64"/>
	<rect x="1937.06" y="654.91" width="197.75" height="1834.28" style="fill:#CAC27E;stroke:#D7D29E;stroke-width:8.64"/>
	<rect x="2134.81" y="853.41" width="197.75" height="1635.78" style="fill:#CAC27E;stroke:#D7D29E;stroke-width:8.64"/>
	<rect x="2332.56" y="1223.43" width="197.75" height="1265.75" style="fill:#CAC27E;stroke:#D7D29E;stroke-width:8.64"/>
	<rect x="2530.32" y="1341.49" width="197.63" height="1147.69" style="fill:#CAC27E;stroke:#D7D29E;stroke-width:8.64"/>
	<rect x="2727.95" y="1336.05" width="197.75" height="1153.14" style="fill:#CAC27E;stroke:#D7D29E;stroke-width:8.64"/>
	<rect x="2925.70" y="1829.45" width="197.75" height="659.73" style="fill:#CAC27E;stroke:#D7D29E;stroke-width:8.64"/>
	<rect x="3123.45" y="2172.75" width="197.75" height="316.44" style="fill:#CAC27E;stroke:#D7D29E;stroke-width:8.64"/>
	<rect x="3321.20" y="2430.15" width="197.75" height="59.03" style="fill:#CAC27E;stroke:#D7D29E;stroke-width:8.64"/>
	<line x1="390.80" y1="2489.19" x2="390.80" y2="100.86" style="stroke:#000000;stroke-width:5.76"/>
	<line x1="390.80" y1="2489.19" x2="350.83" y2="2489.19" style="stroke:#000000;stroke-width:5.76"/>
	<text x="300.72" y="2489.19" style="font-family:'Helvetica';font-size:99.99px;fill:#000000" transform="rotate(-90 300.72,2489.19)" text-anchor="middle">0</text>
	<line x1="390.80" y1="2024.24" x2="350.83" y2="2024.24" style="stroke:#000000;stroke-width:5.76"/>
	<text x="300.72" y="2024.24" style="font-family:'Helvetica';font-size:99.99px;fill:#000000" transform="rotate(-90 300.72,2024.24)" text-anchor="middle">.005</text>
	<line x1="390.80" y1="1559.17" x2="350.83" y2="1559.17" style="stroke:#000000;stroke-width:5.76"/>
	<text x="300.72" y="1559.17" style="font-family:'Helvetica';font-size:99.99px;fill:#000000" transform="rotate(-90 300.72,1559.17)" text-anchor="middle">.01</text>
	<line x1="390.80" y1="1094.23" x2="350.83" y2="1094.23" style="stroke:#000000;stroke-width:5.76"/>
	<text x="300.72" y="1094.23" style="font-family:'Helvetica';font-size:99.99px;fill:#000000" transform="rotate(-90 300.72,1094.23)" text-anchor="middle">.015</text>
	<line x1="390.80" y1="629.16" x2="350.83" y2="629.16" style="stroke:#000000;stroke-width:5.76"/>
	<text x="300.72" y="629.16" style="font-family:'Helvetica';font-size:99.99px;fill:#000000" transform="rotate(-90 300.72,629.16)" text-anchor="middle">.02</text>
	<line x1="390.80" y1="164.22" x2="350.83" y2="164.22" style="stroke:#000000;stroke-width:5.76"/>
	<text x="300.72" y="164.22" style="font-family:'Helvetica';font-size:99.99px;fill:#000000" transform="rotate(-90 300.72,164.22)" text-anchor="middle">.025</text>
	<text x="190.71" y="1294.96" style="font-family:'Helvetica';font-size:99.99px;fill:#000000" transform="rotate(-90 190.71,1294.96)" text-anchor="middle">Density</text>
	<line x1="390.80" y1="2489.19" x2="3859.02" y2="2489.19" style="stroke:#000000;stroke-width:5.76"/>
	<line x1="632.12" y1="2489.19" x2="632.12" y2="2529.16" style="stroke:#000000;stroke-width:5.76"/>
	<text x="632.12" y="2619.14" style="font-family:'Helvetica';font-size:99.99px;fill:#000000" text-anchor="middle">20</text>
	<line x1="1423.00" y1="2489.19" x2="1423.00" y2="2529.16" style="stroke:#000000;stroke-width:5.76"/>
	<text x="1423.00" y="2619.14" style="font-family:'Helvetica';font-size:99.99px;fill:#000000" text-anchor="middle">40</text>
	<line x1="2213.89" y1="2489.19" x2="2213.89" y2="2529.16" style="stroke:#000000;stroke-width:5.76"/>
	<text x="2213.89" y="2619.14" style="font-family:'Helvetica';font-size:99.99px;fill:#000000" text-anchor="middle">60</text>
	<line x1="3004.77" y1="2489.19" x2="3004.77" y2="2529.16" style="stroke:#000000;stroke-width:5.76"/>
	<text x="3004.77" y="2619.14" style="font-family:'Helvetica';font-size:99.99px;fill:#000000" text-anchor="middle">80</text>
	<line x1="3795.66" y1="2489.19" x2="3795.66" y2="2529.16" style="stroke:#000000;stroke-width:5.76"/>
	<text x="3795.66" y="2619.14" style="font-family:'Helvetica';font-size:99.99px;fill:#000000" text-anchor="middle">100</text>
	<text x="2124.91" y="2729.16" style="font-family:'Helvetica';font-size:99.99px;fill:#000000" text-anchor="middle">Age of respondent</text>
</svg>
