<?xml version="1.0" encoding="UTF-8" standalone="no"?>
<!-- This is a Stata 15.1 generated SVG file (http://www.stata.com) -->

<svg version="1.1" width="5.50in" height="4.00in" viewBox="0 0 3960 2880" xmlns="http://www.w3.org/2000/svg" xmlns:xlink="http://www.w3.org/1999/xlink">
	<desc>Stata Graph - Graph</desc>
	<rect x="0" y="0" width="3960" height="2880" style="fill:#EAF2F3;stroke:none"/>
	<rect x="0.00" y="0.00" width="3959.88" height="2880.00" style="fill:#EAF2F3"/>
	<rect x="2.88" y="2.88" width="3954.12" height="2874.24" style="fill:none;stroke:#EAF2F3;stroke-width:5.76"/>
	<rect x="390.80" y="100.86" width="3468.22" height="2388.33" style="fill:#FFFFFF"/>
	<rect x="393.68" y="103.74" width="3462.46" height="2382.57" style="fill:none;stroke:#FFFFFF;stroke-width:5.76"/>
	<line x1="390.80" y1="2489.19" x2="3859.02" y2="2489.19" style="stroke:#EAF2F3;stroke-width:8.64"/>
	<line x1="390.80" y1="2024.24" x2="3859.02" y2="2024.24" style="stroke:#EAF2F3;stroke-width:8.64"/>
	<line x1="390.80" y1="1559.17" x2="3859.02" y2="1559.17" style="stroke:#EAF2F3;stroke-width:8.64"/>
	<line x1="390.80" y1="1094.23" x2="3859.02" y2="1094.23" style="stroke:#EAF2F3;stroke-width:8.64"/>
	<line x1="390.80" y1="629.16" x2="3859.02" y2="629.16" style="stroke:#EAF2F3;stroke-width:8.64"/>
	<line x1="390.80" y1="164.22" x2="3859.02" y2="164.22" style="stroke:#EAF2F3;stroke-width:8.64"/>
	<rect x="496.11" y="881.99" width="83.90" height="1607.19" style="fill:#CAC27E"/>
	<rect x="500.43" y="886.31" width="75.26" height="1598.55" style="fill:none;stroke:#D7D29E;stroke-width:8.64"/>
	<rect x="580.02" y="1241.99" width="83.90" height="1247.19" style="fill:#CAC27E"/>
	<rect x="584.34" y="1246.31" width="75.26" height="1238.55" style="fill:none;stroke:#D7D29E;stroke-width:8.64"/>
	<rect x="663.92" y="1267.73" width="84.03" height="1221.45" style="fill:#CAC27E"/>
	<rect x="668.24" y="1272.05" width="75.39" height="1212.81" style="fill:none;stroke:#D7D29E;stroke-width:8.64"/>
	<rect x="747.95" y="1074.93" width="83.90" height="1414.26" style="fill:#CAC27E"/>
	<rect x="752.26" y="1079.25" width="75.26" height="1405.62" style="fill:none;stroke:#D7D29E;stroke-width:8.64"/>
	<rect x="831.85" y="1152.02" width="83.90" height="1337.16" style="fill:#CAC27E"/>
	<rect x="836.17" y="1156.34" width="75.26" height="1328.52" style="fill:none;stroke:#D7D29E;stroke-width:8.64"/>
	<rect x="915.75" y="1113.41" width="83.90" height="1375.77" style="fill:#CAC27E"/>
	<rect x="920.07" y="1117.73" width="75.26" height="1367.13" style="fill:none;stroke:#D7D29E;stroke-width:8.64"/>
	<rect x="999.65" y="1126.28" width="83.90" height="1362.90" style="fill:#CAC27E"/>
	<rect x="1003.97" y="1130.60" width="75.26" height="1354.26" style="fill:none;stroke:#D7D29E;stroke-width:8.64"/>
	<rect x="1083.56" y="1254.86" width="84.03" height="1234.32" style="fill:#CAC27E"/>
	<rect x="1087.87" y="1259.18" width="75.39" height="1225.68" style="fill:none;stroke:#D7D29E;stroke-width:8.64"/>
	<rect x="1167.58" y="1074.93" width="83.90" height="1414.26" style="fill:#CAC27E"/>
	<rect x="1171.90" y="1079.25" width="75.26" height="1405.62" style="fill:none;stroke:#D7D29E;stroke-width:8.64"/>
	<rect x="1251.48" y="1422.06" width="83.90" height="1067.13" style="fill:#CAC27E"/>
	<rect x="1255.80" y="1426.38" width="75.26" height="1058.49" style="fill:none;stroke:#D7D29E;stroke-width:8.64"/>
	<rect x="1335.39" y="1409.19" width="83.90" height="1080.00" style="fill:#CAC27E"/>
	<rect x="1339.71" y="1413.51" width="75.26" height="1071.36" style="fill:none;stroke:#D7D29E;stroke-width:8.64"/>
	<rect x="1419.29" y="419.15" width="83.90" height="2070.03" style="fill:#CAC27E"/>
	<rect x="1423.61" y="423.47" width="75.26" height="2061.39" style="fill:none;stroke:#D7D29E;stroke-width:8.64"/>
	<rect x="1503.19" y="804.90" width="84.03" height="1684.29" style="fill:#CAC27E"/>
	<rect x="1507.51" y="809.22" width="75.39" height="1675.65" style="fill:none;stroke:#D7D29E;stroke-width:8.64"/>
	<rect x="1587.22" y="637.70" width="83.90" height="1851.48" style="fill:#CAC27E"/>
	<rect x="1591.54" y="642.02" width="75.26" height="1842.84" style="fill:none;stroke:#D7D29E;stroke-width:8.64"/>
	<rect x="1671.12" y="251.96" width="83.90" height="2237.22" style="fill:#CAC27E"/>
	<rect x="1675.44" y="256.28" width="75.26" height="2228.58" style="fill:none;stroke:#D7D29E;stroke-width:8.64"/>
	<rect x="1755.02" y="496.25" width="83.90" height="1992.93" style="fill:#CAC27E"/>
	<rect x="1759.34" y="500.57" width="75.26" height="1984.29" style="fill:none;stroke:#D7D29E;stroke-width:8.64"/>
	<rect x="1838.92" y="496.25" width="83.90" height="1992.93" style="fill:#CAC27E"/>
	<rect x="1843.24" y="500.57" width="75.26" height="1984.29" style="fill:none;stroke:#D7D29E;stroke-width:8.64"/>
	<rect x="1922.83" y="547.73" width="84.03" height="1941.45" style="fill:#CAC27E"/>
	<rect x="1927.15" y="552.05" width="75.39" height="1932.81" style="fill:none;stroke:#D7D29E;stroke-width:8.64"/>
	<rect x="2006.85" y="984.83" width="83.90" height="1504.35" style="fill:#CAC27E"/>
	<rect x="2011.17" y="989.15" width="75.26" height="1495.71" style="fill:none;stroke:#D7D29E;stroke-width:8.64"/>
	<rect x="2090.76" y="1036.31" width="83.90" height="1452.87" style="fill:#CAC27E"/>
	<rect x="2095.08" y="1040.63" width="75.26" height="1444.23" style="fill:none;stroke:#D7D29E;stroke-width:8.64"/>
	<rect x="2174.66" y="817.77" width="83.90" height="1671.42" style="fill:#CAC27E"/>
	<rect x="2178.98" y="822.09" width="75.26" height="1662.78" style="fill:none;stroke:#D7D29E;stroke-width:8.64"/>
	<rect x="2258.56" y="1177.77" width="83.90" height="1311.42" style="fill:#CAC27E"/>
	<rect x="2262.88" y="1182.09" width="75.26" height="1302.78" style="fill:none;stroke:#D7D29E;stroke-width:8.64"/>
	<rect x="2342.46" y="1074.93" width="84.03" height="1414.26" style="fill:#CAC27E"/>
	<rect x="2346.78" y="1079.25" width="75.39" height="1405.62" style="fill:none;stroke:#D7D29E;stroke-width:8.64"/>
	<rect x="2426.49" y="971.96" width="83.90" height="1517.22" style="fill:#CAC27E"/>
	<rect x="2430.81" y="976.28" width="75.26" height="1508.58" style="fill:none;stroke:#D7D29E;stroke-width:8.64"/>
	<rect x="2510.39" y="1357.70" width="83.90" height="1131.48" style="fill:#CAC27E"/>
	<rect x="2514.71" y="1362.02" width="75.26" height="1122.84" style="fill:none;stroke:#D7D29E;stroke-width:8.64"/>
	<rect x="2594.30" y="1280.61" width="83.90" height="1208.58" style="fill:#CAC27E"/>
	<rect x="2598.61" y="1284.92" width="75.26" height="1199.94" style="fill:none;stroke:#D7D29E;stroke-width:8.64"/>
	<rect x="2678.20" y="1113.41" width="83.90" height="1375.77" style="fill:#CAC27E"/>
	<rect x="2682.52" y="1117.73" width="75.26" height="1367.13" style="fill:none;stroke:#D7D29E;stroke-width:8.64"/>
	<rect x="2762.10" y="1537.77" width="84.03" height="951.42" style="fill:#CAC27E"/>
	<rect x="2766.42" y="1542.09" width="75.39" height="942.78" style="fill:none;stroke:#D7D29E;stroke-width:8.64"/>
	<rect x="2846.13" y="1717.70" width="83.90" height="771.48" style="fill:#CAC27E"/>
	<rect x="2850.45" y="1722.02" width="75.26" height="762.84" style="fill:none;stroke:#D7D29E;stroke-width:8.64"/>
	<rect x="2930.03" y="1769.19" width="83.90" height="720.00" style="fill:#CAC27E"/>
	<rect x="2934.35" y="1773.51" width="75.26" height="711.36" style="fill:none;stroke:#D7D29E;stroke-width:8.64"/>
	<rect x="3013.93" y="1961.99" width="83.90" height="527.19" style="fill:#CAC27E"/>
	<rect x="3018.25" y="1966.31" width="75.26" height="518.55" style="fill:none;stroke:#D7D29E;stroke-width:8.64"/>
	<rect x="3097.83" y="2142.06" width="83.90" height="347.13" style="fill:#CAC27E"/>
	<rect x="3102.15" y="2146.38" width="75.26" height="338.49" style="fill:none;stroke:#D7D29E;stroke-width:8.64"/>
	<rect x="3181.74" y="2206.28" width="84.03" height="282.90" style="fill:#CAC27E"/>
	<rect x="3186.06" y="2210.60" width="75.39" height="274.26" style="fill:none;stroke:#D7D29E;stroke-width:8.64"/>
	<rect x="3265.76" y="2309.25" width="83.90" height="179.94" style="fill:#CAC27E"/>
	<rect x="3270.08" y="2313.57" width="75.26" height="171.30" style="fill:none;stroke:#D7D29E;stroke-width:8.64"/>
	<rect x="3349.66" y="2399.22" width="83.90" height="89.97" style="fill:#CAC27E"/>
	<rect x="3353.98" y="2403.54" width="75.26" height="81.33" style="fill:none;stroke:#D7D29E;stroke-width:8.64"/>
	<line x1="390.80" y1="2489.19" x2="390.80" y2="100.86" style="stroke:#000000;stroke-width:5.76"/>
	<line x1="390.80" y1="2489.19" x2="350.83" y2="2489.19" style="stroke:#000000;stroke-width:5.76"/>
	<text x="300.72" y="2489.19" style="font-family:'Helvetica';font-size:99.99px;fill:#000000" transform="rotate(-90 300.72,2489.19)" text-anchor="middle">0</text>
	<line x1="390.80" y1="2024.24" x2="350.83" y2="2024.24" style="stroke:#000000;stroke-width:5.76"/>
	<text x="300.72" y="2024.24" style="font-family:'Helvetica';font-size:99.99px;fill:#000000" transform="rotate(-90 300.72,2024.24)" text-anchor="middle">.005</text>
	<line x1="390.80" y1="1559.17" x2="350.83" y2="1559.17" style="stroke:#000000;stroke-width:5.76"/>
	<text x="300.72" y="1559.17" style="font-family:'Helvetica';font-size:99.99px;fill:#000000" transform="rotate(-90 300.72,1559.17)" text-anchor="middle">.01</text>
	<line x1="390.80" y1="1094.23" x2="350.83" y2="1094.23" style="stroke:#000000;stroke-width:5.76"/>
	<text x="300.72" y="1094.23" style="font-family:'Helvetica';font-size:99.99px;fill:#000000" transform="rotate(-90 300.72,1094.23)" text-anchor="middle">.015</text>
	<line x1="390.80" y1="629.16" x2="350.83" y2="629.16" style="stroke:#000000;stroke-width:5.76"/>
	<text x="300.72" y="629.16" style="font-family:'Helvetica';font-size:99.99px;fill:#000000" transform="rotate(-90 300.72,629.16)" text-anchor="middle">.02</text>
	<line x1="390.80" y1="164.22" x2="350.83" y2="164.22" style="stroke:#000000;stroke-width:5.76"/>
	<text x="300.72" y="164.22" style="font-family:'Helvetica';font-size:99.99px;fill:#000000" transform="rotate(-90 300.72,164.22)" text-anchor="middle">.025</text>
	<text x="190.71" y="1294.96" style="font-family:'Helvetica';font-size:99.99px;fill:#000000" transform="rotate(-90 190.71,1294.96)" text-anchor="middle">Density</text>
	<line x1="390.80" y1="2489.19" x2="3859.02" y2="2489.19" style="stroke:#000000;stroke-width:5.76"/>
	<line x1="576.55" y1="2489.19" x2="576.55" y2="2529.16" style="stroke:#000000;stroke-width:5.76"/>
	<text x="576.55" y="2619.14" style="font-family:'Helvetica';font-size:99.99px;fill:#000000" text-anchor="middle">20</text>
	<line x1="1381.42" y1="2489.19" x2="1381.42" y2="2529.16" style="stroke:#000000;stroke-width:5.76"/>
	<text x="1381.42" y="2619.14" style="font-family:'Helvetica';font-size:99.99px;fill:#000000" text-anchor="middle">40</text>
	<line x1="2186.17" y1="2489.19" x2="2186.17" y2="2529.16" style="stroke:#000000;stroke-width:5.76"/>
	<text x="2186.17" y="2619.14" style="font-family:'Helvetica';font-size:99.99px;fill:#000000" text-anchor="middle">60</text>
	<line x1="2990.91" y1="2489.19" x2="2990.91" y2="2529.16" style="stroke:#000000;stroke-width:5.76"/>
	<text x="2990.91" y="2619.14" style="font-family:'Helvetica';font-size:99.99px;fill:#000000" text-anchor="middle">80</text>
	<line x1="3795.66" y1="2489.19" x2="3795.66" y2="2529.16" style="stroke:#000000;stroke-width:5.76"/>
	<text x="3795.66" y="2619.14" style="font-family:'Helvetica';font-size:99.99px;fill:#000000" text-anchor="middle">100</text>
	<text x="2124.91" y="2729.16" style="font-family:'Helvetica';font-size:99.99px;fill:#000000" text-anchor="middle">Age of respondent</text>
</svg>
